<svg width="304" height="227" viewBox="0 0 304 227" fill="none" xmlns="http://www.w3.org/2000/svg">
<rect x="5" y="160" width="298" height="66" rx="7" fill="black" stroke="black" stroke-width="2"/>
<rect x="1" y="156" width="298" height="66" rx="7" fill="white" stroke="black" stroke-width="2"/>
<path d="M16.9463 170.203V183H14.3184V170.203H16.9463ZM24.3994 180.372C24.3994 180.19 24.3467 180.026 24.2412 179.88C24.1357 179.733 23.9395 179.599 23.6523 179.476C23.3711 179.347 22.9639 179.229 22.4307 179.124C21.9502 179.019 21.502 178.887 21.0859 178.729C20.6758 178.564 20.3184 178.368 20.0137 178.14C19.7148 177.911 19.4805 177.642 19.3105 177.331C19.1406 177.015 19.0557 176.654 19.0557 176.25C19.0557 175.852 19.1406 175.477 19.3105 175.125C19.4863 174.773 19.7354 174.463 20.0576 174.193C20.3857 173.918 20.7842 173.704 21.2529 173.552C21.7275 173.394 22.2607 173.314 22.8525 173.314C23.6787 173.314 24.3877 173.446 24.9795 173.71C25.5771 173.974 26.0342 174.337 26.3506 174.8C26.6729 175.257 26.834 175.778 26.834 176.364H24.3027C24.3027 176.118 24.25 175.898 24.1445 175.705C24.0449 175.506 23.8867 175.351 23.6699 175.239C23.459 175.122 23.1836 175.063 22.8438 175.063C22.5625 175.063 22.3193 175.113 22.1143 175.213C21.9092 175.307 21.751 175.436 21.6396 175.6C21.5342 175.758 21.4814 175.934 21.4814 176.127C21.4814 176.273 21.5107 176.405 21.5693 176.522C21.6338 176.634 21.7363 176.736 21.877 176.83C22.0176 176.924 22.1992 177.012 22.4219 177.094C22.6504 177.17 22.9316 177.24 23.2656 177.305C23.9512 177.445 24.5635 177.63 25.1025 177.858C25.6416 178.081 26.0693 178.386 26.3857 178.772C26.7021 179.153 26.8604 179.654 26.8604 180.275C26.8604 180.697 26.7666 181.084 26.5791 181.436C26.3916 181.787 26.1221 182.095 25.7705 182.358C25.4189 182.616 24.9971 182.818 24.5049 182.965C24.0186 183.105 23.4707 183.176 22.8613 183.176C21.9766 183.176 21.2266 183.018 20.6113 182.701C20.002 182.385 19.5391 181.983 19.2227 181.497C18.9121 181.005 18.7568 180.501 18.7568 179.985H21.1562C21.168 180.331 21.2559 180.609 21.4199 180.82C21.5898 181.031 21.8037 181.184 22.0615 181.277C22.3252 181.371 22.6094 181.418 22.9141 181.418C23.2422 181.418 23.5146 181.374 23.7314 181.286C23.9482 181.192 24.1123 181.069 24.2236 180.917C24.3408 180.759 24.3994 180.577 24.3994 180.372ZM33.6367 180.855V176.619C33.6367 176.314 33.5869 176.054 33.4873 175.837C33.3877 175.614 33.2324 175.441 33.0215 175.318C32.8164 175.195 32.5498 175.134 32.2217 175.134C31.9404 175.134 31.6973 175.184 31.4922 175.283C31.2871 175.377 31.1289 175.515 31.0176 175.696C30.9062 175.872 30.8506 176.08 30.8506 176.32H28.3193C28.3193 175.916 28.4131 175.532 28.6006 175.169C28.7881 174.806 29.0605 174.486 29.418 174.211C29.7754 173.93 30.2002 173.71 30.6924 173.552C31.1904 173.394 31.7471 173.314 32.3623 173.314C33.1006 173.314 33.7568 173.438 34.3311 173.684C34.9053 173.93 35.3564 174.299 35.6846 174.791C36.0186 175.283 36.1855 175.898 36.1855 176.637V180.706C36.1855 181.228 36.2178 181.655 36.2822 181.989C36.3467 182.317 36.4404 182.604 36.5635 182.851V183H34.0059C33.8828 182.742 33.7891 182.42 33.7246 182.033C33.666 181.641 33.6367 181.248 33.6367 180.855ZM33.9707 177.208L33.9883 178.641H32.5732C32.2393 178.641 31.9492 178.679 31.7031 178.755C31.457 178.831 31.2549 178.939 31.0967 179.08C30.9385 179.215 30.8213 179.373 30.7451 179.555C30.6748 179.736 30.6396 179.936 30.6396 180.152C30.6396 180.369 30.6895 180.565 30.7891 180.741C30.8887 180.911 31.0322 181.046 31.2197 181.146C31.4072 181.239 31.627 181.286 31.8789 181.286C32.2598 181.286 32.5908 181.21 32.8721 181.058C33.1533 180.905 33.3701 180.718 33.5225 180.495C33.6807 180.272 33.7627 180.062 33.7686 179.862L34.4365 180.935C34.3428 181.175 34.2139 181.424 34.0498 181.682C33.8916 181.939 33.6895 182.183 33.4434 182.411C33.1973 182.634 32.9014 182.818 32.5557 182.965C32.21 183.105 31.7998 183.176 31.3252 183.176C30.7217 183.176 30.1738 183.056 29.6816 182.815C29.1953 182.569 28.8086 182.232 28.5215 181.805C28.2402 181.371 28.0996 180.879 28.0996 180.328C28.0996 179.83 28.1934 179.388 28.3809 179.001C28.5684 178.614 28.8438 178.289 29.207 178.025C29.5762 177.756 30.0361 177.554 30.5869 177.419C31.1377 177.278 31.7764 177.208 32.5029 177.208H33.9707ZM38.1367 169.5H40.668V180.82L40.4131 183H38.1367V169.5ZM46.6885 178.148V178.333C46.6885 179.042 46.6123 179.692 46.46 180.284C46.3135 180.876 46.085 181.389 45.7744 181.822C45.4639 182.25 45.0771 182.584 44.6143 182.824C44.1572 183.059 43.6182 183.176 42.9971 183.176C42.417 183.176 41.9131 183.059 41.4854 182.824C41.0635 182.59 40.709 182.259 40.4219 181.831C40.1348 181.403 39.9033 180.902 39.7275 180.328C39.5518 179.754 39.4199 179.127 39.332 178.447V178.043C39.4199 177.363 39.5518 176.736 39.7275 176.162C39.9033 175.588 40.1348 175.087 40.4219 174.659C40.709 174.231 41.0635 173.9 41.4854 173.666C41.9072 173.432 42.4053 173.314 42.9795 173.314C43.6064 173.314 44.1514 173.435 44.6143 173.675C45.083 173.909 45.4697 174.243 45.7744 174.677C46.085 175.104 46.3135 175.614 46.46 176.206C46.6123 176.792 46.6885 177.439 46.6885 178.148ZM44.1572 178.333V178.148C44.1572 177.762 44.1279 177.398 44.0693 177.059C44.0166 176.713 43.9229 176.411 43.7881 176.153C43.6533 175.89 43.4688 175.682 43.2344 175.529C43.0059 175.377 42.71 175.301 42.3467 175.301C42.001 175.301 41.708 175.359 41.4678 175.477C41.2275 175.594 41.0283 175.758 40.8701 175.969C40.7178 176.18 40.6035 176.432 40.5273 176.725C40.4512 177.012 40.4043 177.328 40.3867 177.674V178.825C40.4043 179.288 40.4805 179.698 40.6152 180.056C40.7559 180.407 40.9668 180.686 41.248 180.891C41.5352 181.09 41.9072 181.189 42.3643 181.189C42.7217 181.189 43.0176 181.119 43.252 180.979C43.4863 180.838 43.668 180.639 43.7969 180.381C43.9316 180.123 44.0254 179.821 44.0781 179.476C44.1309 179.124 44.1572 178.743 44.1572 178.333ZM52.6387 183.176C51.9004 183.176 51.2383 183.059 50.6523 182.824C50.0664 182.584 49.5684 182.253 49.1582 181.831C48.7539 181.409 48.4434 180.92 48.2266 180.363C48.0098 179.801 47.9014 179.203 47.9014 178.57V178.219C47.9014 177.498 48.0039 176.839 48.209 176.241C48.4141 175.644 48.707 175.125 49.0879 174.686C49.4746 174.246 49.9434 173.909 50.4941 173.675C51.0449 173.435 51.666 173.314 52.3574 173.314C53.0312 173.314 53.6289 173.426 54.1504 173.648C54.6719 173.871 55.1084 174.188 55.46 174.598C55.8174 175.008 56.0869 175.5 56.2686 176.074C56.4502 176.643 56.541 177.275 56.541 177.973V179.027H48.9824V177.34H54.0537V177.146C54.0537 176.795 53.9893 176.481 53.8604 176.206C53.7373 175.925 53.5498 175.702 53.2979 175.538C53.0459 175.374 52.7236 175.292 52.3311 175.292C51.9971 175.292 51.71 175.365 51.4697 175.512C51.2295 175.658 51.0332 175.863 50.8809 176.127C50.7344 176.391 50.623 176.701 50.5469 177.059C50.4766 177.41 50.4414 177.797 50.4414 178.219V178.57C50.4414 178.951 50.4941 179.303 50.5996 179.625C50.7109 179.947 50.8662 180.226 51.0654 180.46C51.2705 180.694 51.5166 180.876 51.8037 181.005C52.0967 181.134 52.4277 181.198 52.7969 181.198C53.2539 181.198 53.6787 181.11 54.0713 180.935C54.4697 180.753 54.8125 180.48 55.0996 180.117L56.3301 181.453C56.1309 181.74 55.8584 182.016 55.5127 182.279C55.1729 182.543 54.7627 182.76 54.2822 182.93C53.8018 183.094 53.2539 183.176 52.6387 183.176ZM60.6543 169.5V183H58.1143V169.5H60.6543ZM65.418 169.5V183H62.8779V169.5H65.418ZM72.6426 180.855V176.619C72.6426 176.314 72.5928 176.054 72.4932 175.837C72.3936 175.614 72.2383 175.441 72.0273 175.318C71.8223 175.195 71.5557 175.134 71.2275 175.134C70.9463 175.134 70.7031 175.184 70.498 175.283C70.293 175.377 70.1348 175.515 70.0234 175.696C69.9121 175.872 69.8564 176.08 69.8564 176.32H67.3252C67.3252 175.916 67.4189 175.532 67.6064 175.169C67.7939 174.806 68.0664 174.486 68.4238 174.211C68.7812 173.93 69.2061 173.71 69.6982 173.552C70.1963 173.394 70.7529 173.314 71.3682 173.314C72.1064 173.314 72.7627 173.438 73.3369 173.684C73.9111 173.93 74.3623 174.299 74.6904 174.791C75.0244 175.283 75.1914 175.898 75.1914 176.637V180.706C75.1914 181.228 75.2236 181.655 75.2881 181.989C75.3525 182.317 75.4463 182.604 75.5693 182.851V183H73.0117C72.8887 182.742 72.7949 182.42 72.7305 182.033C72.6719 181.641 72.6426 181.248 72.6426 180.855ZM72.9766 177.208L72.9941 178.641H71.5791C71.2451 178.641 70.9551 178.679 70.709 178.755C70.4629 178.831 70.2607 178.939 70.1025 179.08C69.9443 179.215 69.8271 179.373 69.751 179.555C69.6807 179.736 69.6455 179.936 69.6455 180.152C69.6455 180.369 69.6953 180.565 69.7949 180.741C69.8945 180.911 70.0381 181.046 70.2256 181.146C70.4131 181.239 70.6328 181.286 70.8848 181.286C71.2656 181.286 71.5967 181.21 71.8779 181.058C72.1592 180.905 72.376 180.718 72.5283 180.495C72.6865 180.272 72.7686 180.062 72.7744 179.862L73.4424 180.935C73.3486 181.175 73.2197 181.424 73.0557 181.682C72.8975 181.939 72.6953 182.183 72.4492 182.411C72.2031 182.634 71.9072 182.818 71.5615 182.965C71.2158 183.105 70.8057 183.176 70.3311 183.176C69.7275 183.176 69.1797 183.056 68.6875 182.815C68.2012 182.569 67.8145 182.232 67.5273 181.805C67.2461 181.371 67.1055 180.879 67.1055 180.328C67.1055 179.83 67.1992 179.388 67.3867 179.001C67.5742 178.614 67.8496 178.289 68.2129 178.025C68.582 177.756 69.042 177.554 69.5928 177.419C70.1436 177.278 70.7822 177.208 71.5088 177.208H72.9766ZM82.9873 170.203H85.2197L88.5068 179.599L91.7939 170.203H94.0264L89.4033 183H87.6104L82.9873 170.203ZM81.7832 170.203H84.0068L84.4111 179.361V183H81.7832V170.203ZM93.0068 170.203H95.2393V183H92.6025V179.361L93.0068 170.203ZM102.525 180.855V176.619C102.525 176.314 102.476 176.054 102.376 175.837C102.276 175.614 102.121 175.441 101.91 175.318C101.705 175.195 101.438 175.134 101.11 175.134C100.829 175.134 100.586 175.184 100.381 175.283C100.176 175.377 100.018 175.515 99.9062 175.696C99.7949 175.872 99.7393 176.08 99.7393 176.32H97.208C97.208 175.916 97.3018 175.532 97.4893 175.169C97.6768 174.806 97.9492 174.486 98.3066 174.211C98.6641 173.93 99.0889 173.71 99.5811 173.552C100.079 173.394 100.636 173.314 101.251 173.314C101.989 173.314 102.646 173.438 103.22 173.684C103.794 173.93 104.245 174.299 104.573 174.791C104.907 175.283 105.074 175.898 105.074 176.637V180.706C105.074 181.228 105.106 181.655 105.171 181.989C105.235 182.317 105.329 182.604 105.452 182.851V183H102.895C102.771 182.742 102.678 182.42 102.613 182.033C102.555 181.641 102.525 181.248 102.525 180.855ZM102.859 177.208L102.877 178.641H101.462C101.128 178.641 100.838 178.679 100.592 178.755C100.346 178.831 100.144 178.939 99.9854 179.08C99.8271 179.215 99.71 179.373 99.6338 179.555C99.5635 179.736 99.5283 179.936 99.5283 180.152C99.5283 180.369 99.5781 180.565 99.6777 180.741C99.7773 180.911 99.9209 181.046 100.108 181.146C100.296 181.239 100.516 181.286 100.768 181.286C101.148 181.286 101.479 181.21 101.761 181.058C102.042 180.905 102.259 180.718 102.411 180.495C102.569 180.272 102.651 180.062 102.657 179.862L103.325 180.935C103.231 181.175 103.103 181.424 102.938 181.682C102.78 181.939 102.578 182.183 102.332 182.411C102.086 182.634 101.79 182.818 101.444 182.965C101.099 183.105 100.688 183.176 100.214 183.176C99.6104 183.176 99.0625 183.056 98.5703 182.815C98.084 182.569 97.6973 182.232 97.4102 181.805C97.1289 181.371 96.9883 180.879 96.9883 180.328C96.9883 179.83 97.082 179.388 97.2695 179.001C97.457 178.614 97.7324 178.289 98.0957 178.025C98.4648 177.756 98.9248 177.554 99.4756 177.419C100.026 177.278 100.665 177.208 101.392 177.208H102.859ZM109.557 175.564V183H107.025V173.49H109.407L109.557 175.564ZM112.422 173.429L112.378 175.775C112.255 175.758 112.105 175.743 111.93 175.731C111.76 175.714 111.604 175.705 111.464 175.705C111.106 175.705 110.796 175.752 110.532 175.846C110.274 175.934 110.058 176.065 109.882 176.241C109.712 176.417 109.583 176.631 109.495 176.883C109.413 177.135 109.366 177.422 109.354 177.744L108.845 177.586C108.845 176.971 108.906 176.405 109.029 175.89C109.152 175.368 109.331 174.914 109.565 174.527C109.806 174.141 110.099 173.842 110.444 173.631C110.79 173.42 111.186 173.314 111.631 173.314C111.771 173.314 111.915 173.326 112.062 173.35C112.208 173.367 112.328 173.394 112.422 173.429ZM118.715 173.49V175.283H113.178V173.49H118.715ZM114.549 171.144H117.08V180.135C117.08 180.41 117.115 180.621 117.186 180.768C117.262 180.914 117.373 181.017 117.52 181.075C117.666 181.128 117.851 181.154 118.073 181.154C118.231 181.154 118.372 181.148 118.495 181.137C118.624 181.119 118.732 181.102 118.82 181.084L118.829 182.947C118.612 183.018 118.378 183.073 118.126 183.114C117.874 183.155 117.596 183.176 117.291 183.176C116.734 183.176 116.248 183.085 115.832 182.903C115.422 182.716 115.105 182.417 114.883 182.007C114.66 181.597 114.549 181.058 114.549 180.39V171.144ZM122.828 173.49V183H120.288V173.49H122.828ZM120.13 171.012C120.13 170.643 120.259 170.338 120.517 170.098C120.774 169.857 121.12 169.737 121.554 169.737C121.981 169.737 122.324 169.857 122.582 170.098C122.846 170.338 122.978 170.643 122.978 171.012C122.978 171.381 122.846 171.686 122.582 171.926C122.324 172.166 121.981 172.286 121.554 172.286C121.12 172.286 120.774 172.166 120.517 171.926C120.259 171.686 120.13 171.381 120.13 171.012ZM127.398 175.521V183H124.867V173.49H127.24L127.398 175.521ZM127.029 177.911H126.344C126.344 177.208 126.435 176.575 126.616 176.013C126.798 175.444 127.053 174.961 127.381 174.562C127.709 174.158 128.099 173.851 128.55 173.64C129.007 173.423 129.517 173.314 130.079 173.314C130.524 173.314 130.932 173.379 131.301 173.508C131.67 173.637 131.986 173.842 132.25 174.123C132.52 174.404 132.725 174.776 132.865 175.239C133.012 175.702 133.085 176.268 133.085 176.936V183H130.536V176.927C130.536 176.505 130.478 176.177 130.36 175.942C130.243 175.708 130.07 175.544 129.842 175.45C129.619 175.351 129.344 175.301 129.016 175.301C128.676 175.301 128.38 175.368 128.128 175.503C127.882 175.638 127.677 175.825 127.513 176.065C127.354 176.3 127.234 176.575 127.152 176.892C127.07 177.208 127.029 177.548 127.029 177.911ZM139.387 183.176C138.648 183.176 137.986 183.059 137.4 182.824C136.814 182.584 136.316 182.253 135.906 181.831C135.502 181.409 135.191 180.92 134.975 180.363C134.758 179.801 134.649 179.203 134.649 178.57V178.219C134.649 177.498 134.752 176.839 134.957 176.241C135.162 175.644 135.455 175.125 135.836 174.686C136.223 174.246 136.691 173.909 137.242 173.675C137.793 173.435 138.414 173.314 139.105 173.314C139.779 173.314 140.377 173.426 140.898 173.648C141.42 173.871 141.856 174.188 142.208 174.598C142.565 175.008 142.835 175.5 143.017 176.074C143.198 176.643 143.289 177.275 143.289 177.973V179.027H135.73V177.34H140.802V177.146C140.802 176.795 140.737 176.481 140.608 176.206C140.485 175.925 140.298 175.702 140.046 175.538C139.794 175.374 139.472 175.292 139.079 175.292C138.745 175.292 138.458 175.365 138.218 175.512C137.978 175.658 137.781 175.863 137.629 176.127C137.482 176.391 137.371 176.701 137.295 177.059C137.225 177.41 137.189 177.797 137.189 178.219V178.57C137.189 178.951 137.242 179.303 137.348 179.625C137.459 179.947 137.614 180.226 137.813 180.46C138.019 180.694 138.265 180.876 138.552 181.005C138.845 181.134 139.176 181.198 139.545 181.198C140.002 181.198 140.427 181.11 140.819 180.935C141.218 180.753 141.561 180.48 141.848 180.117L143.078 181.453C142.879 181.74 142.606 182.016 142.261 182.279C141.921 182.543 141.511 182.76 141.03 182.93C140.55 183.094 140.002 183.176 139.387 183.176ZM152.298 181.022V183H145.073V181.022H152.298ZM152.157 174.949L146.093 183H144.396V181.497L150.435 173.49H152.157V174.949ZM151.261 173.49V175.477H144.537V173.49H151.261Z" fill="black"/>
<path d="M16.7578 206.195L19.0234 196.625H20.2891L20.5781 198.219L18.1641 208H16.8047L16.7578 206.195ZM15.5938 196.625L17.4688 206.195L17.3125 208H15.7969L13.2734 196.625H15.5938ZM22.5703 206.156L24.4219 196.625H26.7422L24.2266 208H22.7109L22.5703 206.156ZM21 196.625L23.2812 206.234L23.2188 208H21.8594L19.4297 198.211L19.7422 196.625H21ZM30.0703 196V208H27.8203V196H30.0703ZM29.75 203.477H29.1328C29.138 202.888 29.2161 202.346 29.3672 201.852C29.5182 201.352 29.7344 200.919 30.0156 200.555C30.2969 200.185 30.6328 199.898 31.0234 199.695C31.4193 199.492 31.8568 199.391 32.3359 199.391C32.7526 199.391 33.1302 199.451 33.4688 199.57C33.8125 199.685 34.1068 199.872 34.3516 200.133C34.6016 200.388 34.7943 200.724 34.9297 201.141C35.0651 201.557 35.1328 202.062 35.1328 202.656V208H32.8672V202.641C32.8672 202.266 32.8125 201.971 32.7031 201.758C32.599 201.539 32.4453 201.385 32.2422 201.297C32.0443 201.203 31.7995 201.156 31.5078 201.156C31.1849 201.156 30.9089 201.216 30.6797 201.336C30.4557 201.456 30.276 201.622 30.1406 201.836C30.0052 202.044 29.9062 202.289 29.8438 202.57C29.7812 202.852 29.75 203.154 29.75 203.477ZM39.2188 199.547V208H36.9609V199.547H39.2188ZM36.8203 197.344C36.8203 197.016 36.9349 196.745 37.1641 196.531C37.3932 196.318 37.7005 196.211 38.0859 196.211C38.4661 196.211 38.7708 196.318 39 196.531C39.2344 196.745 39.3516 197.016 39.3516 197.344C39.3516 197.672 39.2344 197.943 39 198.156C38.7708 198.37 38.4661 198.477 38.0859 198.477C37.7005 198.477 37.3932 198.37 37.1641 198.156C36.9349 197.943 36.8203 197.672 36.8203 197.344ZM45.2188 199.547V201.141H40.2969V199.547H45.2188ZM41.5156 197.461H43.7656V205.453C43.7656 205.698 43.7969 205.885 43.8594 206.016C43.9271 206.146 44.026 206.237 44.1562 206.289C44.2865 206.336 44.4505 206.359 44.6484 206.359C44.7891 206.359 44.9141 206.354 45.0234 206.344C45.138 206.328 45.2344 206.312 45.3125 206.297L45.3203 207.953C45.1276 208.016 44.9193 208.065 44.6953 208.102C44.4714 208.138 44.224 208.156 43.9531 208.156C43.4583 208.156 43.026 208.076 42.6562 207.914C42.2917 207.747 42.0104 207.482 41.8125 207.117C41.6146 206.753 41.5156 206.273 41.5156 205.68V197.461ZM50.3906 208.156C49.7344 208.156 49.1458 208.052 48.625 207.844C48.1042 207.63 47.6615 207.336 47.2969 206.961C46.9375 206.586 46.6615 206.151 46.4688 205.656C46.276 205.156 46.1797 204.625 46.1797 204.062V203.75C46.1797 203.109 46.2708 202.523 46.4531 201.992C46.6354 201.461 46.8958 201 47.2344 200.609C47.5781 200.219 47.9948 199.919 48.4844 199.711C48.974 199.497 49.526 199.391 50.1406 199.391C50.7396 199.391 51.2708 199.49 51.7344 199.688C52.1979 199.885 52.5859 200.167 52.8984 200.531C53.2161 200.896 53.4557 201.333 53.6172 201.844C53.7786 202.349 53.8594 202.911 53.8594 203.531V204.469H47.1406V202.969H51.6484V202.797C51.6484 202.484 51.5911 202.206 51.4766 201.961C51.3672 201.711 51.2005 201.513 50.9766 201.367C50.7526 201.221 50.4661 201.148 50.1172 201.148C49.8203 201.148 49.5651 201.214 49.3516 201.344C49.138 201.474 48.9635 201.656 48.8281 201.891C48.6979 202.125 48.599 202.401 48.5312 202.719C48.4688 203.031 48.4375 203.375 48.4375 203.75V204.062C48.4375 204.401 48.4844 204.714 48.5781 205C48.6771 205.286 48.8151 205.534 48.9922 205.742C49.1745 205.951 49.3932 206.112 49.6484 206.227C49.9089 206.341 50.2031 206.398 50.5312 206.398C50.9375 206.398 51.3151 206.32 51.6641 206.164C52.0182 206.003 52.3229 205.76 52.5781 205.438L53.6719 206.625C53.4948 206.88 53.2526 207.125 52.9453 207.359C52.6432 207.594 52.2786 207.786 51.8516 207.938C51.4245 208.083 50.9375 208.156 50.3906 208.156ZM57.3438 201.352V208H55.0938V199.547H57.2031L57.3438 201.352ZM57.0156 203.477H56.4062C56.4062 202.852 56.487 202.289 56.6484 201.789C56.8099 201.284 57.0365 200.854 57.3281 200.5C57.6198 200.141 57.9661 199.867 58.3672 199.68C58.7734 199.487 59.2266 199.391 59.7266 199.391C60.1224 199.391 60.4844 199.448 60.8125 199.562C61.1406 199.677 61.4219 199.859 61.6562 200.109C61.8958 200.359 62.0781 200.69 62.2031 201.102C62.3333 201.513 62.3984 202.016 62.3984 202.609V208H60.1328V202.602C60.1328 202.227 60.0807 201.935 59.9766 201.727C59.8724 201.518 59.7188 201.372 59.5156 201.289C59.3177 201.201 59.0729 201.156 58.7812 201.156C58.4792 201.156 58.2161 201.216 57.9922 201.336C57.7734 201.456 57.5911 201.622 57.4453 201.836C57.3047 202.044 57.1979 202.289 57.125 202.57C57.0521 202.852 57.0156 203.154 57.0156 203.477ZM66.4844 199.547V208H64.2266V199.547H66.4844ZM64.0859 197.344C64.0859 197.016 64.2005 196.745 64.4297 196.531C64.6589 196.318 64.9661 196.211 65.3516 196.211C65.7318 196.211 66.0365 196.318 66.2656 196.531C66.5 196.745 66.6172 197.016 66.6172 197.344C66.6172 197.672 66.5 197.943 66.2656 198.156C66.0365 198.37 65.7318 198.477 65.3516 198.477C64.9661 198.477 64.6589 198.37 64.4297 198.156C64.2005 197.943 64.0859 197.672 64.0859 197.344ZM70.5469 201.352V208H68.2969V199.547H70.4062L70.5469 201.352ZM70.2188 203.477H69.6094C69.6094 202.852 69.6901 202.289 69.8516 201.789C70.013 201.284 70.2396 200.854 70.5312 200.5C70.8229 200.141 71.1693 199.867 71.5703 199.68C71.9766 199.487 72.4297 199.391 72.9297 199.391C73.3255 199.391 73.6875 199.448 74.0156 199.562C74.3438 199.677 74.625 199.859 74.8594 200.109C75.099 200.359 75.2812 200.69 75.4062 201.102C75.5365 201.513 75.6016 202.016 75.6016 202.609V208H73.3359V202.602C73.3359 202.227 73.2839 201.935 73.1797 201.727C73.0755 201.518 72.9219 201.372 72.7188 201.289C72.5208 201.201 72.276 201.156 71.9844 201.156C71.6823 201.156 71.4193 201.216 71.1953 201.336C70.9766 201.456 70.7943 201.622 70.6484 201.836C70.5078 202.044 70.401 202.289 70.3281 202.57C70.2552 202.852 70.2188 203.154 70.2188 203.477ZM82.6641 199.547H84.7031V207.719C84.7031 208.49 84.5312 209.143 84.1875 209.68C83.849 210.221 83.375 210.63 82.7656 210.906C82.1562 211.188 81.4479 211.328 80.6406 211.328C80.2865 211.328 79.9115 211.281 79.5156 211.188C79.125 211.094 78.75 210.948 78.3906 210.75C78.0365 210.552 77.7396 210.302 77.5 210L78.4922 208.672C78.7526 208.974 79.0547 209.208 79.3984 209.375C79.7422 209.547 80.1224 209.633 80.5391 209.633C80.9453 209.633 81.2891 209.557 81.5703 209.406C81.8516 209.26 82.0677 209.044 82.2188 208.758C82.3698 208.477 82.4453 208.135 82.4453 207.734V201.5L82.6641 199.547ZM76.9766 203.875V203.711C76.9766 203.065 77.0547 202.479 77.2109 201.953C77.3724 201.422 77.599 200.966 77.8906 200.586C78.1875 200.206 78.5469 199.911 78.9688 199.703C79.3906 199.495 79.8672 199.391 80.3984 199.391C80.9609 199.391 81.4323 199.495 81.8125 199.703C82.1927 199.911 82.5052 200.208 82.75 200.594C82.9948 200.974 83.1849 201.424 83.3203 201.945C83.4609 202.461 83.5703 203.026 83.6484 203.641V204C83.5703 204.589 83.4531 205.135 83.2969 205.641C83.1406 206.146 82.9349 206.589 82.6797 206.969C82.4245 207.344 82.1068 207.635 81.7266 207.844C81.3516 208.052 80.9036 208.156 80.3828 208.156C79.862 208.156 79.3906 208.049 78.9688 207.836C78.5521 207.622 78.1953 207.323 77.8984 206.938C77.6016 206.552 77.3724 206.099 77.2109 205.578C77.0547 205.057 76.9766 204.49 76.9766 203.875ZM79.2266 203.711V203.875C79.2266 204.224 79.2604 204.549 79.3281 204.852C79.3958 205.154 79.5 205.422 79.6406 205.656C79.7865 205.885 79.9661 206.065 80.1797 206.195C80.3984 206.32 80.6562 206.383 80.9531 206.383C81.3646 206.383 81.7005 206.297 81.9609 206.125C82.2214 205.948 82.4167 205.706 82.5469 205.398C82.6771 205.091 82.7526 204.737 82.7734 204.336V203.312C82.763 202.984 82.7188 202.69 82.6406 202.43C82.5625 202.164 82.4531 201.938 82.3125 201.75C82.1719 201.562 81.9896 201.417 81.7656 201.312C81.5417 201.208 81.276 201.156 80.9688 201.156C80.6719 201.156 80.4141 201.224 80.1953 201.359C79.9818 201.49 79.8021 201.669 79.6562 201.898C79.5156 202.128 79.4089 202.398 79.3359 202.711C79.263 203.018 79.2266 203.352 79.2266 203.711Z" fill="#525252"/>
<path d="M222.398 179.902V197H219.023V183.793L214.969 185.082V182.422L222.035 179.902H222.398ZM239.449 192.324C239.449 193.395 239.199 194.297 238.699 195.031C238.199 195.758 237.512 196.309 236.637 196.684C235.77 197.051 234.785 197.234 233.684 197.234C232.582 197.234 231.594 197.051 230.719 196.684C229.844 196.309 229.152 195.758 228.645 195.031C228.137 194.297 227.883 193.395 227.883 192.324C227.883 191.605 228.027 190.957 228.316 190.379C228.605 189.793 229.008 189.293 229.523 188.879C230.047 188.457 230.66 188.137 231.363 187.918C232.066 187.691 232.832 187.578 233.66 187.578C234.77 187.578 235.762 187.773 236.637 188.164C237.512 188.555 238.199 189.105 238.699 189.816C239.199 190.527 239.449 191.363 239.449 192.324ZM236.051 192.102C236.051 191.578 235.949 191.129 235.746 190.754C235.551 190.371 235.273 190.078 234.914 189.875C234.555 189.672 234.137 189.57 233.66 189.57C233.184 189.57 232.766 189.672 232.406 189.875C232.047 190.078 231.766 190.371 231.562 190.754C231.367 191.129 231.27 191.578 231.27 192.102C231.27 192.617 231.367 193.062 231.562 193.438C231.766 193.812 232.047 194.102 232.406 194.305C232.773 194.5 233.199 194.598 233.684 194.598C234.168 194.598 234.586 194.5 234.938 194.305C235.297 194.102 235.57 193.812 235.758 193.438C235.953 193.062 236.051 192.617 236.051 192.102ZM239.086 184.461C239.086 185.328 238.855 186.098 238.395 186.77C237.934 187.434 237.293 187.953 236.473 188.328C235.66 188.703 234.73 188.891 233.684 188.891C232.629 188.891 231.691 188.703 230.871 188.328C230.051 187.953 229.41 187.434 228.949 186.77C228.488 186.098 228.258 185.328 228.258 184.461C228.258 183.43 228.488 182.562 228.949 181.859C229.418 181.148 230.059 180.609 230.871 180.242C231.691 179.875 232.621 179.691 233.66 179.691C234.715 179.691 235.648 179.875 236.461 180.242C237.281 180.609 237.922 181.148 238.383 181.859C238.852 182.562 239.086 183.43 239.086 184.461ZM235.711 184.613C235.711 184.152 235.629 183.754 235.465 183.418C235.301 183.074 235.066 182.809 234.762 182.621C234.465 182.434 234.098 182.34 233.66 182.34C233.238 182.34 232.875 182.43 232.57 182.609C232.273 182.789 232.043 183.051 231.879 183.395C231.723 183.73 231.645 184.137 231.645 184.613C231.645 185.074 231.723 185.48 231.879 185.832C232.043 186.176 232.277 186.445 232.582 186.641C232.887 186.836 233.254 186.934 233.684 186.934C234.113 186.934 234.477 186.836 234.773 186.641C235.078 186.445 235.309 186.176 235.465 185.832C235.629 185.48 235.711 185.074 235.711 184.613ZM242.004 195.371C242.004 194.871 242.176 194.453 242.52 194.117C242.871 193.781 243.336 193.613 243.914 193.613C244.492 193.613 244.953 193.781 245.297 194.117C245.648 194.453 245.824 194.871 245.824 195.371C245.824 195.871 245.648 196.289 245.297 196.625C244.953 196.961 244.492 197.129 243.914 197.129C243.336 197.129 242.871 196.961 242.52 196.625C242.176 196.289 242.004 195.871 242.004 195.371ZM242.004 185.703C242.004 185.203 242.176 184.785 242.52 184.449C242.871 184.113 243.336 183.945 243.914 183.945C244.492 183.945 244.953 184.113 245.297 184.449C245.648 184.785 245.824 185.203 245.824 185.703C245.824 186.203 245.648 186.621 245.297 186.957C244.953 187.293 244.492 187.461 243.914 187.461C243.336 187.461 242.871 187.293 242.52 186.957C242.176 186.621 242.004 186.203 242.004 185.703ZM251.965 187.004H253.77C254.348 187.004 254.824 186.906 255.199 186.711C255.574 186.508 255.852 186.227 256.031 185.867C256.219 185.5 256.312 185.074 256.312 184.59C256.312 184.152 256.227 183.766 256.055 183.43C255.891 183.086 255.637 182.82 255.293 182.633C254.949 182.438 254.516 182.34 253.992 182.34C253.578 182.34 253.195 182.422 252.844 182.586C252.492 182.75 252.211 182.98 252 183.277C251.789 183.574 251.684 183.934 251.684 184.355H248.297C248.297 183.418 248.547 182.602 249.047 181.906C249.555 181.211 250.234 180.668 251.086 180.277C251.938 179.887 252.875 179.691 253.898 179.691C255.055 179.691 256.066 179.879 256.934 180.254C257.801 180.621 258.477 181.164 258.961 181.883C259.445 182.602 259.688 183.492 259.688 184.555C259.688 185.094 259.562 185.617 259.312 186.125C259.062 186.625 258.703 187.078 258.234 187.484C257.773 187.883 257.211 188.203 256.547 188.445C255.883 188.68 255.137 188.797 254.309 188.797H251.965V187.004ZM251.965 189.57V187.824H254.309C255.238 187.824 256.055 187.93 256.758 188.141C257.461 188.352 258.051 188.656 258.527 189.055C259.004 189.445 259.363 189.91 259.605 190.449C259.848 190.98 259.969 191.57 259.969 192.219C259.969 193.016 259.816 193.727 259.512 194.352C259.207 194.969 258.777 195.492 258.223 195.922C257.676 196.352 257.035 196.68 256.301 196.906C255.566 197.125 254.766 197.234 253.898 197.234C253.18 197.234 252.473 197.137 251.777 196.941C251.09 196.738 250.465 196.438 249.902 196.039C249.348 195.633 248.902 195.125 248.566 194.516C248.238 193.898 248.074 193.168 248.074 192.324H251.461C251.461 192.762 251.57 193.152 251.789 193.496C252.008 193.84 252.309 194.109 252.691 194.305C253.082 194.5 253.516 194.598 253.992 194.598C254.531 194.598 254.992 194.5 255.375 194.305C255.766 194.102 256.062 193.82 256.266 193.461C256.477 193.094 256.582 192.668 256.582 192.184C256.582 191.559 256.469 191.059 256.242 190.684C256.016 190.301 255.691 190.02 255.27 189.84C254.848 189.66 254.348 189.57 253.77 189.57H251.965ZM273.773 186.969V189.922C273.773 191.203 273.637 192.309 273.363 193.238C273.09 194.16 272.695 194.918 272.18 195.512C271.672 196.098 271.066 196.531 270.363 196.812C269.66 197.094 268.879 197.234 268.02 197.234C267.332 197.234 266.691 197.148 266.098 196.977C265.504 196.797 264.969 196.52 264.492 196.145C264.023 195.77 263.617 195.297 263.273 194.727C262.938 194.148 262.68 193.461 262.5 192.664C262.32 191.867 262.23 190.953 262.23 189.922V186.969C262.23 185.688 262.367 184.59 262.641 183.676C262.922 182.754 263.316 182 263.824 181.414C264.34 180.828 264.949 180.398 265.652 180.125C266.355 179.844 267.137 179.703 267.996 179.703C268.684 179.703 269.32 179.793 269.906 179.973C270.5 180.145 271.035 180.414 271.512 180.781C271.988 181.148 272.395 181.621 272.73 182.199C273.066 182.77 273.324 183.453 273.504 184.25C273.684 185.039 273.773 185.945 273.773 186.969ZM270.387 190.367V186.512C270.387 185.895 270.352 185.355 270.281 184.895C270.219 184.434 270.121 184.043 269.988 183.723C269.855 183.395 269.691 183.129 269.496 182.926C269.301 182.723 269.078 182.574 268.828 182.48C268.578 182.387 268.301 182.34 267.996 182.34C267.613 182.34 267.273 182.414 266.977 182.562C266.688 182.711 266.441 182.949 266.238 183.277C266.035 183.598 265.879 184.027 265.77 184.566C265.668 185.098 265.617 185.746 265.617 186.512V190.367C265.617 190.984 265.648 191.527 265.711 191.996C265.781 192.465 265.883 192.867 266.016 193.203C266.156 193.531 266.32 193.801 266.508 194.012C266.703 194.215 266.926 194.363 267.176 194.457C267.434 194.551 267.715 194.598 268.02 194.598C268.395 194.598 268.727 194.523 269.016 194.375C269.312 194.219 269.562 193.977 269.766 193.648C269.977 193.312 270.133 192.875 270.234 192.336C270.336 191.797 270.387 191.141 270.387 190.367Z" fill="black"/>
<rect x="5" y="83" width="298" height="66" rx="7" fill="black" stroke="black" stroke-width="2"/>
<rect x="1" y="79" width="298" height="66" rx="7" fill="white" stroke="#F97316" stroke-width="2"/>
<path d="M15.3467 93.2031H17.5791L20.8662 102.599L24.1533 93.2031H26.3857L21.7627 106H19.9697L15.3467 93.2031ZM14.1426 93.2031H16.3662L16.7705 102.361V106H14.1426V93.2031ZM25.3662 93.2031H27.5986V106H24.9619V102.361L25.3662 93.2031ZM34.8848 103.855V99.6191C34.8848 99.3145 34.835 99.0537 34.7354 98.8369C34.6357 98.6143 34.4805 98.4414 34.2695 98.3184C34.0645 98.1953 33.7979 98.1338 33.4697 98.1338C33.1885 98.1338 32.9453 98.1836 32.7402 98.2832C32.5352 98.377 32.377 98.5146 32.2656 98.6963C32.1543 98.8721 32.0986 99.0801 32.0986 99.3203H29.5674C29.5674 98.916 29.6611 98.5322 29.8486 98.1689C30.0361 97.8057 30.3086 97.4863 30.666 97.2109C31.0234 96.9297 31.4482 96.71 31.9404 96.5518C32.4385 96.3936 32.9951 96.3145 33.6104 96.3145C34.3486 96.3145 35.0049 96.4375 35.5791 96.6836C36.1533 96.9297 36.6045 97.2988 36.9326 97.791C37.2666 98.2832 37.4336 98.8984 37.4336 99.6367V103.706C37.4336 104.228 37.4658 104.655 37.5303 104.989C37.5947 105.317 37.6885 105.604 37.8115 105.851V106H35.2539C35.1309 105.742 35.0371 105.42 34.9727 105.033C34.9141 104.641 34.8848 104.248 34.8848 103.855ZM35.2188 100.208L35.2363 101.641H33.8213C33.4873 101.641 33.1973 101.679 32.9512 101.755C32.7051 101.831 32.5029 101.939 32.3447 102.08C32.1865 102.215 32.0693 102.373 31.9932 102.555C31.9229 102.736 31.8877 102.936 31.8877 103.152C31.8877 103.369 31.9375 103.565 32.0371 103.741C32.1367 103.911 32.2803 104.046 32.4678 104.146C32.6553 104.239 32.875 104.286 33.127 104.286C33.5078 104.286 33.8389 104.21 34.1201 104.058C34.4014 103.905 34.6182 103.718 34.7705 103.495C34.9287 103.272 35.0107 103.062 35.0166 102.862L35.6846 103.935C35.5908 104.175 35.4619 104.424 35.2979 104.682C35.1396 104.939 34.9375 105.183 34.6914 105.411C34.4453 105.634 34.1494 105.818 33.8037 105.965C33.458 106.105 33.0479 106.176 32.5732 106.176C31.9697 106.176 31.4219 106.056 30.9297 105.815C30.4434 105.569 30.0566 105.232 29.7695 104.805C29.4883 104.371 29.3477 103.879 29.3477 103.328C29.3477 102.83 29.4414 102.388 29.6289 102.001C29.8164 101.614 30.0918 101.289 30.4551 101.025C30.8242 100.756 31.2842 100.554 31.835 100.419C32.3857 100.278 33.0244 100.208 33.751 100.208H35.2188ZM41.916 98.5645V106H39.3848V96.4902H41.7666L41.916 98.5645ZM44.7812 96.4287L44.7373 98.7754C44.6143 98.7578 44.4648 98.7432 44.2891 98.7314C44.1191 98.7139 43.9639 98.7051 43.8232 98.7051C43.4658 98.7051 43.1553 98.752 42.8916 98.8457C42.6338 98.9336 42.417 99.0654 42.2412 99.2412C42.0713 99.417 41.9424 99.6309 41.8545 99.8828C41.7725 100.135 41.7256 100.422 41.7139 100.744L41.2041 100.586C41.2041 99.9707 41.2656 99.4053 41.3887 98.8896C41.5117 98.3682 41.6904 97.9141 41.9248 97.5273C42.165 97.1406 42.458 96.8418 42.8037 96.6309C43.1494 96.4199 43.5449 96.3145 43.9902 96.3145C44.1309 96.3145 44.2744 96.3262 44.4209 96.3496C44.5674 96.3672 44.6875 96.3936 44.7812 96.4287ZM49.7295 104.198C50.04 104.198 50.3154 104.14 50.5557 104.022C50.7959 103.899 50.9834 103.729 51.1182 103.513C51.2588 103.29 51.332 103.029 51.3379 102.73H53.7197C53.7139 103.398 53.5352 103.993 53.1836 104.515C52.832 105.03 52.3604 105.438 51.7686 105.736C51.1768 106.029 50.5146 106.176 49.7822 106.176C49.0439 106.176 48.3994 106.053 47.8486 105.807C47.3037 105.561 46.8496 105.221 46.4863 104.787C46.123 104.348 45.8506 103.838 45.6689 103.258C45.4873 102.672 45.3965 102.045 45.3965 101.377V101.122C45.3965 100.448 45.4873 99.8213 45.6689 99.2412C45.8506 98.6553 46.123 98.1455 46.4863 97.7119C46.8496 97.2725 47.3037 96.9297 47.8486 96.6836C48.3936 96.4375 49.0322 96.3145 49.7646 96.3145C50.5439 96.3145 51.2266 96.4639 51.8125 96.7627C52.4043 97.0615 52.8672 97.4893 53.2012 98.0459C53.541 98.5967 53.7139 99.25 53.7197 100.006H51.3379C51.332 99.6895 51.2646 99.4023 51.1357 99.1445C51.0127 98.8867 50.8311 98.6816 50.5908 98.5293C50.3564 98.3711 50.0664 98.292 49.7207 98.292C49.3516 98.292 49.0498 98.3711 48.8154 98.5293C48.5811 98.6816 48.3994 98.8926 48.2705 99.1621C48.1416 99.4258 48.0508 99.7275 47.998 100.067C47.9512 100.401 47.9277 100.753 47.9277 101.122V101.377C47.9277 101.746 47.9512 102.101 47.998 102.44C48.0449 102.78 48.1328 103.082 48.2617 103.346C48.3965 103.609 48.5811 103.817 48.8154 103.97C49.0498 104.122 49.3545 104.198 49.7295 104.198ZM60.8125 103.724V96.4902H63.3438V106H60.9619L60.8125 103.724ZM61.0938 101.772L61.8408 101.755C61.8408 102.388 61.7676 102.977 61.6211 103.521C61.4746 104.061 61.2549 104.529 60.9619 104.928C60.6689 105.32 60.2998 105.628 59.8545 105.851C59.4092 106.067 58.8848 106.176 58.2812 106.176C57.8184 106.176 57.3906 106.111 56.998 105.982C56.6113 105.848 56.2773 105.64 55.9961 105.358C55.7207 105.071 55.5039 104.705 55.3457 104.26C55.1934 103.809 55.1172 103.267 55.1172 102.634V96.4902H57.6484V102.651C57.6484 102.933 57.6807 103.17 57.7451 103.363C57.8154 103.557 57.9121 103.715 58.0352 103.838C58.1582 103.961 58.3018 104.049 58.4658 104.102C58.6357 104.154 58.8232 104.181 59.0283 104.181C59.5498 104.181 59.96 104.075 60.2588 103.864C60.5635 103.653 60.7773 103.366 60.9004 103.003C61.0293 102.634 61.0938 102.224 61.0938 101.772ZM70.4189 103.372C70.4189 103.19 70.3662 103.026 70.2607 102.88C70.1553 102.733 69.959 102.599 69.6719 102.476C69.3906 102.347 68.9834 102.229 68.4502 102.124C67.9697 102.019 67.5215 101.887 67.1055 101.729C66.6953 101.564 66.3379 101.368 66.0332 101.14C65.7344 100.911 65.5 100.642 65.3301 100.331C65.1602 100.015 65.0752 99.6543 65.0752 99.25C65.0752 98.8516 65.1602 98.4766 65.3301 98.125C65.5059 97.7734 65.7549 97.4629 66.0771 97.1934C66.4053 96.918 66.8037 96.7041 67.2725 96.5518C67.7471 96.3936 68.2803 96.3145 68.8721 96.3145C69.6982 96.3145 70.4072 96.4463 70.999 96.71C71.5967 96.9736 72.0537 97.3369 72.3701 97.7998C72.6924 98.2568 72.8535 98.7783 72.8535 99.3643H70.3223C70.3223 99.1182 70.2695 98.8984 70.1641 98.7051C70.0645 98.5059 69.9062 98.3506 69.6895 98.2393C69.4785 98.1221 69.2031 98.0635 68.8633 98.0635C68.582 98.0635 68.3389 98.1133 68.1338 98.2129C67.9287 98.3066 67.7705 98.4355 67.6592 98.5996C67.5537 98.7578 67.501 98.9336 67.501 99.127C67.501 99.2734 67.5303 99.4053 67.5889 99.5225C67.6533 99.6338 67.7559 99.7363 67.8965 99.8301C68.0371 99.9238 68.2188 100.012 68.4414 100.094C68.6699 100.17 68.9512 100.24 69.2852 100.305C69.9707 100.445 70.583 100.63 71.1221 100.858C71.6611 101.081 72.0889 101.386 72.4053 101.772C72.7217 102.153 72.8799 102.654 72.8799 103.275C72.8799 103.697 72.7861 104.084 72.5986 104.436C72.4111 104.787 72.1416 105.095 71.79 105.358C71.4385 105.616 71.0166 105.818 70.5244 105.965C70.0381 106.105 69.4902 106.176 68.8809 106.176C67.9961 106.176 67.2461 106.018 66.6309 105.701C66.0215 105.385 65.5586 104.983 65.2422 104.497C64.9316 104.005 64.7764 103.501 64.7764 102.985H67.1758C67.1875 103.331 67.2754 103.609 67.4395 103.82C67.6094 104.031 67.8232 104.184 68.0811 104.277C68.3447 104.371 68.6289 104.418 68.9336 104.418C69.2617 104.418 69.5342 104.374 69.751 104.286C69.9678 104.192 70.1318 104.069 70.2432 103.917C70.3604 103.759 70.4189 103.577 70.4189 103.372ZM84.3672 95.3916L80.8867 106H78.083L82.8379 93.2031H84.6221L84.3672 95.3916ZM87.2588 106L83.7695 95.3916L83.4883 93.2031H85.29L90.0713 106H87.2588ZM87.1006 101.236V103.302H80.3418V101.236H87.1006ZM93.2969 98.5205V106H90.7656V96.4902H93.1387L93.2969 98.5205ZM92.9277 100.911H92.2422C92.2422 100.208 92.333 99.5752 92.5146 99.0127C92.6963 98.4443 92.9512 97.9609 93.2793 97.5625C93.6074 97.1582 93.9971 96.8506 94.4482 96.6396C94.9053 96.4229 95.415 96.3145 95.9775 96.3145C96.4229 96.3145 96.8301 96.3789 97.1992 96.5078C97.5684 96.6367 97.8848 96.8418 98.1484 97.123C98.418 97.4043 98.623 97.7764 98.7637 98.2393C98.9102 98.7021 98.9834 99.2676 98.9834 99.9355V106H96.4346V99.9268C96.4346 99.5049 96.376 99.1768 96.2588 98.9424C96.1416 98.708 95.9688 98.5439 95.7402 98.4502C95.5176 98.3506 95.2422 98.3008 94.9141 98.3008C94.5742 98.3008 94.2783 98.3682 94.0264 98.5029C93.7803 98.6377 93.5752 98.8252 93.4111 99.0654C93.2529 99.2998 93.1328 99.5752 93.0508 99.8916C92.9688 100.208 92.9277 100.548 92.9277 100.911ZM106.524 103.926V92.5H109.073V106H106.779L106.524 103.926ZM100.513 101.359V101.175C100.513 100.448 100.595 99.7891 100.759 99.1973C100.923 98.5996 101.163 98.0869 101.479 97.6592C101.796 97.2314 102.186 96.9004 102.648 96.666C103.111 96.4316 103.639 96.3145 104.23 96.3145C104.787 96.3145 105.273 96.4316 105.689 96.666C106.111 96.9004 106.469 97.2344 106.762 97.668C107.061 98.0957 107.301 98.6025 107.482 99.1885C107.664 99.7686 107.796 100.404 107.878 101.096V101.5C107.796 102.162 107.664 102.777 107.482 103.346C107.301 103.914 107.061 104.412 106.762 104.84C106.469 105.262 106.111 105.59 105.689 105.824C105.268 106.059 104.775 106.176 104.213 106.176C103.621 106.176 103.094 106.056 102.631 105.815C102.174 105.575 101.787 105.238 101.471 104.805C101.16 104.371 100.923 103.861 100.759 103.275C100.595 102.689 100.513 102.051 100.513 101.359ZM103.044 101.175V101.359C103.044 101.752 103.073 102.118 103.132 102.458C103.196 102.798 103.299 103.1 103.439 103.363C103.586 103.621 103.773 103.823 104.002 103.97C104.236 104.11 104.521 104.181 104.854 104.181C105.288 104.181 105.646 104.084 105.927 103.891C106.208 103.691 106.422 103.419 106.568 103.073C106.721 102.728 106.809 102.329 106.832 101.878V100.727C106.814 100.357 106.762 100.026 106.674 99.7334C106.592 99.4346 106.469 99.1797 106.305 98.9688C106.146 98.7578 105.947 98.5938 105.707 98.4766C105.473 98.3594 105.194 98.3008 104.872 98.3008C104.544 98.3008 104.263 98.377 104.028 98.5293C103.794 98.6758 103.604 98.8779 103.457 99.1357C103.316 99.3936 103.211 99.6982 103.141 100.05C103.076 100.396 103.044 100.771 103.044 101.175ZM115.428 106.176C114.689 106.176 114.027 106.059 113.441 105.824C112.855 105.584 112.357 105.253 111.947 104.831C111.543 104.409 111.232 103.92 111.016 103.363C110.799 102.801 110.69 102.203 110.69 101.57V101.219C110.69 100.498 110.793 99.8389 110.998 99.2412C111.203 98.6436 111.496 98.125 111.877 97.6855C112.264 97.2461 112.732 96.9092 113.283 96.6748C113.834 96.4346 114.455 96.3145 115.146 96.3145C115.82 96.3145 116.418 96.4258 116.939 96.6484C117.461 96.8711 117.897 97.1875 118.249 97.5977C118.606 98.0078 118.876 98.5 119.058 99.0742C119.239 99.6426 119.33 100.275 119.33 100.973V102.027H111.771V100.34H116.843V100.146C116.843 99.7949 116.778 99.4814 116.649 99.2061C116.526 98.9248 116.339 98.7021 116.087 98.5381C115.835 98.374 115.513 98.292 115.12 98.292C114.786 98.292 114.499 98.3652 114.259 98.5117C114.019 98.6582 113.822 98.8633 113.67 99.127C113.523 99.3906 113.412 99.7012 113.336 100.059C113.266 100.41 113.23 100.797 113.23 101.219V101.57C113.23 101.951 113.283 102.303 113.389 102.625C113.5 102.947 113.655 103.226 113.854 103.46C114.06 103.694 114.306 103.876 114.593 104.005C114.886 104.134 115.217 104.198 115.586 104.198C116.043 104.198 116.468 104.11 116.86 103.935C117.259 103.753 117.602 103.48 117.889 103.117L119.119 104.453C118.92 104.74 118.647 105.016 118.302 105.279C117.962 105.543 117.552 105.76 117.071 105.93C116.591 106.094 116.043 106.176 115.428 106.176ZM123.303 98.5645V106H120.771V96.4902H123.153L123.303 98.5645ZM126.168 96.4287L126.124 98.7754C126.001 98.7578 125.852 98.7432 125.676 98.7314C125.506 98.7139 125.351 98.7051 125.21 98.7051C124.853 98.7051 124.542 98.752 124.278 98.8457C124.021 98.9336 123.804 99.0654 123.628 99.2412C123.458 99.417 123.329 99.6309 123.241 99.8828C123.159 100.135 123.112 100.422 123.101 100.744L122.591 100.586C122.591 99.9707 122.652 99.4053 122.775 98.8896C122.898 98.3682 123.077 97.9141 123.312 97.5273C123.552 97.1406 123.845 96.8418 124.19 96.6309C124.536 96.4199 124.932 96.3145 125.377 96.3145C125.518 96.3145 125.661 96.3262 125.808 96.3496C125.954 96.3672 126.074 96.3936 126.168 96.4287ZM132.505 103.372C132.505 103.19 132.452 103.026 132.347 102.88C132.241 102.733 132.045 102.599 131.758 102.476C131.477 102.347 131.069 102.229 130.536 102.124C130.056 102.019 129.607 101.887 129.191 101.729C128.781 101.564 128.424 101.368 128.119 101.14C127.82 100.911 127.586 100.642 127.416 100.331C127.246 100.015 127.161 99.6543 127.161 99.25C127.161 98.8516 127.246 98.4766 127.416 98.125C127.592 97.7734 127.841 97.4629 128.163 97.1934C128.491 96.918 128.89 96.7041 129.358 96.5518C129.833 96.3936 130.366 96.3145 130.958 96.3145C131.784 96.3145 132.493 96.4463 133.085 96.71C133.683 96.9736 134.14 97.3369 134.456 97.7998C134.778 98.2568 134.939 98.7783 134.939 99.3643H132.408C132.408 99.1182 132.355 98.8984 132.25 98.7051C132.15 98.5059 131.992 98.3506 131.775 98.2393C131.564 98.1221 131.289 98.0635 130.949 98.0635C130.668 98.0635 130.425 98.1133 130.22 98.2129C130.015 98.3066 129.856 98.4355 129.745 98.5996C129.64 98.7578 129.587 98.9336 129.587 99.127C129.587 99.2734 129.616 99.4053 129.675 99.5225C129.739 99.6338 129.842 99.7363 129.982 99.8301C130.123 99.9238 130.305 100.012 130.527 100.094C130.756 100.17 131.037 100.24 131.371 100.305C132.057 100.445 132.669 100.63 133.208 100.858C133.747 101.081 134.175 101.386 134.491 101.772C134.808 102.153 134.966 102.654 134.966 103.275C134.966 103.697 134.872 104.084 134.685 104.436C134.497 104.787 134.228 105.095 133.876 105.358C133.524 105.616 133.103 105.818 132.61 105.965C132.124 106.105 131.576 106.176 130.967 106.176C130.082 106.176 129.332 106.018 128.717 105.701C128.107 105.385 127.645 104.983 127.328 104.497C127.018 104.005 126.862 103.501 126.862 102.985H129.262C129.273 103.331 129.361 103.609 129.525 103.82C129.695 104.031 129.909 104.184 130.167 104.277C130.431 104.371 130.715 104.418 131.02 104.418C131.348 104.418 131.62 104.374 131.837 104.286C132.054 104.192 132.218 104.069 132.329 103.917C132.446 103.759 132.505 103.577 132.505 103.372ZM136.205 101.342V101.157C136.205 100.46 136.305 99.8184 136.504 99.2324C136.703 98.6406 136.993 98.1279 137.374 97.6943C137.755 97.2607 138.224 96.9238 138.78 96.6836C139.337 96.4375 139.976 96.3145 140.696 96.3145C141.417 96.3145 142.059 96.4375 142.621 96.6836C143.184 96.9238 143.655 97.2607 144.036 97.6943C144.423 98.1279 144.716 98.6406 144.915 99.2324C145.114 99.8184 145.214 100.46 145.214 101.157V101.342C145.214 102.033 145.114 102.675 144.915 103.267C144.716 103.853 144.423 104.365 144.036 104.805C143.655 105.238 143.187 105.575 142.63 105.815C142.073 106.056 141.435 106.176 140.714 106.176C139.993 106.176 139.352 106.056 138.789 105.815C138.232 105.575 137.761 105.238 137.374 104.805C136.993 104.365 136.703 103.853 136.504 103.267C136.305 102.675 136.205 102.033 136.205 101.342ZM138.736 101.157V101.342C138.736 101.74 138.771 102.112 138.842 102.458C138.912 102.804 139.023 103.108 139.176 103.372C139.334 103.63 139.539 103.832 139.791 103.979C140.043 104.125 140.351 104.198 140.714 104.198C141.065 104.198 141.367 104.125 141.619 103.979C141.871 103.832 142.073 103.63 142.226 103.372C142.378 103.108 142.489 102.804 142.56 102.458C142.636 102.112 142.674 101.74 142.674 101.342V101.157C142.674 100.771 142.636 100.407 142.56 100.067C142.489 99.7217 142.375 99.417 142.217 99.1533C142.064 98.8838 141.862 98.6729 141.61 98.5205C141.358 98.3682 141.054 98.292 140.696 98.292C140.339 98.292 140.034 98.3682 139.782 98.5205C139.536 98.6729 139.334 98.8838 139.176 99.1533C139.023 99.417 138.912 99.7217 138.842 100.067C138.771 100.407 138.736 100.771 138.736 101.157ZM149.248 98.5205V106H146.717V96.4902H149.09L149.248 98.5205ZM148.879 100.911H148.193C148.193 100.208 148.284 99.5752 148.466 99.0127C148.647 98.4443 148.902 97.9609 149.23 97.5625C149.559 97.1582 149.948 96.8506 150.399 96.6396C150.856 96.4229 151.366 96.3145 151.929 96.3145C152.374 96.3145 152.781 96.3789 153.15 96.5078C153.52 96.6367 153.836 96.8418 154.1 97.123C154.369 97.4043 154.574 97.7764 154.715 98.2393C154.861 98.7021 154.935 99.2676 154.935 99.9355V106H152.386V99.9268C152.386 99.5049 152.327 99.1768 152.21 98.9424C152.093 98.708 151.92 98.5439 151.691 98.4502C151.469 98.3506 151.193 98.3008 150.865 98.3008C150.525 98.3008 150.229 98.3682 149.978 98.5029C149.731 98.6377 149.526 98.8252 149.362 99.0654C149.204 99.2998 149.084 99.5752 149.002 99.8916C148.92 100.208 148.879 100.548 148.879 100.911Z" fill="black"/>
<path d="M20.6094 127.227H22.9453C22.8984 127.992 22.6875 128.672 22.3125 129.266C21.9427 129.859 21.4245 130.323 20.7578 130.656C20.0964 130.99 19.2995 131.156 18.3672 131.156C17.638 131.156 16.9844 131.031 16.4062 130.781C15.8281 130.526 15.3333 130.161 14.9219 129.688C14.5156 129.214 14.2057 128.641 13.9922 127.969C13.7786 127.297 13.6719 126.544 13.6719 125.711V124.922C13.6719 124.089 13.7812 123.336 14 122.664C14.224 121.987 14.5417 121.411 14.9531 120.938C15.3698 120.464 15.8672 120.099 16.4453 119.844C17.0234 119.589 17.6693 119.461 18.3828 119.461C19.3307 119.461 20.1302 119.633 20.7812 119.977C21.4375 120.32 21.9453 120.794 22.3047 121.398C22.6693 122.003 22.888 122.69 22.9609 123.461H20.6172C20.5911 123.003 20.5 122.615 20.3438 122.297C20.1875 121.974 19.9505 121.732 19.6328 121.57C19.3203 121.404 18.9036 121.32 18.3828 121.32C17.9922 121.32 17.651 121.393 17.3594 121.539C17.0677 121.685 16.8229 121.906 16.625 122.203C16.4271 122.5 16.2786 122.875 16.1797 123.328C16.0859 123.776 16.0391 124.302 16.0391 124.906V125.711C16.0391 126.299 16.0833 126.818 16.1719 127.266C16.2604 127.708 16.3958 128.083 16.5781 128.391C16.7656 128.693 17.0052 128.922 17.2969 129.078C17.5938 129.229 17.9505 129.305 18.3672 129.305C18.8568 129.305 19.2604 129.227 19.5781 129.07C19.8958 128.914 20.138 128.682 20.3047 128.375C20.4766 128.068 20.5781 127.685 20.6094 127.227ZM26.5391 119V131H24.2891V119H26.5391ZM26.2188 126.477H25.6016C25.6068 125.888 25.6849 125.346 25.8359 124.852C25.987 124.352 26.2031 123.919 26.4844 123.555C26.7656 123.185 27.1016 122.898 27.4922 122.695C27.888 122.492 28.3255 122.391 28.8047 122.391C29.2214 122.391 29.599 122.451 29.9375 122.57C30.2812 122.685 30.5755 122.872 30.8203 123.133C31.0703 123.388 31.263 123.724 31.3984 124.141C31.5339 124.557 31.6016 125.062 31.6016 125.656V131H29.3359V125.641C29.3359 125.266 29.2812 124.971 29.1719 124.758C29.0677 124.539 28.9141 124.385 28.7109 124.297C28.513 124.203 28.2682 124.156 27.9766 124.156C27.6536 124.156 27.3776 124.216 27.1484 124.336C26.9245 124.456 26.7448 124.622 26.6094 124.836C26.474 125.044 26.375 125.289 26.3125 125.57C26.25 125.852 26.2188 126.154 26.2188 126.477ZM37.2031 131.156C36.5469 131.156 35.9583 131.052 35.4375 130.844C34.9167 130.63 34.474 130.336 34.1094 129.961C33.75 129.586 33.474 129.151 33.2812 128.656C33.0885 128.156 32.9922 127.625 32.9922 127.062V126.75C32.9922 126.109 33.0833 125.523 33.2656 124.992C33.4479 124.461 33.7083 124 34.0469 123.609C34.3906 123.219 34.8073 122.919 35.2969 122.711C35.7865 122.497 36.3385 122.391 36.9531 122.391C37.5521 122.391 38.0833 122.49 38.5469 122.688C39.0104 122.885 39.3984 123.167 39.7109 123.531C40.0286 123.896 40.2682 124.333 40.4297 124.844C40.5911 125.349 40.6719 125.911 40.6719 126.531V127.469H33.9531V125.969H38.4609V125.797C38.4609 125.484 38.4036 125.206 38.2891 124.961C38.1797 124.711 38.013 124.513 37.7891 124.367C37.5651 124.221 37.2786 124.148 36.9297 124.148C36.6328 124.148 36.3776 124.214 36.1641 124.344C35.9505 124.474 35.776 124.656 35.6406 124.891C35.5104 125.125 35.4115 125.401 35.3438 125.719C35.2812 126.031 35.25 126.375 35.25 126.75V127.062C35.25 127.401 35.2969 127.714 35.3906 128C35.4896 128.286 35.6276 128.534 35.8047 128.742C35.987 128.951 36.2057 129.112 36.4609 129.227C36.7214 129.341 37.0156 129.398 37.3438 129.398C37.75 129.398 38.1276 129.32 38.4766 129.164C38.8307 129.003 39.1354 128.76 39.3906 128.438L40.4844 129.625C40.3073 129.88 40.0651 130.125 39.7578 130.359C39.4557 130.594 39.0911 130.786 38.6641 130.938C38.237 131.083 37.75 131.156 37.2031 131.156ZM45.4453 129.398C45.7214 129.398 45.9661 129.346 46.1797 129.242C46.3932 129.133 46.5599 128.982 46.6797 128.789C46.8047 128.591 46.8698 128.359 46.875 128.094H48.9922C48.987 128.688 48.8281 129.216 48.5156 129.68C48.2031 130.138 47.7839 130.5 47.2578 130.766C46.7318 131.026 46.1432 131.156 45.4922 131.156C44.8359 131.156 44.263 131.047 43.7734 130.828C43.2891 130.609 42.8854 130.307 42.5625 129.922C42.2396 129.531 41.9974 129.078 41.8359 128.562C41.6745 128.042 41.5938 127.484 41.5938 126.891V126.664C41.5938 126.065 41.6745 125.508 41.8359 124.992C41.9974 124.471 42.2396 124.018 42.5625 123.633C42.8854 123.242 43.2891 122.938 43.7734 122.719C44.2578 122.5 44.8255 122.391 45.4766 122.391C46.1693 122.391 46.776 122.523 47.2969 122.789C47.8229 123.055 48.2344 123.435 48.5312 123.93C48.8333 124.419 48.987 125 48.9922 125.672H46.875C46.8698 125.391 46.8099 125.135 46.6953 124.906C46.5859 124.677 46.4245 124.495 46.2109 124.359C46.0026 124.219 45.7448 124.148 45.4375 124.148C45.1094 124.148 44.8411 124.219 44.6328 124.359C44.4245 124.495 44.263 124.682 44.1484 124.922C44.0339 125.156 43.9531 125.424 43.9062 125.727C43.8646 126.023 43.8438 126.336 43.8438 126.664V126.891C43.8438 127.219 43.8646 127.534 43.9062 127.836C43.9479 128.138 44.026 128.406 44.1406 128.641C44.2604 128.875 44.4245 129.06 44.6328 129.195C44.8411 129.331 45.112 129.398 45.4453 129.398ZM52.5469 118.992V131H50.2969V118.992H52.5469ZM57.875 122.547L54.2031 126.734L52.2344 128.727L51.4141 127.102L52.9766 125.117L55.1719 122.547H57.875ZM55.5391 131L53.0391 127.094L54.5938 125.734L58.1328 131H55.5391ZM63.8438 128.977V122.547H66.0938V131H63.9766L63.8438 128.977ZM64.0938 127.242L64.7578 127.227C64.7578 127.789 64.6927 128.312 64.5625 128.797C64.4323 129.276 64.237 129.693 63.9766 130.047C63.7161 130.396 63.388 130.669 62.9922 130.867C62.5964 131.06 62.1302 131.156 61.5938 131.156C61.1823 131.156 60.8021 131.099 60.4531 130.984C60.1094 130.865 59.8125 130.68 59.5625 130.43C59.3177 130.174 59.125 129.849 58.9844 129.453C58.849 129.052 58.7812 128.57 58.7812 128.008V122.547H61.0312V128.023C61.0312 128.273 61.0599 128.484 61.1172 128.656C61.1797 128.828 61.2656 128.969 61.375 129.078C61.4844 129.188 61.612 129.266 61.7578 129.312C61.9089 129.359 62.0755 129.383 62.2578 129.383C62.7214 129.383 63.0859 129.289 63.3516 129.102C63.6224 128.914 63.8125 128.659 63.9219 128.336C64.0365 128.008 64.0938 127.643 64.0938 127.242ZM70.0625 124.172V134.25H67.8125V122.547H69.8984L70.0625 124.172ZM75.4141 126.68V126.844C75.4141 127.458 75.3411 128.029 75.1953 128.555C75.0547 129.081 74.8464 129.539 74.5703 129.93C74.2943 130.315 73.9505 130.617 73.5391 130.836C73.1328 131.049 72.6641 131.156 72.1328 131.156C71.6172 131.156 71.1693 131.052 70.7891 130.844C70.4089 130.635 70.0885 130.344 69.8281 129.969C69.5729 129.589 69.3672 129.148 69.2109 128.648C69.0547 128.148 68.9349 127.612 68.8516 127.039V126.609C68.9349 125.995 69.0547 125.432 69.2109 124.922C69.3672 124.406 69.5729 123.961 69.8281 123.586C70.0885 123.206 70.4062 122.911 70.7812 122.703C71.1615 122.495 71.6068 122.391 72.1172 122.391C72.6536 122.391 73.125 122.492 73.5312 122.695C73.9427 122.898 74.2865 123.19 74.5625 123.57C74.8438 123.951 75.0547 124.404 75.1953 124.93C75.3411 125.456 75.4141 126.039 75.4141 126.68ZM73.1562 126.844V126.68C73.1562 126.32 73.125 125.99 73.0625 125.688C73.0052 125.38 72.9115 125.112 72.7812 124.883C72.6562 124.654 72.4896 124.477 72.2812 124.352C72.0781 124.221 71.8307 124.156 71.5391 124.156C71.2318 124.156 70.9688 124.206 70.75 124.305C70.5365 124.404 70.362 124.547 70.2266 124.734C70.0911 124.922 69.9896 125.146 69.9219 125.406C69.8542 125.667 69.8125 125.961 69.7969 126.289V127.375C69.8229 127.76 69.8958 128.107 70.0156 128.414C70.1354 128.716 70.3203 128.956 70.5703 129.133C70.8203 129.31 71.1484 129.398 71.5547 129.398C71.8516 129.398 72.1016 129.333 72.3047 129.203C72.5078 129.068 72.6719 128.883 72.7969 128.648C72.9271 128.414 73.0182 128.143 73.0703 127.836C73.1276 127.529 73.1562 127.198 73.1562 126.844Z" fill="#525252"/>
<path d="M222.398 102.902V120H219.023V106.793L214.969 108.082V105.422L222.035 102.902H222.398ZM231.129 112.23L228.434 111.586L229.406 102.938H238.992V105.668H232.184L231.762 109.453C231.988 109.32 232.332 109.18 232.793 109.031C233.254 108.875 233.77 108.797 234.34 108.797C235.168 108.797 235.902 108.926 236.543 109.184C237.184 109.441 237.727 109.816 238.172 110.309C238.625 110.801 238.969 111.402 239.203 112.113C239.438 112.824 239.555 113.629 239.555 114.527C239.555 115.285 239.438 116.008 239.203 116.695C238.969 117.375 238.613 117.984 238.137 118.523C237.66 119.055 237.062 119.473 236.344 119.777C235.625 120.082 234.773 120.234 233.789 120.234C233.055 120.234 232.344 120.125 231.656 119.906C230.977 119.688 230.363 119.363 229.816 118.934C229.277 118.504 228.844 117.984 228.516 117.375C228.195 116.758 228.027 116.055 228.012 115.266H231.363C231.41 115.75 231.535 116.168 231.738 116.52C231.949 116.863 232.227 117.129 232.57 117.316C232.914 117.504 233.316 117.598 233.777 117.598C234.207 117.598 234.574 117.516 234.879 117.352C235.184 117.188 235.43 116.961 235.617 116.672C235.805 116.375 235.941 116.031 236.027 115.641C236.121 115.242 236.168 114.812 236.168 114.352C236.168 113.891 236.113 113.473 236.004 113.098C235.895 112.723 235.727 112.398 235.5 112.125C235.273 111.852 234.984 111.641 234.633 111.492C234.289 111.344 233.887 111.27 233.426 111.27C232.801 111.27 232.316 111.367 231.973 111.562C231.637 111.758 231.355 111.98 231.129 112.23ZM242.004 118.371C242.004 117.871 242.176 117.453 242.52 117.117C242.871 116.781 243.336 116.613 243.914 116.613C244.492 116.613 244.953 116.781 245.297 117.117C245.648 117.453 245.824 117.871 245.824 118.371C245.824 118.871 245.648 119.289 245.297 119.625C244.953 119.961 244.492 120.129 243.914 120.129C243.336 120.129 242.871 119.961 242.52 119.625C242.176 119.289 242.004 118.871 242.004 118.371ZM242.004 108.703C242.004 108.203 242.176 107.785 242.52 107.449C242.871 107.113 243.336 106.945 243.914 106.945C244.492 106.945 244.953 107.113 245.297 107.449C245.648 107.785 245.824 108.203 245.824 108.703C245.824 109.203 245.648 109.621 245.297 109.957C244.953 110.293 244.492 110.461 243.914 110.461C243.336 110.461 242.871 110.293 242.52 109.957C242.176 109.621 242.004 109.203 242.004 108.703ZM251.965 110.004H253.77C254.348 110.004 254.824 109.906 255.199 109.711C255.574 109.508 255.852 109.227 256.031 108.867C256.219 108.5 256.312 108.074 256.312 107.59C256.312 107.152 256.227 106.766 256.055 106.43C255.891 106.086 255.637 105.82 255.293 105.633C254.949 105.438 254.516 105.34 253.992 105.34C253.578 105.34 253.195 105.422 252.844 105.586C252.492 105.75 252.211 105.98 252 106.277C251.789 106.574 251.684 106.934 251.684 107.355H248.297C248.297 106.418 248.547 105.602 249.047 104.906C249.555 104.211 250.234 103.668 251.086 103.277C251.938 102.887 252.875 102.691 253.898 102.691C255.055 102.691 256.066 102.879 256.934 103.254C257.801 103.621 258.477 104.164 258.961 104.883C259.445 105.602 259.688 106.492 259.688 107.555C259.688 108.094 259.562 108.617 259.312 109.125C259.062 109.625 258.703 110.078 258.234 110.484C257.773 110.883 257.211 111.203 256.547 111.445C255.883 111.68 255.137 111.797 254.309 111.797H251.965V110.004ZM251.965 112.57V110.824H254.309C255.238 110.824 256.055 110.93 256.758 111.141C257.461 111.352 258.051 111.656 258.527 112.055C259.004 112.445 259.363 112.91 259.605 113.449C259.848 113.98 259.969 114.57 259.969 115.219C259.969 116.016 259.816 116.727 259.512 117.352C259.207 117.969 258.777 118.492 258.223 118.922C257.676 119.352 257.035 119.68 256.301 119.906C255.566 120.125 254.766 120.234 253.898 120.234C253.18 120.234 252.473 120.137 251.777 119.941C251.09 119.738 250.465 119.438 249.902 119.039C249.348 118.633 248.902 118.125 248.566 117.516C248.238 116.898 248.074 116.168 248.074 115.324H251.461C251.461 115.762 251.57 116.152 251.789 116.496C252.008 116.84 252.309 117.109 252.691 117.305C253.082 117.5 253.516 117.598 253.992 117.598C254.531 117.598 254.992 117.5 255.375 117.305C255.766 117.102 256.062 116.82 256.266 116.461C256.477 116.094 256.582 115.668 256.582 115.184C256.582 114.559 256.469 114.059 256.242 113.684C256.016 113.301 255.691 113.02 255.27 112.84C254.848 112.66 254.348 112.57 253.77 112.57H251.965ZM273.773 109.969V112.922C273.773 114.203 273.637 115.309 273.363 116.238C273.09 117.16 272.695 117.918 272.18 118.512C271.672 119.098 271.066 119.531 270.363 119.812C269.66 120.094 268.879 120.234 268.02 120.234C267.332 120.234 266.691 120.148 266.098 119.977C265.504 119.797 264.969 119.52 264.492 119.145C264.023 118.77 263.617 118.297 263.273 117.727C262.938 117.148 262.68 116.461 262.5 115.664C262.32 114.867 262.23 113.953 262.23 112.922V109.969C262.23 108.688 262.367 107.59 262.641 106.676C262.922 105.754 263.316 105 263.824 104.414C264.34 103.828 264.949 103.398 265.652 103.125C266.355 102.844 267.137 102.703 267.996 102.703C268.684 102.703 269.32 102.793 269.906 102.973C270.5 103.145 271.035 103.414 271.512 103.781C271.988 104.148 272.395 104.621 272.73 105.199C273.066 105.77 273.324 106.453 273.504 107.25C273.684 108.039 273.773 108.945 273.773 109.969ZM270.387 113.367V109.512C270.387 108.895 270.352 108.355 270.281 107.895C270.219 107.434 270.121 107.043 269.988 106.723C269.855 106.395 269.691 106.129 269.496 105.926C269.301 105.723 269.078 105.574 268.828 105.48C268.578 105.387 268.301 105.34 267.996 105.34C267.613 105.34 267.273 105.414 266.977 105.562C266.688 105.711 266.441 105.949 266.238 106.277C266.035 106.598 265.879 107.027 265.77 107.566C265.668 108.098 265.617 108.746 265.617 109.512V113.367C265.617 113.984 265.648 114.527 265.711 114.996C265.781 115.465 265.883 115.867 266.016 116.203C266.156 116.531 266.32 116.801 266.508 117.012C266.703 117.215 266.926 117.363 267.176 117.457C267.434 117.551 267.715 117.598 268.02 117.598C268.395 117.598 268.727 117.523 269.016 117.375C269.312 117.219 269.562 116.977 269.766 116.648C269.977 116.312 270.133 115.875 270.234 115.336C270.336 114.797 270.387 114.141 270.387 113.367Z" fill="black"/>
<rect x="5" y="5" width="298" height="66" rx="7" fill="black" stroke="black" stroke-width="2"/>
<rect x="1" y="1" width="298" height="66" rx="7" fill="white" stroke="#22C55E" stroke-width="2"/>
<path d="M20.8047 24.6514C20.8047 24.4229 20.7695 24.2178 20.6992 24.0361C20.6348 23.8486 20.5117 23.6787 20.3301 23.5264C20.1484 23.3682 19.8936 23.2129 19.5654 23.0605C19.2373 22.9082 18.8125 22.75 18.291 22.5859C17.7109 22.3984 17.1602 22.1875 16.6387 21.9531C16.123 21.7188 15.666 21.4463 15.2676 21.1357C14.875 20.8193 14.5645 20.4531 14.3359 20.0371C14.1133 19.6211 14.002 19.1377 14.002 18.5869C14.002 18.0537 14.1191 17.5703 14.3535 17.1367C14.5879 16.6973 14.916 16.3223 15.3379 16.0117C15.7598 15.6953 16.2578 15.4521 16.832 15.2822C17.4121 15.1123 18.0479 15.0273 18.7393 15.0273C19.6826 15.0273 20.5059 15.1973 21.209 15.5371C21.9121 15.877 22.457 16.3428 22.8438 16.9346C23.2363 17.5264 23.4326 18.2031 23.4326 18.9648H20.8135C20.8135 18.5898 20.7344 18.2617 20.5762 17.9805C20.4238 17.6934 20.1895 17.4678 19.873 17.3037C19.5625 17.1396 19.1699 17.0576 18.6953 17.0576C18.2383 17.0576 17.8574 17.1279 17.5527 17.2686C17.248 17.4033 17.0195 17.5879 16.8672 17.8223C16.7148 18.0508 16.6387 18.3086 16.6387 18.5957C16.6387 18.8125 16.6914 19.0088 16.7969 19.1846C16.9082 19.3604 17.0723 19.5244 17.2891 19.6768C17.5059 19.8291 17.7725 19.9727 18.0889 20.1074C18.4053 20.2422 18.7715 20.374 19.1875 20.5029C19.8848 20.7139 20.4971 20.9512 21.0244 21.2148C21.5576 21.4785 22.0029 21.7744 22.3604 22.1025C22.7178 22.4307 22.9873 22.8027 23.1689 23.2188C23.3506 23.6348 23.4414 24.1064 23.4414 24.6338C23.4414 25.1904 23.333 25.6885 23.1162 26.1279C22.8994 26.5674 22.5859 26.9395 22.1758 27.2441C21.7656 27.5488 21.2764 27.7803 20.708 27.9385C20.1396 28.0967 19.5039 28.1758 18.8008 28.1758C18.168 28.1758 17.5439 28.0938 16.9287 27.9297C16.3135 27.7598 15.7539 27.5049 15.25 27.165C14.752 26.8252 14.3535 26.3916 14.0547 25.8643C13.7559 25.3369 13.6064 24.7129 13.6064 23.9922H16.252C16.252 24.3906 16.3135 24.7275 16.4365 25.0029C16.5596 25.2783 16.7324 25.501 16.9551 25.6709C17.1836 25.8408 17.4531 25.9639 17.7637 26.04C18.0801 26.1162 18.4258 26.1543 18.8008 26.1543C19.2578 26.1543 19.6328 26.0898 19.9258 25.9609C20.2246 25.832 20.4443 25.6533 20.585 25.4248C20.7314 25.1963 20.8047 24.9385 20.8047 24.6514ZM30.209 25.8555V21.6191C30.209 21.3145 30.1592 21.0537 30.0596 20.8369C29.96 20.6143 29.8047 20.4414 29.5938 20.3184C29.3887 20.1953 29.1221 20.1338 28.7939 20.1338C28.5127 20.1338 28.2695 20.1836 28.0645 20.2832C27.8594 20.377 27.7012 20.5146 27.5898 20.6963C27.4785 20.8721 27.4229 21.0801 27.4229 21.3203H24.8916C24.8916 20.916 24.9854 20.5322 25.1729 20.1689C25.3604 19.8057 25.6328 19.4863 25.9902 19.2109C26.3477 18.9297 26.7725 18.71 27.2646 18.5518C27.7627 18.3936 28.3193 18.3145 28.9346 18.3145C29.6729 18.3145 30.3291 18.4375 30.9033 18.6836C31.4775 18.9297 31.9287 19.2988 32.2568 19.791C32.5908 20.2832 32.7578 20.8984 32.7578 21.6367V25.7061C32.7578 26.2275 32.79 26.6553 32.8545 26.9893C32.9189 27.3174 33.0127 27.6045 33.1357 27.8506V28H30.5781C30.4551 27.7422 30.3613 27.4199 30.2969 27.0332C30.2383 26.6406 30.209 26.248 30.209 25.8555ZM30.543 22.208L30.5605 23.6406H29.1455C28.8115 23.6406 28.5215 23.6787 28.2754 23.7549C28.0293 23.8311 27.8271 23.9395 27.6689 24.0801C27.5107 24.2148 27.3936 24.373 27.3174 24.5547C27.2471 24.7363 27.2119 24.9355 27.2119 25.1523C27.2119 25.3691 27.2617 25.5654 27.3613 25.7412C27.4609 25.9111 27.6045 26.0459 27.792 26.1455C27.9795 26.2393 28.1992 26.2861 28.4512 26.2861C28.832 26.2861 29.1631 26.21 29.4443 26.0576C29.7256 25.9053 29.9424 25.7178 30.0947 25.4951C30.2529 25.2725 30.335 25.0615 30.3408 24.8623L31.0088 25.9346C30.915 26.1748 30.7861 26.4238 30.6221 26.6816C30.4639 26.9395 30.2617 27.1826 30.0156 27.4111C29.7695 27.6338 29.4736 27.8184 29.1279 27.9648C28.7822 28.1055 28.3721 28.1758 27.8975 28.1758C27.2939 28.1758 26.7461 28.0557 26.2539 27.8154C25.7676 27.5693 25.3809 27.2324 25.0938 26.8047C24.8125 26.3711 24.6719 25.8789 24.6719 25.3281C24.6719 24.8301 24.7656 24.3877 24.9531 24.001C25.1406 23.6143 25.416 23.2891 25.7793 23.0254C26.1484 22.7559 26.6084 22.5537 27.1592 22.4189C27.71 22.2783 28.3486 22.208 29.0752 22.208H30.543ZM37.2402 20.459V28H34.7002V18.4902H37.082L37.2402 20.459ZM36.8887 22.9111H36.1855C36.1855 22.249 36.2646 21.6396 36.4229 21.083C36.5869 20.5205 36.8242 20.0342 37.1348 19.624C37.4512 19.208 37.8408 18.8857 38.3037 18.6572C38.7666 18.4287 39.3027 18.3145 39.9121 18.3145C40.334 18.3145 40.7207 18.3789 41.0723 18.5078C41.4238 18.6309 41.7256 18.8271 41.9775 19.0967C42.2354 19.3604 42.4346 19.7061 42.5752 20.1338C42.7158 20.5557 42.7861 21.0625 42.7861 21.6543V28H40.2549V21.9355C40.2549 21.502 40.1963 21.168 40.0791 20.9336C39.9619 20.6992 39.7949 20.5352 39.5781 20.4414C39.3672 20.3477 39.1123 20.3008 38.8135 20.3008C38.4854 20.3008 38.1982 20.3682 37.9521 20.5029C37.7119 20.6377 37.5127 20.8252 37.3545 21.0654C37.1963 21.2998 37.0791 21.5752 37.0029 21.8916C36.9268 22.208 36.8887 22.5479 36.8887 22.9111ZM42.5488 22.6211L41.6436 22.7354C41.6436 22.1143 41.7197 21.5371 41.8721 21.0039C42.0303 20.4707 42.2617 20.002 42.5664 19.5977C42.877 19.1934 43.2607 18.8799 43.7178 18.6572C44.1748 18.4287 44.7021 18.3145 45.2998 18.3145C45.7568 18.3145 46.1729 18.3818 46.5479 18.5166C46.9229 18.6455 47.2422 18.8535 47.5059 19.1406C47.7754 19.4219 47.9805 19.791 48.1211 20.248C48.2676 20.7051 48.3408 21.2646 48.3408 21.9268V28H45.8008V21.9268C45.8008 21.4873 45.7422 21.1533 45.625 20.9248C45.5137 20.6904 45.3496 20.5293 45.1328 20.4414C44.9219 20.3477 44.6699 20.3008 44.377 20.3008C44.0723 20.3008 43.8057 20.3623 43.5771 20.4854C43.3486 20.6025 43.1582 20.7666 43.0059 20.9775C42.8535 21.1885 42.7393 21.4346 42.6631 21.7158C42.5869 21.9912 42.5488 22.293 42.5488 22.6211ZM55.4336 25.8555V21.6191C55.4336 21.3145 55.3838 21.0537 55.2842 20.8369C55.1846 20.6143 55.0293 20.4414 54.8184 20.3184C54.6133 20.1953 54.3467 20.1338 54.0186 20.1338C53.7373 20.1338 53.4941 20.1836 53.2891 20.2832C53.084 20.377 52.9258 20.5146 52.8145 20.6963C52.7031 20.8721 52.6475 21.0801 52.6475 21.3203H50.1162C50.1162 20.916 50.21 20.5322 50.3975 20.1689C50.585 19.8057 50.8574 19.4863 51.2148 19.2109C51.5723 18.9297 51.9971 18.71 52.4893 18.5518C52.9873 18.3936 53.5439 18.3145 54.1592 18.3145C54.8975 18.3145 55.5537 18.4375 56.1279 18.6836C56.7021 18.9297 57.1533 19.2988 57.4814 19.791C57.8154 20.2832 57.9824 20.8984 57.9824 21.6367V25.7061C57.9824 26.2275 58.0146 26.6553 58.0791 26.9893C58.1436 27.3174 58.2373 27.6045 58.3604 27.8506V28H55.8027C55.6797 27.7422 55.5859 27.4199 55.5215 27.0332C55.4629 26.6406 55.4336 26.248 55.4336 25.8555ZM55.7676 22.208L55.7852 23.6406H54.3701C54.0361 23.6406 53.7461 23.6787 53.5 23.7549C53.2539 23.8311 53.0518 23.9395 52.8936 24.0801C52.7354 24.2148 52.6182 24.373 52.542 24.5547C52.4717 24.7363 52.4365 24.9355 52.4365 25.1523C52.4365 25.3691 52.4863 25.5654 52.5859 25.7412C52.6855 25.9111 52.8291 26.0459 53.0166 26.1455C53.2041 26.2393 53.4238 26.2861 53.6758 26.2861C54.0566 26.2861 54.3877 26.21 54.6689 26.0576C54.9502 25.9053 55.167 25.7178 55.3193 25.4951C55.4775 25.2725 55.5596 25.0615 55.5654 24.8623L56.2334 25.9346C56.1396 26.1748 56.0107 26.4238 55.8467 26.6816C55.6885 26.9395 55.4863 27.1826 55.2402 27.4111C54.9941 27.6338 54.6982 27.8184 54.3525 27.9648C54.0068 28.1055 53.5967 28.1758 53.1221 28.1758C52.5186 28.1758 51.9707 28.0557 51.4785 27.8154C50.9922 27.5693 50.6055 27.2324 50.3184 26.8047C50.0371 26.3711 49.8965 25.8789 49.8965 25.3281C49.8965 24.8301 49.9902 24.3877 50.1777 24.001C50.3652 23.6143 50.6406 23.2891 51.0039 23.0254C51.373 22.7559 51.833 22.5537 52.3838 22.4189C52.9346 22.2783 53.5732 22.208 54.2998 22.208H55.7676ZM62.4121 20.5205V28H59.8809V18.4902H62.2539L62.4121 20.5205ZM62.043 22.9111H61.3574C61.3574 22.208 61.4482 21.5752 61.6299 21.0127C61.8115 20.4443 62.0664 19.9609 62.3945 19.5625C62.7227 19.1582 63.1123 18.8506 63.5635 18.6396C64.0205 18.4229 64.5303 18.3145 65.0928 18.3145C65.5381 18.3145 65.9453 18.3789 66.3145 18.5078C66.6836 18.6367 67 18.8418 67.2637 19.123C67.5332 19.4043 67.7383 19.7764 67.8789 20.2393C68.0254 20.7021 68.0986 21.2676 68.0986 21.9355V28H65.5498V21.9268C65.5498 21.5049 65.4912 21.1768 65.374 20.9424C65.2568 20.708 65.084 20.5439 64.8555 20.4502C64.6328 20.3506 64.3574 20.3008 64.0293 20.3008C63.6895 20.3008 63.3936 20.3682 63.1416 20.5029C62.8955 20.6377 62.6904 20.8252 62.5264 21.0654C62.3682 21.2998 62.248 21.5752 62.166 21.8916C62.084 22.208 62.043 22.5479 62.043 22.9111ZM74.6816 18.4902V20.2832H69.1445V18.4902H74.6816ZM70.5156 16.1436H73.0469V25.1348C73.0469 25.4102 73.082 25.6211 73.1523 25.7676C73.2285 25.9141 73.3398 26.0166 73.4863 26.0752C73.6328 26.1279 73.8174 26.1543 74.04 26.1543C74.1982 26.1543 74.3389 26.1484 74.4619 26.1367C74.5908 26.1191 74.6992 26.1016 74.7871 26.084L74.7959 27.9473C74.5791 28.0176 74.3447 28.0732 74.0928 28.1143C73.8408 28.1553 73.5625 28.1758 73.2578 28.1758C72.7012 28.1758 72.2148 28.085 71.7988 27.9033C71.3887 27.7158 71.0723 27.417 70.8496 27.0068C70.627 26.5967 70.5156 26.0576 70.5156 25.3896V16.1436ZM78.5928 14.5V28H76.0615V14.5H78.5928ZM78.2324 22.9111H77.5381C77.5439 22.249 77.6318 21.6396 77.8018 21.083C77.9717 20.5205 78.2148 20.0342 78.5312 19.624C78.8477 19.208 79.2256 18.8857 79.665 18.6572C80.1104 18.4287 80.6025 18.3145 81.1416 18.3145C81.6104 18.3145 82.0352 18.3818 82.416 18.5166C82.8027 18.6455 83.1338 18.8564 83.4092 19.1494C83.6904 19.4365 83.9072 19.8145 84.0596 20.2832C84.2119 20.752 84.2881 21.3203 84.2881 21.9883V28H81.7393V21.9707C81.7393 21.5488 81.6777 21.2178 81.5547 20.9775C81.4375 20.7314 81.2646 20.5586 81.0361 20.459C80.8135 20.3535 80.5381 20.3008 80.21 20.3008C79.8467 20.3008 79.5361 20.3682 79.2783 20.5029C79.0264 20.6377 78.8242 20.8252 78.6719 21.0654C78.5195 21.2998 78.4082 21.5752 78.3379 21.8916C78.2676 22.208 78.2324 22.5479 78.2324 22.9111ZM91.3457 25.8555V21.6191C91.3457 21.3145 91.2959 21.0537 91.1963 20.8369C91.0967 20.6143 90.9414 20.4414 90.7305 20.3184C90.5254 20.1953 90.2588 20.1338 89.9307 20.1338C89.6494 20.1338 89.4062 20.1836 89.2012 20.2832C88.9961 20.377 88.8379 20.5146 88.7266 20.6963C88.6152 20.8721 88.5596 21.0801 88.5596 21.3203H86.0283C86.0283 20.916 86.1221 20.5322 86.3096 20.1689C86.4971 19.8057 86.7695 19.4863 87.127 19.2109C87.4844 18.9297 87.9092 18.71 88.4014 18.5518C88.8994 18.3936 89.4561 18.3145 90.0713 18.3145C90.8096 18.3145 91.4658 18.4375 92.04 18.6836C92.6143 18.9297 93.0654 19.2988 93.3936 19.791C93.7275 20.2832 93.8945 20.8984 93.8945 21.6367V25.7061C93.8945 26.2275 93.9268 26.6553 93.9912 26.9893C94.0557 27.3174 94.1494 27.6045 94.2725 27.8506V28H91.7148C91.5918 27.7422 91.498 27.4199 91.4336 27.0332C91.375 26.6406 91.3457 26.248 91.3457 25.8555ZM91.6797 22.208L91.6973 23.6406H90.2822C89.9482 23.6406 89.6582 23.6787 89.4121 23.7549C89.166 23.8311 88.9639 23.9395 88.8057 24.0801C88.6475 24.2148 88.5303 24.373 88.4541 24.5547C88.3838 24.7363 88.3486 24.9355 88.3486 25.1523C88.3486 25.3691 88.3984 25.5654 88.498 25.7412C88.5977 25.9111 88.7412 26.0459 88.9287 26.1455C89.1162 26.2393 89.3359 26.2861 89.5879 26.2861C89.9688 26.2861 90.2998 26.21 90.5811 26.0576C90.8623 25.9053 91.0791 25.7178 91.2314 25.4951C91.3896 25.2725 91.4717 25.0615 91.4775 24.8623L92.1455 25.9346C92.0518 26.1748 91.9229 26.4238 91.7588 26.6816C91.6006 26.9395 91.3984 27.1826 91.1523 27.4111C90.9062 27.6338 90.6104 27.8184 90.2646 27.9648C89.9189 28.1055 89.5088 28.1758 89.0342 28.1758C88.4307 28.1758 87.8828 28.0557 87.3906 27.8154C86.9043 27.5693 86.5176 27.2324 86.2305 26.8047C85.9492 26.3711 85.8086 25.8789 85.8086 25.3281C85.8086 24.8301 85.9023 24.3877 86.0898 24.001C86.2773 23.6143 86.5527 23.2891 86.916 23.0254C87.2852 22.7559 87.7451 22.5537 88.2959 22.4189C88.8467 22.2783 89.4854 22.208 90.2119 22.208H91.6797ZM105.663 24.0713V15.2031H108.291V24.0713C108.291 24.9268 108.104 25.6621 107.729 26.2773C107.354 26.8867 106.841 27.3555 106.19 27.6836C105.546 28.0117 104.819 28.1758 104.011 28.1758C103.173 28.1758 102.432 28.0352 101.787 27.7539C101.143 27.4727 100.636 27.042 100.267 26.4619C99.8975 25.876 99.7129 25.1348 99.7129 24.2383H102.358C102.358 24.707 102.423 25.0791 102.552 25.3545C102.687 25.6299 102.877 25.8262 103.123 25.9434C103.369 26.0605 103.665 26.1191 104.011 26.1191C104.345 26.1191 104.635 26.04 104.881 25.8818C105.127 25.7236 105.317 25.4922 105.452 25.1875C105.593 24.8828 105.663 24.5107 105.663 24.0713ZM109.979 23.3418V23.1572C109.979 22.46 110.078 21.8184 110.277 21.2324C110.477 20.6406 110.767 20.1279 111.147 19.6943C111.528 19.2607 111.997 18.9238 112.554 18.6836C113.11 18.4375 113.749 18.3145 114.47 18.3145C115.19 18.3145 115.832 18.4375 116.395 18.6836C116.957 18.9238 117.429 19.2607 117.81 19.6943C118.196 20.1279 118.489 20.6406 118.688 21.2324C118.888 21.8184 118.987 22.46 118.987 23.1572V23.3418C118.987 24.0332 118.888 24.6748 118.688 25.2666C118.489 25.8525 118.196 26.3652 117.81 26.8047C117.429 27.2383 116.96 27.5752 116.403 27.8154C115.847 28.0557 115.208 28.1758 114.487 28.1758C113.767 28.1758 113.125 28.0557 112.562 27.8154C112.006 27.5752 111.534 27.2383 111.147 26.8047C110.767 26.3652 110.477 25.8525 110.277 25.2666C110.078 24.6748 109.979 24.0332 109.979 23.3418ZM112.51 23.1572V23.3418C112.51 23.7402 112.545 24.1123 112.615 24.458C112.686 24.8037 112.797 25.1084 112.949 25.3721C113.107 25.6299 113.312 25.832 113.564 25.9785C113.816 26.125 114.124 26.1982 114.487 26.1982C114.839 26.1982 115.141 26.125 115.393 25.9785C115.645 25.832 115.847 25.6299 115.999 25.3721C116.151 25.1084 116.263 24.8037 116.333 24.458C116.409 24.1123 116.447 23.7402 116.447 23.3418V23.1572C116.447 22.7705 116.409 22.4072 116.333 22.0674C116.263 21.7217 116.148 21.417 115.99 21.1533C115.838 20.8838 115.636 20.6729 115.384 20.5205C115.132 20.3682 114.827 20.292 114.47 20.292C114.112 20.292 113.808 20.3682 113.556 20.5205C113.31 20.6729 113.107 20.8838 112.949 21.1533C112.797 21.417 112.686 21.7217 112.615 22.0674C112.545 22.4072 112.51 22.7705 112.51 23.1572ZM123.013 14.5V28H120.481V14.5H123.013ZM122.652 22.9111H121.958C121.964 22.249 122.052 21.6396 122.222 21.083C122.392 20.5205 122.635 20.0342 122.951 19.624C123.268 19.208 123.646 18.8857 124.085 18.6572C124.53 18.4287 125.022 18.3145 125.562 18.3145C126.03 18.3145 126.455 18.3818 126.836 18.5166C127.223 18.6455 127.554 18.8564 127.829 19.1494C128.11 19.4365 128.327 19.8145 128.479 20.2832C128.632 20.752 128.708 21.3203 128.708 21.9883V28H126.159V21.9707C126.159 21.5488 126.098 21.2178 125.975 20.9775C125.857 20.7314 125.685 20.5586 125.456 20.459C125.233 20.3535 124.958 20.3008 124.63 20.3008C124.267 20.3008 123.956 20.3682 123.698 20.5029C123.446 20.6377 123.244 20.8252 123.092 21.0654C122.939 21.2998 122.828 21.5752 122.758 21.8916C122.688 22.208 122.652 22.5479 122.652 22.9111ZM133.111 20.5205V28H130.58V18.4902H132.953L133.111 20.5205ZM132.742 22.9111H132.057C132.057 22.208 132.147 21.5752 132.329 21.0127C132.511 20.4443 132.766 19.9609 133.094 19.5625C133.422 19.1582 133.812 18.8506 134.263 18.6396C134.72 18.4229 135.229 18.3145 135.792 18.3145C136.237 18.3145 136.645 18.3789 137.014 18.5078C137.383 18.6367 137.699 18.8418 137.963 19.123C138.232 19.4043 138.438 19.7764 138.578 20.2393C138.725 20.7021 138.798 21.2676 138.798 21.9355V28H136.249V21.9268C136.249 21.5049 136.19 21.1768 136.073 20.9424C135.956 20.708 135.783 20.5439 135.555 20.4502C135.332 20.3506 135.057 20.3008 134.729 20.3008C134.389 20.3008 134.093 20.3682 133.841 20.5029C133.595 20.6377 133.39 20.8252 133.226 21.0654C133.067 21.2998 132.947 21.5752 132.865 21.8916C132.783 22.208 132.742 22.5479 132.742 22.9111ZM145.864 25.3721C145.864 25.1904 145.812 25.0264 145.706 24.8799C145.601 24.7334 145.404 24.5986 145.117 24.4756C144.836 24.3467 144.429 24.2295 143.896 24.124C143.415 24.0186 142.967 23.8867 142.551 23.7285C142.141 23.5645 141.783 23.3682 141.479 23.1396C141.18 22.9111 140.945 22.6416 140.775 22.3311C140.605 22.0146 140.521 21.6543 140.521 21.25C140.521 20.8516 140.605 20.4766 140.775 20.125C140.951 19.7734 141.2 19.4629 141.522 19.1934C141.851 18.918 142.249 18.7041 142.718 18.5518C143.192 18.3936 143.726 18.3145 144.317 18.3145C145.144 18.3145 145.853 18.4463 146.444 18.71C147.042 18.9736 147.499 19.3369 147.815 19.7998C148.138 20.2568 148.299 20.7783 148.299 21.3643H145.768C145.768 21.1182 145.715 20.8984 145.609 20.7051C145.51 20.5059 145.352 20.3506 145.135 20.2393C144.924 20.1221 144.648 20.0635 144.309 20.0635C144.027 20.0635 143.784 20.1133 143.579 20.2129C143.374 20.3066 143.216 20.4355 143.104 20.5996C142.999 20.7578 142.946 20.9336 142.946 21.127C142.946 21.2734 142.976 21.4053 143.034 21.5225C143.099 21.6338 143.201 21.7363 143.342 21.8301C143.482 21.9238 143.664 22.0117 143.887 22.0938C144.115 22.1699 144.396 22.2402 144.73 22.3047C145.416 22.4453 146.028 22.6299 146.567 22.8584C147.106 23.0811 147.534 23.3857 147.851 23.7725C148.167 24.1533 148.325 24.6543 148.325 25.2754C148.325 25.6973 148.231 26.084 148.044 26.4355C147.856 26.7871 147.587 27.0947 147.235 27.3584C146.884 27.6162 146.462 27.8184 145.97 27.9648C145.483 28.1055 144.936 28.1758 144.326 28.1758C143.441 28.1758 142.691 28.0176 142.076 27.7012C141.467 27.3848 141.004 26.9834 140.688 26.4971C140.377 26.0049 140.222 25.501 140.222 24.9854H142.621C142.633 25.3311 142.721 25.6094 142.885 25.8203C143.055 26.0312 143.269 26.1836 143.526 26.2773C143.79 26.3711 144.074 26.418 144.379 26.418C144.707 26.418 144.979 26.374 145.196 26.2861C145.413 26.1924 145.577 26.0693 145.688 25.917C145.806 25.7588 145.864 25.5771 145.864 25.3721ZM149.564 23.3418V23.1572C149.564 22.46 149.664 21.8184 149.863 21.2324C150.062 20.6406 150.353 20.1279 150.733 19.6943C151.114 19.2607 151.583 18.9238 152.14 18.6836C152.696 18.4375 153.335 18.3145 154.056 18.3145C154.776 18.3145 155.418 18.4375 155.98 18.6836C156.543 18.9238 157.015 19.2607 157.396 19.6943C157.782 20.1279 158.075 20.6406 158.274 21.2324C158.474 21.8184 158.573 22.46 158.573 23.1572V23.3418C158.573 24.0332 158.474 24.6748 158.274 25.2666C158.075 25.8525 157.782 26.3652 157.396 26.8047C157.015 27.2383 156.546 27.5752 155.989 27.8154C155.433 28.0557 154.794 28.1758 154.073 28.1758C153.353 28.1758 152.711 28.0557 152.148 27.8154C151.592 27.5752 151.12 27.2383 150.733 26.8047C150.353 26.3652 150.062 25.8525 149.863 25.2666C149.664 24.6748 149.564 24.0332 149.564 23.3418ZM152.096 23.1572V23.3418C152.096 23.7402 152.131 24.1123 152.201 24.458C152.271 24.8037 152.383 25.1084 152.535 25.3721C152.693 25.6299 152.898 25.832 153.15 25.9785C153.402 26.125 153.71 26.1982 154.073 26.1982C154.425 26.1982 154.727 26.125 154.979 25.9785C155.23 25.832 155.433 25.6299 155.585 25.3721C155.737 25.1084 155.849 24.8037 155.919 24.458C155.995 24.1123 156.033 23.7402 156.033 23.3418V23.1572C156.033 22.7705 155.995 22.4072 155.919 22.0674C155.849 21.7217 155.734 21.417 155.576 21.1533C155.424 20.8838 155.222 20.6729 154.97 20.5205C154.718 20.3682 154.413 20.292 154.056 20.292C153.698 20.292 153.394 20.3682 153.142 20.5205C152.896 20.6729 152.693 20.8838 152.535 21.1533C152.383 21.417 152.271 21.7217 152.201 22.0674C152.131 22.4072 152.096 22.7705 152.096 23.1572ZM162.607 20.5205V28H160.076V18.4902H162.449L162.607 20.5205ZM162.238 22.9111H161.553C161.553 22.208 161.644 21.5752 161.825 21.0127C162.007 20.4443 162.262 19.9609 162.59 19.5625C162.918 19.1582 163.308 18.8506 163.759 18.6396C164.216 18.4229 164.726 18.3145 165.288 18.3145C165.733 18.3145 166.141 18.3789 166.51 18.5078C166.879 18.6367 167.195 18.8418 167.459 19.123C167.729 19.4043 167.934 19.7764 168.074 20.2393C168.221 20.7021 168.294 21.2676 168.294 21.9355V28H165.745V21.9268C165.745 21.5049 165.687 21.1768 165.569 20.9424C165.452 20.708 165.279 20.5439 165.051 20.4502C164.828 20.3506 164.553 20.3008 164.225 20.3008C163.885 20.3008 163.589 20.3682 163.337 20.5029C163.091 20.6377 162.886 20.8252 162.722 21.0654C162.563 21.2998 162.443 21.5752 162.361 21.8916C162.279 22.208 162.238 22.5479 162.238 22.9111Z" fill="black"/>
<path d="M14.0156 41.625H18.2578C19.1276 41.625 19.875 41.7552 20.5 42.0156C21.1302 42.276 21.6146 42.6615 21.9531 43.1719C22.2917 43.6823 22.4609 44.3099 22.4609 45.0547C22.4609 45.6641 22.3568 46.1875 22.1484 46.625C21.9453 47.0573 21.6562 47.4193 21.2812 47.7109C20.9115 47.9974 20.4766 48.2266 19.9766 48.3984L19.2344 48.7891H15.5469L15.5312 46.9609H18.2734C18.6849 46.9609 19.026 46.888 19.2969 46.7422C19.5677 46.5964 19.7708 46.3932 19.9062 46.1328C20.0469 45.8724 20.1172 45.5703 20.1172 45.2266C20.1172 44.862 20.0495 44.5469 19.9141 44.2812C19.7786 44.0156 19.5729 43.8125 19.2969 43.6719C19.0208 43.5312 18.6745 43.4609 18.2578 43.4609H16.3594V53H14.0156V41.625ZM20.375 53L17.7812 47.9297L20.2578 47.9141L22.8828 52.8906V53H20.375ZM23.7656 48.8594V48.6953C23.7656 48.0755 23.8542 47.5052 24.0312 46.9844C24.2083 46.4583 24.4661 46.0026 24.8047 45.6172C25.1432 45.2318 25.5599 44.9323 26.0547 44.7188C26.5495 44.5 27.1172 44.3906 27.7578 44.3906C28.3984 44.3906 28.9688 44.5 29.4688 44.7188C29.9688 44.9323 30.388 45.2318 30.7266 45.6172C31.0703 46.0026 31.3307 46.4583 31.5078 46.9844C31.6849 47.5052 31.7734 48.0755 31.7734 48.6953V48.8594C31.7734 49.474 31.6849 50.0443 31.5078 50.5703C31.3307 51.0911 31.0703 51.5469 30.7266 51.9375C30.388 52.3229 29.9714 52.6224 29.4766 52.8359C28.9818 53.0495 28.4141 53.1562 27.7734 53.1562C27.1328 53.1562 26.5625 53.0495 26.0625 52.8359C25.5677 52.6224 25.1484 52.3229 24.8047 51.9375C24.4661 51.5469 24.2083 51.0911 24.0312 50.5703C23.8542 50.0443 23.7656 49.474 23.7656 48.8594ZM26.0156 48.6953V48.8594C26.0156 49.2135 26.0469 49.5443 26.1094 49.8516C26.1719 50.1589 26.2708 50.4297 26.4062 50.6641C26.5469 50.8932 26.7292 51.0729 26.9531 51.2031C27.1771 51.3333 27.4505 51.3984 27.7734 51.3984C28.0859 51.3984 28.3542 51.3333 28.5781 51.2031C28.8021 51.0729 28.9818 50.8932 29.1172 50.6641C29.2526 50.4297 29.3516 50.1589 29.4141 49.8516C29.4818 49.5443 29.5156 49.2135 29.5156 48.8594V48.6953C29.5156 48.3516 29.4818 48.0286 29.4141 47.7266C29.3516 47.4193 29.25 47.1484 29.1094 46.9141C28.974 46.6745 28.7943 46.487 28.5703 46.3516C28.3464 46.2161 28.0755 46.1484 27.7578 46.1484C27.4401 46.1484 27.1693 46.2161 26.9453 46.3516C26.7266 46.487 26.5469 46.6745 26.4062 46.9141C26.2708 47.1484 26.1719 47.4193 26.1094 47.7266C26.0469 48.0286 26.0156 48.3516 26.0156 48.6953ZM32.7969 48.8594V48.6953C32.7969 48.0755 32.8854 47.5052 33.0625 46.9844C33.2396 46.4583 33.4974 46.0026 33.8359 45.6172C34.1745 45.2318 34.5911 44.9323 35.0859 44.7188C35.5807 44.5 36.1484 44.3906 36.7891 44.3906C37.4297 44.3906 38 44.5 38.5 44.7188C39 44.9323 39.4193 45.2318 39.7578 45.6172C40.1016 46.0026 40.362 46.4583 40.5391 46.9844C40.7161 47.5052 40.8047 48.0755 40.8047 48.6953V48.8594C40.8047 49.474 40.7161 50.0443 40.5391 50.5703C40.362 51.0911 40.1016 51.5469 39.7578 51.9375C39.4193 52.3229 39.0026 52.6224 38.5078 52.8359C38.013 53.0495 37.4453 53.1562 36.8047 53.1562C36.1641 53.1562 35.5938 53.0495 35.0938 52.8359C34.599 52.6224 34.1797 52.3229 33.8359 51.9375C33.4974 51.5469 33.2396 51.0911 33.0625 50.5703C32.8854 50.0443 32.7969 49.474 32.7969 48.8594ZM35.0469 48.6953V48.8594C35.0469 49.2135 35.0781 49.5443 35.1406 49.8516C35.2031 50.1589 35.3021 50.4297 35.4375 50.6641C35.5781 50.8932 35.7604 51.0729 35.9844 51.2031C36.2083 51.3333 36.4818 51.3984 36.8047 51.3984C37.1172 51.3984 37.3854 51.3333 37.6094 51.2031C37.8333 51.0729 38.013 50.8932 38.1484 50.6641C38.2839 50.4297 38.3828 50.1589 38.4453 49.8516C38.513 49.5443 38.5469 49.2135 38.5469 48.8594V48.6953C38.5469 48.3516 38.513 48.0286 38.4453 47.7266C38.3828 47.4193 38.2812 47.1484 38.1406 46.9141C38.0052 46.6745 37.8255 46.487 37.6016 46.3516C37.3776 46.2161 37.1068 46.1484 36.7891 46.1484C36.4714 46.1484 36.2005 46.2161 35.9766 46.3516C35.7578 46.487 35.5781 46.6745 35.4375 46.9141C35.3021 47.1484 35.2031 47.4193 35.1406 47.7266C35.0781 48.0286 35.0469 48.3516 35.0469 48.6953ZM46.3281 44.5469V46.1406H41.4062V44.5469H46.3281ZM42.625 42.4609H44.875V50.4531C44.875 50.6979 44.9062 50.8854 44.9688 51.0156C45.0365 51.1458 45.1354 51.237 45.2656 51.2891C45.3958 51.3359 45.5599 51.3594 45.7578 51.3594C45.8984 51.3594 46.0234 51.3542 46.1328 51.3438C46.2474 51.3281 46.3438 51.3125 46.4219 51.2969L46.4297 52.9531C46.237 53.0156 46.0286 53.0651 45.8047 53.1016C45.5807 53.138 45.3333 53.1562 45.0625 53.1562C44.5677 53.1562 44.1354 53.0755 43.7656 52.9141C43.401 52.7474 43.1198 52.4818 42.9219 52.1172C42.724 51.7526 42.625 51.2734 42.625 50.6797V42.4609ZM58.3281 49.2266H60.6641C60.6172 49.9922 60.4062 50.6719 60.0312 51.2656C59.6615 51.8594 59.1432 52.3229 58.4766 52.6562C57.8151 52.9896 57.0182 53.1562 56.0859 53.1562C55.3568 53.1562 54.7031 53.0312 54.125 52.7812C53.5469 52.526 53.0521 52.1615 52.6406 51.6875C52.2344 51.2135 51.9245 50.6406 51.7109 49.9688C51.4974 49.2969 51.3906 48.5443 51.3906 47.7109V46.9219C51.3906 46.0885 51.5 45.3359 51.7188 44.6641C51.9427 43.987 52.2604 43.4115 52.6719 42.9375C53.0885 42.4635 53.5859 42.099 54.1641 41.8438C54.7422 41.5885 55.388 41.4609 56.1016 41.4609C57.0495 41.4609 57.849 41.6328 58.5 41.9766C59.1562 42.3203 59.6641 42.7943 60.0234 43.3984C60.388 44.0026 60.6068 44.6901 60.6797 45.4609H58.3359C58.3099 45.0026 58.2188 44.6146 58.0625 44.2969C57.9062 43.974 57.6693 43.7318 57.3516 43.5703C57.0391 43.4036 56.6224 43.3203 56.1016 43.3203C55.7109 43.3203 55.3698 43.3932 55.0781 43.5391C54.7865 43.6849 54.5417 43.9062 54.3438 44.2031C54.1458 44.5 53.9974 44.875 53.8984 45.3281C53.8047 45.776 53.7578 46.3021 53.7578 46.9062V47.7109C53.7578 48.2995 53.8021 48.8177 53.8906 49.2656C53.9792 49.7083 54.1146 50.0833 54.2969 50.3906C54.4844 50.6927 54.724 50.9219 55.0156 51.0781C55.3125 51.2292 55.6693 51.3047 56.0859 51.3047C56.5755 51.3047 56.9792 51.2266 57.2969 51.0703C57.6146 50.9141 57.8568 50.6823 58.0234 50.375C58.1953 50.0677 58.2969 49.6849 58.3281 49.2266ZM66.625 51.0938V47.3281C66.625 47.0573 66.5807 46.8255 66.4922 46.6328C66.4036 46.4349 66.2656 46.2812 66.0781 46.1719C65.8958 46.0625 65.6589 46.0078 65.3672 46.0078C65.1172 46.0078 64.901 46.0521 64.7188 46.1406C64.5365 46.224 64.3958 46.3464 64.2969 46.5078C64.1979 46.6641 64.1484 46.849 64.1484 47.0625H61.8984C61.8984 46.7031 61.9818 46.362 62.1484 46.0391C62.3151 45.7161 62.5573 45.4323 62.875 45.1875C63.1927 44.9375 63.5703 44.7422 64.0078 44.6016C64.4505 44.4609 64.9453 44.3906 65.4922 44.3906C66.1484 44.3906 66.7318 44.5 67.2422 44.7188C67.7526 44.9375 68.1536 45.2656 68.4453 45.7031C68.7422 46.1406 68.8906 46.6875 68.8906 47.3438V50.9609C68.8906 51.4245 68.9193 51.8047 68.9766 52.1016C69.0339 52.3932 69.1172 52.6484 69.2266 52.8672V53H66.9531C66.8438 52.7708 66.7604 52.4844 66.7031 52.1406C66.651 51.7917 66.625 51.4427 66.625 51.0938ZM66.9219 47.8516L66.9375 49.125H65.6797C65.3828 49.125 65.125 49.1589 64.9062 49.2266C64.6875 49.2943 64.5078 49.3906 64.3672 49.5156C64.2266 49.6354 64.1224 49.776 64.0547 49.9375C63.9922 50.099 63.9609 50.276 63.9609 50.4688C63.9609 50.6615 64.0052 50.8359 64.0938 50.9922C64.1823 51.1432 64.3099 51.263 64.4766 51.3516C64.6432 51.4349 64.8385 51.4766 65.0625 51.4766C65.401 51.4766 65.6953 51.4089 65.9453 51.2734C66.1953 51.138 66.388 50.9714 66.5234 50.7734C66.6641 50.5755 66.737 50.388 66.7422 50.2109L67.3359 51.1641C67.2526 51.3776 67.138 51.599 66.9922 51.8281C66.8516 52.0573 66.6719 52.2734 66.4531 52.4766C66.2344 52.6745 65.9714 52.8385 65.6641 52.9688C65.3568 53.0938 64.9922 53.1562 64.5703 53.1562C64.0339 53.1562 63.5469 53.0495 63.1094 52.8359C62.6771 52.6172 62.3333 52.3177 62.0781 51.9375C61.8281 51.5521 61.7031 51.1146 61.7031 50.625C61.7031 50.1823 61.7865 49.7891 61.9531 49.4453C62.1198 49.1016 62.3646 48.8125 62.6875 48.5781C63.0156 48.3385 63.4245 48.1589 63.9141 48.0391C64.4036 47.9141 64.9714 47.8516 65.6172 47.8516H66.9219ZM72.8281 46.3516V53H70.5781V44.5469H72.6875L72.8281 46.3516ZM72.5 48.4766H71.8906C71.8906 47.8516 71.9714 47.2891 72.1328 46.7891C72.2943 46.2839 72.5208 45.8542 72.8125 45.5C73.1042 45.1406 73.4505 44.8672 73.8516 44.6797C74.2578 44.487 74.7109 44.3906 75.2109 44.3906C75.6068 44.3906 75.9688 44.4479 76.2969 44.5625C76.625 44.6771 76.9062 44.8594 77.1406 45.1094C77.3802 45.3594 77.5625 45.6901 77.6875 46.1016C77.8177 46.513 77.8828 47.0156 77.8828 47.6094V53H75.6172V47.6016C75.6172 47.2266 75.5651 46.9349 75.4609 46.7266C75.3568 46.5182 75.2031 46.3724 75 46.2891C74.8021 46.2005 74.5573 46.1562 74.2656 46.1562C73.9635 46.1562 73.7005 46.2161 73.4766 46.3359C73.2578 46.4557 73.0755 46.6224 72.9297 46.8359C72.7891 47.0443 72.6823 47.2891 72.6094 47.5703C72.5365 47.8516 72.5 48.1536 72.5 48.4766ZM84.1562 51.0938V47.3281C84.1562 47.0573 84.112 46.8255 84.0234 46.6328C83.9349 46.4349 83.7969 46.2812 83.6094 46.1719C83.4271 46.0625 83.1901 46.0078 82.8984 46.0078C82.6484 46.0078 82.4323 46.0521 82.25 46.1406C82.0677 46.224 81.9271 46.3464 81.8281 46.5078C81.7292 46.6641 81.6797 46.849 81.6797 47.0625H79.4297C79.4297 46.7031 79.513 46.362 79.6797 46.0391C79.8464 45.7161 80.0885 45.4323 80.4062 45.1875C80.724 44.9375 81.1016 44.7422 81.5391 44.6016C81.9818 44.4609 82.4766 44.3906 83.0234 44.3906C83.6797 44.3906 84.263 44.5 84.7734 44.7188C85.2839 44.9375 85.6849 45.2656 85.9766 45.7031C86.2734 46.1406 86.4219 46.6875 86.4219 47.3438V50.9609C86.4219 51.4245 86.4505 51.8047 86.5078 52.1016C86.5651 52.3932 86.6484 52.6484 86.7578 52.8672V53H84.4844C84.375 52.7708 84.2917 52.4844 84.2344 52.1406C84.1823 51.7917 84.1562 51.4427 84.1562 51.0938ZM84.4531 47.8516L84.4688 49.125H83.2109C82.9141 49.125 82.6562 49.1589 82.4375 49.2266C82.2188 49.2943 82.0391 49.3906 81.8984 49.5156C81.7578 49.6354 81.6536 49.776 81.5859 49.9375C81.5234 50.099 81.4922 50.276 81.4922 50.4688C81.4922 50.6615 81.5365 50.8359 81.625 50.9922C81.7135 51.1432 81.8411 51.263 82.0078 51.3516C82.1745 51.4349 82.3698 51.4766 82.5938 51.4766C82.9323 51.4766 83.2266 51.4089 83.4766 51.2734C83.7266 51.138 83.9193 50.9714 84.0547 50.7734C84.1953 50.5755 84.2682 50.388 84.2734 50.2109L84.8672 51.1641C84.7839 51.3776 84.6693 51.599 84.5234 51.8281C84.3828 52.0573 84.2031 52.2734 83.9844 52.4766C83.7656 52.6745 83.5026 52.8385 83.1953 52.9688C82.888 53.0938 82.5234 53.1562 82.1016 53.1562C81.5651 53.1562 81.0781 53.0495 80.6406 52.8359C80.2083 52.6172 79.8646 52.3177 79.6094 51.9375C79.3594 51.5521 79.2344 51.1146 79.2344 50.625C79.2344 50.1823 79.3177 49.7891 79.4844 49.4453C79.651 49.1016 79.8958 48.8125 80.2188 48.5781C80.5469 48.3385 80.9557 48.1589 81.4453 48.0391C81.9349 47.9141 82.5026 47.8516 83.1484 47.8516H84.4531ZM90.5312 41V53H88.2734V41H90.5312Z" fill="#525252"/>
<path d="M222.398 24.9023V42H219.023V28.793L214.969 30.082V27.4219L222.035 24.9023H222.398ZM239.906 35.625V38.2734H227.613L227.449 36.2227L234.562 24.9375H237.246L234.34 29.8008L230.801 35.625H239.906ZM237.973 24.9375V42H234.598V24.9375H237.973ZM242.004 40.3711C242.004 39.8711 242.176 39.4531 242.52 39.1172C242.871 38.7812 243.336 38.6133 243.914 38.6133C244.492 38.6133 244.953 38.7812 245.297 39.1172C245.648 39.4531 245.824 39.8711 245.824 40.3711C245.824 40.8711 245.648 41.2891 245.297 41.625C244.953 41.9609 244.492 42.1289 243.914 42.1289C243.336 42.1289 242.871 41.9609 242.52 41.625C242.176 41.2891 242.004 40.8711 242.004 40.3711ZM242.004 30.7031C242.004 30.2031 242.176 29.7852 242.52 29.4492C242.871 29.1133 243.336 28.9453 243.914 28.9453C244.492 28.9453 244.953 29.1133 245.297 29.4492C245.648 29.7852 245.824 30.2031 245.824 30.7031C245.824 31.2031 245.648 31.6211 245.297 31.957C244.953 32.293 244.492 32.4609 243.914 32.4609C243.336 32.4609 242.871 32.293 242.52 31.957C242.176 31.6211 242.004 31.2031 242.004 30.7031ZM251.965 32.0039H253.77C254.348 32.0039 254.824 31.9062 255.199 31.7109C255.574 31.5078 255.852 31.2266 256.031 30.8672C256.219 30.5 256.312 30.0742 256.312 29.5898C256.312 29.1523 256.227 28.7656 256.055 28.4297C255.891 28.0859 255.637 27.8203 255.293 27.6328C254.949 27.4375 254.516 27.3398 253.992 27.3398C253.578 27.3398 253.195 27.4219 252.844 27.5859C252.492 27.75 252.211 27.9805 252 28.2773C251.789 28.5742 251.684 28.9336 251.684 29.3555H248.297C248.297 28.418 248.547 27.6016 249.047 26.9062C249.555 26.2109 250.234 25.668 251.086 25.2773C251.938 24.8867 252.875 24.6914 253.898 24.6914C255.055 24.6914 256.066 24.8789 256.934 25.2539C257.801 25.6211 258.477 26.1641 258.961 26.8828C259.445 27.6016 259.688 28.4922 259.688 29.5547C259.688 30.0938 259.562 30.6172 259.312 31.125C259.062 31.625 258.703 32.0781 258.234 32.4844C257.773 32.8828 257.211 33.2031 256.547 33.4453C255.883 33.6797 255.137 33.7969 254.309 33.7969H251.965V32.0039ZM251.965 34.5703V32.8242H254.309C255.238 32.8242 256.055 32.9297 256.758 33.1406C257.461 33.3516 258.051 33.6562 258.527 34.0547C259.004 34.4453 259.363 34.9102 259.605 35.4492C259.848 35.9805 259.969 36.5703 259.969 37.2188C259.969 38.0156 259.816 38.7266 259.512 39.3516C259.207 39.9688 258.777 40.4922 258.223 40.9219C257.676 41.3516 257.035 41.6797 256.301 41.9062C255.566 42.125 254.766 42.2344 253.898 42.2344C253.18 42.2344 252.473 42.1367 251.777 41.9414C251.09 41.7383 250.465 41.4375 249.902 41.0391C249.348 40.6328 248.902 40.125 248.566 39.5156C248.238 38.8984 248.074 38.168 248.074 37.3242H251.461C251.461 37.7617 251.57 38.1523 251.789 38.4961C252.008 38.8398 252.309 39.1094 252.691 39.3047C253.082 39.5 253.516 39.5977 253.992 39.5977C254.531 39.5977 254.992 39.5 255.375 39.3047C255.766 39.1016 256.062 38.8203 256.266 38.4609C256.477 38.0938 256.582 37.668 256.582 37.1836C256.582 36.5586 256.469 36.0586 256.242 35.6836C256.016 35.3008 255.691 35.0195 255.27 34.8398C254.848 34.6602 254.348 34.5703 253.77 34.5703H251.965ZM273.773 31.9688V34.9219C273.773 36.2031 273.637 37.3086 273.363 38.2383C273.09 39.1602 272.695 39.918 272.18 40.5117C271.672 41.0977 271.066 41.5312 270.363 41.8125C269.66 42.0938 268.879 42.2344 268.02 42.2344C267.332 42.2344 266.691 42.1484 266.098 41.9766C265.504 41.7969 264.969 41.5195 264.492 41.1445C264.023 40.7695 263.617 40.2969 263.273 39.7266C262.938 39.1484 262.68 38.4609 262.5 37.6641C262.32 36.8672 262.23 35.9531 262.23 34.9219V31.9688C262.23 30.6875 262.367 29.5898 262.641 28.6758C262.922 27.7539 263.316 27 263.824 26.4141C264.34 25.8281 264.949 25.3984 265.652 25.125C266.355 24.8438 267.137 24.7031 267.996 24.7031C268.684 24.7031 269.32 24.793 269.906 24.9727C270.5 25.1445 271.035 25.4141 271.512 25.7812C271.988 26.1484 272.395 26.6211 272.73 27.1992C273.066 27.7695 273.324 28.4531 273.504 29.25C273.684 30.0391 273.773 30.9453 273.773 31.9688ZM270.387 35.3672V31.5117C270.387 30.8945 270.352 30.3555 270.281 29.8945C270.219 29.4336 270.121 29.043 269.988 28.7227C269.855 28.3945 269.691 28.1289 269.496 27.9258C269.301 27.7227 269.078 27.5742 268.828 27.4805C268.578 27.3867 268.301 27.3398 267.996 27.3398C267.613 27.3398 267.273 27.4141 266.977 27.5625C266.688 27.7109 266.441 27.9492 266.238 28.2773C266.035 28.5977 265.879 29.0273 265.77 29.5664C265.668 30.0977 265.617 30.7461 265.617 31.5117V35.3672C265.617 35.9844 265.648 36.5273 265.711 36.9961C265.781 37.4648 265.883 37.8672 266.016 38.2031C266.156 38.5312 266.32 38.8008 266.508 39.0117C266.703 39.2148 266.926 39.3633 267.176 39.457C267.434 39.5508 267.715 39.5977 268.02 39.5977C268.395 39.5977 268.727 39.5234 269.016 39.375C269.312 39.2188 269.562 38.9766 269.766 38.6484C269.977 38.3125 270.133 37.875 270.234 37.3359C270.336 36.7969 270.387 36.1406 270.387 35.3672Z" fill="black"/>
</svg>
