<svg width="2836" height="512" viewBox="0 0 2836 512" fill="none" xmlns="http://www.w3.org/2000/svg">
<rect x="12.5" y="12.5" width="2811" height="487" rx="77.5" fill="#3B82F6" stroke="black" stroke-width="25"/>
<rect x="105.5" y="105.5" width="340" height="340" rx="47.5" fill="black" stroke="black" stroke-width="25"/>
<rect x="65.5" y="65.5" width="340" height="340" rx="47.5" fill="white" stroke="black" stroke-width="25"/>
<path d="M235 151.667V318.333M318.333 235H151.667" stroke="black" stroke-width="40" stroke-linecap="round" stroke-linejoin="round"/>
<path d="M626.695 393H564.781L565.172 347.297H626.695C642.06 347.297 655.016 343.846 665.562 336.945C676.109 329.914 684.052 319.693 689.391 306.281C694.859 292.87 697.594 276.659 697.594 257.648V243.781C697.594 229.198 696.031 216.372 692.906 205.305C689.911 194.237 685.419 184.927 679.43 177.375C673.44 169.823 666.083 164.159 657.359 160.383C648.635 156.477 638.609 154.523 627.281 154.523H563.609V108.625H627.281C646.292 108.625 663.674 111.88 679.43 118.391C695.315 124.771 709.052 133.951 720.641 145.93C732.229 157.909 741.148 172.232 747.398 188.898C753.779 205.435 756.969 223.859 756.969 244.172V257.648C756.969 277.831 753.779 296.255 747.398 312.922C741.148 329.589 732.229 343.911 720.641 355.891C709.182 367.74 695.445 376.919 679.43 383.43C663.544 389.81 645.966 393 626.695 393ZM597.984 108.625V393H539.391V108.625H597.984ZM893.297 396.906C876.891 396.906 862.177 394.302 849.156 389.094C836.135 383.755 825.068 376.398 815.953 367.023C806.969 357.648 800.068 346.776 795.25 334.406C790.432 321.906 788.023 308.625 788.023 294.562V286.75C788.023 270.734 790.302 256.086 794.859 242.805C799.417 229.523 805.927 218 814.391 208.234C822.984 198.469 833.401 190.982 845.641 185.773C857.88 180.435 871.682 177.766 887.047 177.766C902.021 177.766 915.302 180.24 926.891 185.188C938.479 190.135 948.18 197.167 955.992 206.281C963.935 215.396 969.924 226.333 973.961 239.094C977.997 251.724 980.016 265.786 980.016 281.281V304.719H812.047V267.219H924.742V262.922C924.742 255.109 923.31 248.143 920.445 242.023C917.711 235.773 913.544 230.826 907.945 227.18C902.346 223.534 895.185 221.711 886.461 221.711C879.039 221.711 872.659 223.339 867.32 226.594C861.982 229.849 857.62 234.406 854.234 240.266C850.979 246.125 848.505 253.026 846.812 260.969C845.25 268.781 844.469 277.375 844.469 286.75V294.562C844.469 303.026 845.641 310.839 847.984 318C850.458 325.161 853.909 331.346 858.336 336.555C862.893 341.763 868.362 345.799 874.742 348.664C881.253 351.529 888.609 352.961 896.812 352.961C906.969 352.961 916.409 351.008 925.133 347.102C933.987 343.065 941.604 337.01 947.984 328.938L975.328 358.625C970.901 365.005 964.846 371.125 957.164 376.984C949.612 382.844 940.497 387.661 929.82 391.438C919.143 395.083 906.969 396.906 893.297 396.906ZM1067.12 226.789V393H1010.88V181.672H1063.61L1067.12 226.789ZM1058.92 279.914H1043.69C1043.69 264.289 1045.71 250.227 1049.74 237.727C1053.78 225.096 1059.44 214.354 1066.73 205.5C1074.03 196.516 1082.68 189.68 1092.71 184.992C1102.87 180.174 1114.2 177.766 1126.7 177.766C1136.59 177.766 1145.64 179.198 1153.84 182.062C1162.05 184.927 1169.08 189.484 1174.94 195.734C1180.93 201.984 1185.48 210.253 1188.61 220.539C1191.86 230.826 1193.49 243.391 1193.49 258.234V393H1136.85V258.039C1136.85 248.664 1135.55 241.372 1132.95 236.164C1130.34 230.956 1126.5 227.31 1121.42 225.227C1116.47 223.013 1110.35 221.906 1103.06 221.906C1095.51 221.906 1088.93 223.404 1083.34 226.398C1077.87 229.393 1073.31 233.56 1069.66 238.898C1066.15 244.107 1063.48 250.227 1061.66 257.258C1059.83 264.289 1058.92 271.841 1058.92 279.914ZM1339.78 181.672V221.516H1216.73V181.672H1339.78ZM1247.2 129.523H1303.45V329.328C1303.45 335.448 1304.23 340.135 1305.8 343.391C1307.49 346.646 1309.96 348.924 1313.22 350.227C1316.47 351.398 1320.58 351.984 1325.52 351.984C1329.04 351.984 1332.16 351.854 1334.9 351.594C1337.76 351.203 1340.17 350.812 1342.12 350.422L1342.32 391.828C1337.5 393.391 1332.29 394.628 1326.7 395.539C1321.1 396.451 1314.91 396.906 1308.14 396.906C1295.77 396.906 1284.96 394.888 1275.72 390.852C1266.6 386.685 1259.57 380.044 1254.62 370.93C1249.68 361.815 1247.2 349.836 1247.2 334.992V129.523ZM1485.88 345.344V251.203C1485.88 244.432 1484.77 238.638 1482.55 233.82C1480.34 228.872 1476.89 225.031 1472.2 222.297C1467.65 219.562 1461.72 218.195 1454.43 218.195C1448.18 218.195 1442.78 219.302 1438.22 221.516C1433.66 223.599 1430.15 226.659 1427.67 230.695C1425.2 234.602 1423.96 239.224 1423.96 244.562H1367.71C1367.71 235.578 1369.79 227.049 1373.96 218.977C1378.13 210.904 1384.18 203.807 1392.12 197.688C1400.07 191.438 1409.51 186.555 1420.45 183.039C1431.51 179.523 1443.88 177.766 1457.55 177.766C1473.96 177.766 1488.54 180.5 1501.3 185.969C1514.07 191.438 1524.09 199.641 1531.38 210.578C1538.8 221.516 1542.52 235.188 1542.52 251.594V342.023C1542.52 353.612 1543.23 363.117 1544.66 370.539C1546.1 377.831 1548.18 384.211 1550.91 389.68V393H1494.08C1491.34 387.271 1489.26 380.109 1487.83 371.516C1486.53 362.792 1485.88 354.068 1485.88 345.344ZM1493.3 264.289L1493.69 296.125H1462.24C1454.82 296.125 1448.38 296.971 1442.91 298.664C1437.44 300.357 1432.95 302.766 1429.43 305.891C1425.91 308.885 1423.31 312.401 1421.62 316.438C1420.05 320.474 1419.27 324.901 1419.27 329.719C1419.27 334.536 1420.38 338.898 1422.59 342.805C1424.81 346.581 1428 349.576 1432.16 351.789C1436.33 353.872 1441.21 354.914 1446.81 354.914C1455.28 354.914 1462.63 353.221 1468.88 349.836C1475.13 346.451 1479.95 342.284 1483.34 337.336C1486.85 332.388 1488.67 327.701 1488.8 323.273L1503.65 347.102C1501.57 352.44 1498.7 357.974 1495.05 363.703C1491.54 369.432 1487.05 374.836 1481.58 379.914C1476.11 384.862 1469.53 388.964 1461.85 392.219C1454.17 395.344 1445.05 396.906 1434.51 396.906C1421.1 396.906 1408.92 394.237 1397.98 388.898C1387.18 383.43 1378.58 375.943 1372.2 366.438C1365.95 356.802 1362.83 345.865 1362.83 333.625C1362.83 322.557 1364.91 312.727 1369.08 304.133C1373.24 295.539 1379.36 288.312 1387.44 282.453C1395.64 276.464 1405.86 271.971 1418.1 268.977C1430.34 265.852 1444.53 264.289 1460.68 264.289H1493.3ZM1645.25 93V393H1588.8V93H1645.25ZM1822.4 108.625V393H1764V108.625H1822.4ZM1909.9 108.625V154.523H1677.87V108.625H1909.9ZM1982.36 227.766V393H1926.11V181.672H1979.04L1982.36 227.766ZM2046.03 180.305L2045.05 232.453C2042.32 232.062 2039 231.737 2035.09 231.477C2031.32 231.086 2027.87 230.891 2024.74 230.891C2016.8 230.891 2009.9 231.932 2004.04 234.016C1998.31 235.969 1993.49 238.898 1989.59 242.805C1985.81 246.711 1982.95 251.464 1980.99 257.062C1979.17 262.661 1978.13 269.042 1977.87 276.203L1966.54 272.688C1966.54 259.016 1967.91 246.451 1970.64 234.992C1973.38 223.404 1977.35 213.312 1982.55 204.719C1987.89 196.125 1994.4 189.484 2002.09 184.797C2009.77 180.109 2018.56 177.766 2028.45 177.766C2031.58 177.766 2034.77 178.026 2038.02 178.547C2041.28 178.938 2043.95 179.523 2046.03 180.305ZM2180.02 345.344V251.203C2180.02 244.432 2178.91 238.638 2176.7 233.82C2174.48 228.872 2171.03 225.031 2166.34 222.297C2161.79 219.562 2155.86 218.195 2148.57 218.195C2142.32 218.195 2136.92 219.302 2132.36 221.516C2127.8 223.599 2124.29 226.659 2121.81 230.695C2119.34 234.602 2118.1 239.224 2118.1 244.562H2061.85C2061.85 235.578 2063.93 227.049 2068.1 218.977C2072.27 210.904 2078.32 203.807 2086.27 197.688C2094.21 191.438 2103.65 186.555 2114.59 183.039C2125.65 179.523 2138.02 177.766 2151.7 177.766C2168.1 177.766 2182.68 180.5 2195.45 185.969C2208.21 191.438 2218.23 199.641 2225.52 210.578C2232.95 221.516 2236.66 235.188 2236.66 251.594V342.023C2236.66 353.612 2237.37 363.117 2238.8 370.539C2240.24 377.831 2242.32 384.211 2245.05 389.68V393H2188.22C2185.48 387.271 2183.4 380.109 2181.97 371.516C2180.67 362.792 2180.02 354.068 2180.02 345.344ZM2187.44 264.289L2187.83 296.125H2156.38C2148.96 296.125 2142.52 296.971 2137.05 298.664C2131.58 300.357 2127.09 302.766 2123.57 305.891C2120.05 308.885 2117.45 312.401 2115.76 316.438C2114.2 320.474 2113.41 324.901 2113.41 329.719C2113.41 334.536 2114.52 338.898 2116.73 342.805C2118.95 346.581 2122.14 349.576 2126.3 351.789C2130.47 353.872 2135.35 354.914 2140.95 354.914C2149.42 354.914 2156.77 353.221 2163.02 349.836C2169.27 346.451 2174.09 342.284 2177.48 337.336C2180.99 332.388 2182.82 327.701 2182.95 323.273L2197.79 347.102C2195.71 352.44 2192.84 357.974 2189.2 363.703C2185.68 369.432 2181.19 374.836 2175.72 379.914C2170.25 384.862 2163.67 388.964 2155.99 392.219C2148.31 395.344 2139.2 396.906 2128.65 396.906C2115.24 396.906 2103.06 394.237 2092.12 388.898C2081.32 383.43 2072.72 375.943 2066.34 366.438C2060.09 356.802 2056.97 345.865 2056.97 333.625C2056.97 322.557 2059.05 312.727 2063.22 304.133C2067.39 295.539 2073.51 288.312 2081.58 282.453C2089.78 276.464 2100 271.971 2112.24 268.977C2124.48 265.852 2138.67 264.289 2154.82 264.289H2187.44ZM2367.32 352.961C2374.22 352.961 2380.34 351.659 2385.68 349.055C2391.02 346.32 2395.18 342.544 2398.18 337.727C2401.3 332.779 2402.93 326.984 2403.06 320.344H2455.99C2455.86 335.188 2451.89 348.404 2444.08 359.992C2436.27 371.451 2425.78 380.5 2412.63 387.141C2399.48 393.651 2384.77 396.906 2368.49 396.906C2352.09 396.906 2337.76 394.172 2325.52 388.703C2313.41 383.234 2303.32 375.682 2295.25 366.047C2287.18 356.281 2281.12 344.953 2277.09 332.062C2273.05 319.042 2271.03 305.109 2271.03 290.266V284.602C2271.03 269.628 2273.05 255.695 2277.09 242.805C2281.12 229.784 2287.18 218.456 2295.25 208.82C2303.32 199.055 2313.41 191.438 2325.52 185.969C2337.63 180.5 2351.83 177.766 2368.1 177.766C2385.42 177.766 2400.59 181.086 2413.61 187.727C2426.76 194.367 2437.05 203.872 2444.47 216.242C2452.02 228.482 2455.86 243 2455.99 259.797H2403.06C2402.93 252.766 2401.43 246.385 2398.57 240.656C2395.84 234.927 2391.8 230.37 2386.46 226.984C2381.25 223.469 2374.81 221.711 2367.12 221.711C2358.92 221.711 2352.22 223.469 2347.01 226.984C2341.8 230.37 2337.76 235.057 2334.9 241.047C2332.03 246.906 2330.02 253.612 2328.84 261.164C2327.8 268.586 2327.28 276.398 2327.28 284.602V290.266C2327.28 298.469 2327.8 306.346 2328.84 313.898C2329.89 321.451 2331.84 328.156 2334.7 334.016C2337.7 339.875 2341.8 344.497 2347.01 347.883C2352.22 351.268 2358.99 352.961 2367.32 352.961ZM2544.86 92.8047V393H2488.61V92.8047H2544.86ZM2678.06 181.672L2586.27 286.359L2537.05 336.164L2516.54 295.539L2555.6 245.93L2610.48 181.672H2678.06ZM2619.66 393L2557.16 295.344L2596.03 261.359L2684.51 393H2619.66Z" fill="white"/>
<path d="M564.781 393L554.782 392.915L554.695 403H564.781V393ZM565.172 347.297V337.297H555.257L555.172 347.211L565.172 347.297ZM665.562 336.945L671.038 345.313L671.074 345.29L671.11 345.266L665.562 336.945ZM689.391 306.281L680.131 302.505L680.115 302.544L680.1 302.583L689.391 306.281ZM692.906 205.305L683.253 207.917L683.268 207.969L683.283 208.022L692.906 205.305ZM657.359 160.383L653.273 169.51L653.33 169.535L653.387 169.56L657.359 160.383ZM563.609 154.523H553.609V164.523H563.609V154.523ZM563.609 108.625V98.625H553.609V108.625H563.609ZM679.43 118.391L675.611 127.633L675.657 127.652L675.703 127.67L679.43 118.391ZM720.641 145.93L727.828 138.977L720.641 145.93ZM747.398 188.898L738.035 192.41L738.052 192.454L738.069 192.498L747.398 188.898ZM747.398 312.922L738.059 309.347L738.047 309.379L738.035 309.411L747.398 312.922ZM720.641 355.891L713.453 348.938L713.452 348.939L720.641 355.891ZM679.43 383.43L683.157 392.709L683.176 392.701L683.195 392.694L679.43 383.43ZM597.984 108.625H607.984V98.625H597.984V108.625ZM597.984 393V403H607.984V393H597.984ZM539.391 393H529.391V403H539.391V393ZM539.391 108.625V98.625H529.391V108.625H539.391ZM626.695 383H564.781V403H626.695V383ZM574.781 393.085L575.172 347.382L555.172 347.211L554.782 392.915L574.781 393.085ZM565.172 357.297H626.695V337.297H565.172V357.297ZM626.695 357.297C643.576 357.297 658.538 353.492 671.038 345.313L660.087 328.577C651.493 334.201 640.544 337.297 626.695 337.297V357.297ZM671.11 345.266C683.572 336.958 692.701 325.005 698.682 309.98L680.1 302.583C675.404 314.38 668.647 322.87 660.015 328.625L671.11 345.266ZM698.65 310.057C704.735 295.136 707.594 277.569 707.594 257.648H687.594C687.594 275.748 684.984 290.604 680.131 302.505L698.65 310.057ZM707.594 257.648V243.781H687.594V257.648H707.594ZM707.594 243.781C707.594 228.512 705.961 214.739 702.53 202.587L683.283 208.022C686.102 218.006 687.594 229.883 687.594 243.781H707.594ZM702.559 202.693C699.276 190.558 694.243 179.96 687.265 171.161L671.595 183.589C676.596 189.894 680.547 197.916 683.253 207.917L702.559 202.693ZM687.265 171.161C680.266 162.337 671.589 155.646 661.332 151.206L653.387 169.56C660.577 172.672 666.614 177.309 671.595 183.589L687.265 171.161ZM661.446 151.256C651.221 146.678 639.761 144.523 627.281 144.523V164.523C637.458 164.523 646.05 166.276 653.273 169.51L661.446 151.256ZM627.281 144.523H563.609V164.523H627.281V144.523ZM573.609 154.523V108.625H553.609V154.523H573.609ZM563.609 118.625H627.281V98.625H563.609V118.625ZM627.281 118.625C645.132 118.625 661.199 121.677 675.611 127.633L683.249 109.149C666.15 102.083 647.451 98.625 627.281 98.625V118.625ZM675.703 127.67C690.32 133.541 702.869 141.941 713.453 152.883L727.828 138.977C715.235 125.96 700.31 116.001 683.157 109.111L675.703 127.67ZM713.453 152.883C724.025 163.81 732.234 176.939 738.035 192.41L756.762 185.387C750.063 167.525 740.434 152.008 727.828 138.977L713.453 152.883ZM738.069 192.498C743.946 207.731 746.969 224.913 746.969 244.172H766.969C766.969 222.806 763.611 203.139 756.728 185.299L738.069 192.498ZM746.969 244.172V257.648H766.969V244.172H746.969ZM746.969 257.648C746.969 276.767 743.949 293.961 738.059 309.347L756.738 316.497C763.608 298.55 766.969 278.894 766.969 257.648H746.969ZM738.035 309.411C732.234 324.882 724.025 338.01 713.453 348.938L727.828 362.844C740.434 349.813 750.063 334.296 756.762 316.433L738.035 309.411ZM713.452 348.939C703.008 359.739 690.454 368.153 675.664 374.166L683.195 392.694C700.436 385.685 715.356 375.74 727.829 362.842L713.452 348.939ZM675.703 374.15C661.142 379.998 644.849 383 626.695 383V403C647.083 403 665.947 399.621 683.157 392.709L675.703 374.15ZM587.984 108.625V393H607.984V108.625H587.984ZM597.984 383H539.391V403H597.984V383ZM549.391 393V108.625H529.391V393H549.391ZM539.391 118.625H597.984V98.625H539.391V118.625ZM849.156 389.094L845.363 398.346L845.402 398.363L845.442 398.379L849.156 389.094ZM815.953 367.023L808.733 373.942L808.758 373.968L808.783 373.994L815.953 367.023ZM795.25 334.406L785.919 338.003L785.925 338.019L785.932 338.035L795.25 334.406ZM794.859 242.805L785.401 239.559L794.859 242.805ZM814.391 208.234L806.883 201.628L806.859 201.656L806.834 201.685L814.391 208.234ZM845.641 185.773L849.556 194.975L849.597 194.957L849.639 194.939L845.641 185.773ZM955.992 206.281L948.4 212.789L948.426 212.82L948.453 212.851L955.992 206.281ZM973.961 239.094L964.427 242.11L964.431 242.124L964.436 242.138L973.961 239.094ZM980.016 304.719V314.719H990.016V304.719H980.016ZM812.047 304.719H802.047V314.719H812.047V304.719ZM812.047 267.219V257.219H802.047V267.219H812.047ZM924.742 267.219V277.219H934.742V267.219H924.742ZM920.445 242.023L911.284 246.032L911.335 246.148L911.388 246.263L920.445 242.023ZM854.234 240.266L845.576 235.263L845.534 235.336L845.493 235.409L854.234 240.266ZM846.812 260.969L837.032 258.884L837.019 258.946L837.007 259.008L846.812 260.969ZM847.984 318L838.48 321.11L838.506 321.188L838.532 321.265L847.984 318ZM858.336 336.555L850.717 343.031L850.763 343.086L850.81 343.14L858.336 336.555ZM874.742 348.664L870.646 357.787L870.68 357.802L870.715 357.817L874.742 348.664ZM925.133 347.102L929.219 356.228L929.25 356.215L929.281 356.201L925.133 347.102ZM947.984 328.938L955.34 322.163L947.403 313.546L940.139 322.737L947.984 328.938ZM975.328 358.625L983.544 364.326L988.111 357.743L982.684 351.85L975.328 358.625ZM957.164 376.984L951.1 369.033L951.067 369.058L951.034 369.084L957.164 376.984ZM929.82 391.438L933.052 400.901L933.103 400.883L933.155 400.865L929.82 391.438ZM893.297 386.906C877.95 386.906 864.527 384.472 852.87 379.809L845.442 398.379C859.827 404.132 875.831 406.906 893.297 406.906V386.906ZM852.95 379.841C841.101 374.983 831.209 368.37 823.123 360.053L808.783 373.994C818.926 384.427 831.17 392.527 845.363 398.346L852.95 379.841ZM823.173 360.104C815.118 351.699 808.92 341.951 804.568 330.777L785.932 338.035C791.215 351.601 798.82 363.598 808.733 373.942L823.173 360.104ZM804.581 330.81C800.227 319.514 798.023 307.457 798.023 294.562H778.023C778.023 309.793 780.637 324.299 785.919 338.003L804.581 330.81ZM798.023 294.562V286.75H778.023V294.562H798.023ZM798.023 286.75C798.023 271.686 800.166 258.152 804.318 246.05L785.401 239.559C780.439 254.02 778.023 269.783 778.023 286.75H798.023ZM804.318 246.05C808.495 233.876 814.394 223.499 821.948 214.784L806.834 201.685C797.46 212.501 790.338 225.17 785.401 239.559L804.318 246.05ZM821.898 214.841C829.481 206.224 838.661 199.611 849.556 194.975L841.725 176.572C828.141 182.352 816.488 190.714 806.883 201.628L821.898 214.841ZM849.639 194.939C860.441 190.228 872.852 187.766 887.047 187.766V167.766C870.512 167.766 855.319 170.642 841.643 176.607L849.639 194.939ZM887.047 187.766C900.921 187.766 912.827 190.056 922.964 194.384L930.817 175.991C917.777 170.423 903.121 167.766 887.047 167.766V187.766ZM922.964 194.384C933.212 198.76 941.636 204.899 948.4 212.789L963.585 199.773C954.723 189.435 943.746 181.511 930.817 175.991L922.964 194.384ZM948.453 212.851C955.402 220.825 960.76 230.518 964.427 242.11L983.495 236.078C979.089 222.149 972.468 209.967 963.531 199.711L948.453 212.851ZM964.436 242.138C968.11 253.634 970.016 266.65 970.016 281.281H990.016C990.016 264.923 987.885 249.814 983.486 236.05L964.436 242.138ZM970.016 281.281V304.719H990.016V281.281H970.016ZM980.016 294.719H812.047V314.719H980.016V294.719ZM822.047 304.719V267.219H802.047V304.719H822.047ZM812.047 277.219H924.742V257.219H812.047V277.219ZM934.742 267.219V262.922H914.742V267.219H934.742ZM934.742 262.922C934.742 253.872 933.078 245.423 929.502 237.784L911.388 246.263C913.542 250.864 914.742 256.346 914.742 262.922H934.742ZM929.607 238.015C926.108 230.018 920.672 223.534 913.402 218.8L902.489 235.56C906.416 238.117 909.314 241.529 911.284 246.032L929.607 238.015ZM913.402 218.8C905.751 213.818 896.539 211.711 886.461 211.711V231.711C893.831 231.711 898.941 233.25 902.489 235.56L913.402 218.8ZM886.461 211.711C877.549 211.711 869.293 213.679 862.114 218.056L872.526 235.132C876.025 232.998 880.529 231.711 886.461 231.711V211.711ZM862.114 218.056C855.231 222.253 849.727 228.077 845.576 235.263L862.893 245.268C865.512 240.735 868.732 237.445 872.526 235.132L862.114 218.056ZM845.493 235.409C841.666 242.297 838.89 250.169 837.032 258.884L856.593 263.053C858.121 255.883 860.292 249.953 862.976 245.122L845.493 235.409ZM837.007 259.008C835.295 267.567 834.469 276.829 834.469 286.75H854.469C854.469 277.921 855.205 269.995 856.618 262.93L837.007 259.008ZM834.469 286.75V294.562H854.469V286.75H834.469ZM834.469 294.562C834.469 303.954 835.77 312.83 838.48 321.11L857.488 314.89C855.511 308.848 854.469 302.098 854.469 294.562H834.469ZM838.532 321.265C841.368 329.474 845.402 336.778 850.717 343.031L865.955 330.078C862.416 325.915 859.548 320.848 857.436 314.735L838.532 321.265ZM850.81 343.14C856.325 349.443 862.968 354.339 870.646 357.787L878.838 339.541C873.756 337.26 869.461 334.083 865.862 329.97L850.81 343.14ZM870.715 357.817C878.674 361.319 887.434 362.961 896.812 362.961V342.961C889.785 342.961 883.831 341.738 878.77 339.511L870.715 357.817ZM896.812 362.961C908.288 362.961 919.131 360.746 929.219 356.228L921.046 337.975C913.687 341.27 905.65 342.961 896.812 342.961V362.961ZM929.281 356.201C939.663 351.467 948.523 344.383 955.83 335.138L940.139 322.737C934.685 329.637 928.311 334.663 920.985 338.002L929.281 356.201ZM940.629 335.712L967.973 365.4L982.684 351.85L955.34 322.163L940.629 335.712ZM967.112 352.924C963.405 358.267 958.146 363.659 951.1 369.033L963.229 384.936C971.547 378.591 978.397 371.744 983.544 364.326L967.112 352.924ZM951.034 369.084C944.466 374.18 936.337 378.526 926.486 382.01L933.155 400.865C944.658 396.797 954.758 391.508 963.294 384.885L951.034 369.084ZM926.589 381.974C917.146 385.198 906.095 386.906 893.297 386.906V406.906C907.843 406.906 921.141 404.968 933.052 400.901L926.589 381.974ZM1067.12 226.789H1077.12V226.4L1077.09 226.012L1067.12 226.789ZM1067.12 393V403H1077.12V393H1067.12ZM1010.88 393H1000.88V403H1010.88V393ZM1010.88 181.672V171.672H1000.88V181.672H1010.88ZM1063.61 181.672L1073.58 180.895L1072.86 171.672H1063.61V181.672ZM1058.92 279.914V289.914H1068.92V279.914H1058.92ZM1043.69 279.914H1033.69V289.914H1043.69V279.914ZM1049.74 237.727L1059.26 240.799L1059.26 240.785L1059.27 240.771L1049.74 237.727ZM1066.73 205.5L1074.45 211.857L1074.48 211.829L1074.5 211.802L1066.73 205.5ZM1092.71 184.992L1096.95 194.051L1096.97 194.039L1097 194.027L1092.71 184.992ZM1174.94 195.734L1167.64 202.574L1167.68 202.614L1167.72 202.653L1174.94 195.734ZM1188.61 220.539L1179.04 223.446L1179.06 223.501L1179.08 223.556L1188.61 220.539ZM1193.49 393V403H1203.49V393H1193.49ZM1136.85 393H1126.85V403H1136.85V393ZM1121.42 225.227L1117.34 234.355L1117.48 234.419L1117.63 234.478L1121.42 225.227ZM1083.34 226.398L1078.62 217.581L1078.58 217.604L1078.53 217.627L1083.34 226.398ZM1069.66 238.898L1061.41 233.259L1061.39 233.281L1061.38 233.304L1069.66 238.898ZM1057.12 226.789V393H1077.12V226.789H1057.12ZM1067.12 383H1010.88V403H1067.12V383ZM1020.88 393V181.672H1000.88V393H1020.88ZM1010.88 191.672H1063.61V171.672H1010.88V191.672ZM1053.64 182.449L1057.16 227.566L1077.09 226.012L1073.58 180.895L1053.64 182.449ZM1058.92 269.914H1043.69V289.914H1058.92V269.914ZM1053.69 279.914C1053.69 265.14 1055.6 252.139 1059.26 240.799L1040.23 234.654C1035.81 248.314 1033.69 263.438 1033.69 279.914H1053.69ZM1059.27 240.771C1062.98 229.163 1068.08 219.591 1074.45 211.857L1059.02 199.143C1050.8 209.117 1044.58 221.03 1040.22 234.682L1059.27 240.771ZM1074.5 211.802C1080.88 203.937 1088.35 198.069 1096.95 194.051L1088.48 175.933C1077.02 181.291 1067.17 189.095 1058.97 199.198L1074.5 211.802ZM1097 194.027C1105.67 189.913 1115.51 187.766 1126.7 187.766V167.766C1112.88 167.766 1100.06 170.436 1088.43 175.957L1097 194.027ZM1126.7 187.766C1135.62 187.766 1143.54 189.056 1150.55 191.503L1157.14 172.622C1147.74 169.339 1137.56 167.766 1126.7 167.766V187.766ZM1150.55 191.503C1157.25 193.844 1162.9 197.518 1167.64 202.574L1182.23 188.895C1175.25 181.451 1166.84 176.01 1157.14 172.622L1150.55 191.503ZM1167.72 202.653C1172.39 207.528 1176.26 214.306 1179.04 223.446L1198.18 217.632C1194.7 206.199 1189.47 196.441 1182.16 188.815L1167.72 202.653ZM1179.08 223.556C1181.93 232.577 1183.49 244.059 1183.49 258.234H1203.49C1203.49 242.723 1201.8 229.074 1198.14 217.522L1179.08 223.556ZM1183.49 258.234V393H1203.49V258.234H1183.49ZM1193.49 383H1136.85V403H1193.49V383ZM1146.85 393V258.039H1126.85V393H1146.85ZM1146.85 258.039C1146.85 247.954 1145.49 238.885 1141.89 231.692L1124 240.636C1125.61 243.86 1126.85 249.374 1126.85 258.039H1146.85ZM1141.89 231.692C1138.28 224.463 1132.68 219.035 1125.22 215.975L1117.63 234.478C1120.32 235.584 1122.41 237.448 1124 240.636L1141.89 231.692ZM1125.51 216.098C1118.91 213.148 1111.3 211.906 1103.06 211.906V231.906C1109.41 231.906 1114.04 232.878 1117.34 234.355L1125.51 216.098ZM1103.06 211.906C1094.18 211.906 1085.92 213.675 1078.62 217.581L1088.05 235.216C1091.95 233.132 1096.85 231.906 1103.06 231.906V211.906ZM1078.53 217.627C1071.63 221.408 1065.91 226.668 1061.41 233.259L1077.92 244.538C1080.71 240.451 1084.1 237.379 1088.14 235.169L1078.53 217.627ZM1061.38 233.304C1057.13 239.588 1054.04 246.785 1051.98 254.748L1071.34 259.767C1072.92 253.668 1075.16 248.625 1077.95 244.493L1061.38 233.304ZM1051.98 254.748C1049.92 262.684 1048.92 271.087 1048.92 279.914H1068.92C1068.92 272.595 1069.75 265.894 1071.34 259.767L1051.98 254.748ZM1339.78 181.672H1349.78V171.672H1339.78V181.672ZM1339.78 221.516V231.516H1349.78V221.516H1339.78ZM1216.73 221.516H1206.73V231.516H1216.73V221.516ZM1216.73 181.672V171.672H1206.73V181.672H1216.73ZM1247.2 129.523V119.523H1237.2V129.523H1247.2ZM1303.45 129.523H1313.45V119.523H1303.45V129.523ZM1305.8 343.391L1296.78 347.718L1296.85 347.862L1296.92 348.004L1305.8 343.391ZM1313.22 350.227L1309.5 359.511L1309.67 359.576L1309.83 359.635L1313.22 350.227ZM1334.9 351.594L1335.85 361.549L1336.05 361.529L1336.25 361.502L1334.9 351.594ZM1342.12 350.422L1352.12 350.375L1352.07 338.235L1340.16 340.616L1342.12 350.422ZM1342.32 391.828L1345.41 401.34L1352.35 399.087L1352.32 391.781L1342.32 391.828ZM1326.7 395.539L1325.09 385.669L1326.7 395.539ZM1275.72 390.852L1271.56 399.946L1271.64 399.982L1271.72 400.016L1275.72 390.852ZM1329.78 181.672V221.516H1349.78V181.672H1329.78ZM1339.78 211.516H1216.73V231.516H1339.78V211.516ZM1226.73 221.516V181.672H1206.73V221.516H1226.73ZM1216.73 191.672H1339.78V171.672H1216.73V191.672ZM1247.2 139.523H1303.45V119.523H1247.2V139.523ZM1293.45 129.523V329.328H1313.45V129.523H1293.45ZM1293.45 329.328C1293.45 336.042 1294.27 342.483 1296.78 347.718L1314.81 339.063C1314.2 337.788 1313.45 334.854 1313.45 329.328H1293.45ZM1296.92 348.004C1299.67 353.276 1303.92 357.276 1309.5 359.511L1316.93 340.942C1316.01 340.573 1315.31 340.015 1314.67 338.777L1296.92 348.004ZM1309.83 359.635C1314.53 361.327 1319.88 361.984 1325.52 361.984V341.984C1321.28 341.984 1318.42 341.469 1316.61 340.818L1309.83 359.635ZM1325.52 361.984C1329.27 361.984 1332.72 361.846 1335.85 361.549L1333.95 341.639C1331.6 341.862 1328.81 341.984 1325.52 341.984V361.984ZM1336.25 361.502C1339.24 361.095 1341.86 360.672 1344.09 360.228L1340.16 340.616C1338.48 340.953 1336.29 341.311 1333.55 341.685L1336.25 361.502ZM1332.13 350.469L1332.32 391.875L1352.32 391.781L1352.12 350.375L1332.13 350.469ZM1339.24 382.316C1334.95 383.704 1330.24 384.83 1325.09 385.669L1328.3 405.409C1334.34 404.426 1340.05 403.077 1345.41 401.34L1339.24 382.316ZM1325.09 385.669C1320.11 386.479 1314.47 386.906 1308.14 386.906V406.906C1315.35 406.906 1322.08 406.422 1328.3 405.409L1325.09 385.669ZM1308.14 386.906C1296.84 386.906 1287.45 385.063 1279.72 381.687L1271.72 400.016C1282.48 404.713 1294.7 406.906 1308.14 406.906V386.906ZM1279.88 381.757C1272.81 378.525 1267.37 373.439 1263.41 366.159L1245.84 375.701C1251.78 386.649 1260.4 394.845 1271.56 399.946L1279.88 381.757ZM1263.41 366.159C1259.53 359.005 1257.2 348.843 1257.2 334.992H1237.2C1237.2 350.828 1239.82 364.626 1245.84 375.701L1263.41 366.159ZM1257.2 334.992V129.523H1237.2V334.992H1257.2ZM1482.55 233.82L1473.43 237.904L1473.45 237.95L1473.47 237.995L1482.55 233.82ZM1472.2 222.297L1467.06 230.872L1467.11 230.904L1467.16 230.935L1472.2 222.297ZM1438.22 221.516L1442.38 230.61L1442.48 230.562L1442.59 230.511L1438.22 221.516ZM1427.67 230.695L1436.12 236.046L1436.16 235.984L1436.2 235.921L1427.67 230.695ZM1423.96 244.562V254.562H1433.96V244.562H1423.96ZM1367.71 244.562H1357.71V254.562H1367.71V244.562ZM1373.96 218.977L1365.07 214.39L1373.96 218.977ZM1392.12 197.688L1398.23 205.609L1398.27 205.578L1398.31 205.546L1392.12 197.688ZM1420.45 183.039L1417.42 173.508L1417.4 173.514L1417.39 173.519L1420.45 183.039ZM1531.38 210.578L1523.06 216.125L1523.09 216.159L1523.11 216.193L1531.38 210.578ZM1544.66 370.539L1534.85 372.434L1534.85 372.45L1534.85 372.467L1544.66 370.539ZM1550.91 389.68H1560.91V387.319L1559.86 385.208L1550.91 389.68ZM1550.91 393V403H1560.91V393H1550.91ZM1494.08 393L1485.05 397.307L1487.77 403H1494.08V393ZM1487.83 371.516L1477.94 372.992L1477.95 373.076L1477.96 373.16L1487.83 371.516ZM1493.3 264.289L1503.3 264.166L1503.17 254.289H1493.3V264.289ZM1493.69 296.125V306.125H1503.81L1503.69 296.002L1493.69 296.125ZM1429.43 305.891L1435.91 313.503L1435.99 313.435L1436.07 313.365L1429.43 305.891ZM1421.62 316.438L1412.4 312.57L1412.34 312.698L1412.29 312.828L1421.62 316.438ZM1422.59 342.805L1413.89 347.735L1413.93 347.799L1413.97 347.862L1422.59 342.805ZM1432.16 351.789L1427.47 360.62L1427.58 360.678L1427.69 360.733L1432.16 351.789ZM1483.34 337.336L1475.18 331.544L1475.13 331.616L1475.08 331.689L1483.34 337.336ZM1488.8 323.273L1497.29 317.986L1479.78 289.878L1478.81 322.979L1488.8 323.273ZM1503.65 347.102L1512.96 350.737L1514.79 346.068L1512.14 341.814L1503.65 347.102ZM1495.05 363.703L1486.62 358.334L1486.57 358.403L1486.53 358.473L1495.05 363.703ZM1481.58 379.914L1488.29 387.329L1488.34 387.286L1488.38 387.242L1481.58 379.914ZM1461.85 392.219L1465.62 401.482L1465.69 401.454L1465.75 401.426L1461.85 392.219ZM1397.98 388.898L1393.47 397.821L1393.53 397.854L1393.6 397.885L1397.98 388.898ZM1372.2 366.438L1363.81 371.879L1363.86 371.945L1363.9 372.011L1372.2 366.438ZM1387.44 282.453L1393.31 290.546L1393.32 290.538L1393.33 290.529L1387.44 282.453ZM1418.1 268.977L1420.48 278.69L1420.53 278.678L1420.58 278.666L1418.1 268.977ZM1495.88 345.344V251.203H1475.88V345.344H1495.88ZM1495.88 251.203C1495.88 243.376 1494.6 236.083 1491.64 229.645L1473.47 237.995C1474.94 241.194 1475.88 245.488 1475.88 251.203H1495.88ZM1491.68 229.737C1488.61 222.878 1483.73 217.445 1477.24 213.659L1467.16 230.935C1470.05 232.617 1472.07 234.867 1473.43 237.904L1491.68 229.737ZM1477.35 213.722C1470.76 209.77 1462.89 208.195 1454.43 208.195V228.195C1460.56 228.195 1464.53 229.355 1467.06 230.872L1477.35 213.722ZM1454.43 208.195C1447.01 208.195 1440.05 209.509 1433.85 212.521L1442.59 230.511C1445.5 229.095 1449.35 228.195 1454.43 228.195V208.195ZM1434.06 212.421C1427.81 215.28 1422.72 219.636 1419.15 225.47L1436.2 235.921C1437.57 233.681 1439.52 231.918 1442.38 230.61L1434.06 212.421ZM1419.22 225.345C1415.59 231.087 1413.96 237.629 1413.96 244.562H1433.96C1433.96 240.819 1434.81 238.116 1436.12 236.046L1419.22 225.345ZM1423.96 234.562H1367.71V254.562H1423.96V234.562ZM1377.71 244.562C1377.71 237.192 1379.4 230.234 1382.85 223.563L1365.07 214.39C1360.18 223.865 1357.71 233.964 1357.71 244.562H1377.71ZM1382.85 223.563C1386.27 216.922 1391.32 210.928 1398.23 205.609L1386.02 189.766C1377.04 196.687 1369.98 204.885 1365.07 214.39L1382.85 223.563ZM1398.31 205.546C1405.2 200.125 1413.55 195.76 1423.51 192.559L1417.39 173.519C1405.47 177.349 1394.94 182.75 1385.94 189.829L1398.31 205.546ZM1423.47 192.57C1433.41 189.415 1444.73 187.766 1457.55 187.766V167.766C1443.03 167.766 1429.62 169.632 1417.42 173.508L1423.47 192.57ZM1457.55 187.766C1472.85 187.766 1486.05 190.313 1497.37 195.16L1505.24 176.777C1491.03 170.687 1475.07 167.766 1457.55 167.766V187.766ZM1497.37 195.16C1508.45 199.91 1516.91 206.894 1523.06 216.125L1539.7 205.031C1531.27 192.387 1519.68 182.965 1505.24 176.777L1497.37 195.16ZM1523.11 216.193C1529.16 225.113 1532.52 236.704 1532.52 251.594H1552.52C1552.52 233.671 1548.45 217.918 1539.66 204.963L1523.11 216.193ZM1532.52 251.594V342.023H1552.52V251.594H1532.52ZM1532.52 342.023C1532.52 353.95 1533.25 364.151 1534.85 372.434L1554.48 368.644C1553.22 362.083 1552.52 353.274 1552.52 342.023H1532.52ZM1534.85 372.467C1536.42 380.459 1538.76 387.727 1541.97 394.152L1559.86 385.208C1557.6 380.695 1555.77 375.202 1554.48 368.612L1534.85 372.467ZM1540.91 389.68V393H1560.91V389.68H1540.91ZM1550.91 383H1494.08V403H1550.91V383ZM1503.1 388.693C1500.89 384.055 1499.02 377.86 1497.69 369.872L1477.96 373.16C1479.5 382.359 1481.8 390.486 1485.05 397.307L1503.1 388.693ZM1497.72 370.039C1496.49 361.799 1495.88 353.568 1495.88 345.344H1475.88C1475.88 354.567 1476.56 363.785 1477.94 372.992L1497.72 370.039ZM1483.3 264.412L1483.69 296.248L1503.69 296.002L1503.3 264.166L1483.3 264.412ZM1493.69 286.125H1462.24V306.125H1493.69V286.125ZM1462.24 286.125C1454.1 286.125 1446.61 287.049 1439.95 289.111L1445.86 308.217C1450.14 306.893 1455.54 306.125 1462.24 306.125V286.125ZM1439.95 289.111C1433.41 291.136 1427.57 294.161 1422.79 298.417L1436.07 313.365C1438.32 311.37 1441.47 309.577 1445.86 308.217L1439.95 289.111ZM1422.95 298.278C1418.3 302.232 1414.73 307.008 1412.4 312.57L1430.84 320.305C1431.89 317.794 1433.52 315.539 1435.91 313.503L1422.95 298.278ZM1412.29 312.828C1410.24 318.138 1409.27 323.806 1409.27 329.719H1429.27C1429.27 325.996 1429.87 322.809 1430.94 320.047L1412.29 312.828ZM1409.27 329.719C1409.27 336.134 1410.77 342.216 1413.89 347.735L1431.29 337.875C1429.99 335.581 1429.27 332.939 1429.27 329.719H1409.27ZM1413.97 347.862C1417.19 353.361 1421.8 357.608 1427.47 360.62L1436.86 342.958C1434.19 341.543 1432.42 339.801 1431.22 337.747L1413.97 347.862ZM1427.69 360.733C1433.5 363.637 1439.97 364.914 1446.81 364.914V344.914C1442.46 344.914 1439.16 344.107 1436.64 342.845L1427.69 360.733ZM1446.81 364.914C1456.62 364.914 1465.68 362.945 1473.65 358.629L1464.12 341.043C1459.59 343.498 1453.93 344.914 1446.81 344.914V364.914ZM1473.65 358.629C1481.03 354.627 1487.15 349.464 1491.59 342.983L1475.08 331.689C1472.75 335.104 1469.23 338.274 1464.12 341.043L1473.65 358.629ZM1491.49 343.128C1495.74 337.149 1498.59 330.576 1498.8 323.567L1478.81 322.979C1478.75 324.825 1477.97 327.627 1475.18 331.544L1491.49 343.128ZM1480.32 328.561L1495.16 352.389L1512.14 341.814L1497.29 317.986L1480.32 328.561ZM1494.33 343.466C1492.52 348.101 1489.98 353.056 1486.62 358.334L1503.49 369.072C1507.42 362.892 1510.61 356.779 1512.96 350.737L1494.33 343.466ZM1486.53 358.473C1483.54 363.348 1479.65 368.059 1474.77 372.586L1488.38 387.242C1494.44 381.613 1499.54 375.516 1503.58 368.933L1486.53 358.473ZM1474.87 372.499C1470.33 376.605 1464.74 380.136 1457.95 383.011L1465.75 401.426C1474.33 397.791 1481.89 393.119 1488.29 387.329L1474.87 372.499ZM1458.08 382.956C1451.87 385.481 1444.1 386.906 1434.51 386.906V406.906C1446.01 406.906 1456.46 405.206 1465.62 401.482L1458.08 382.956ZM1434.51 386.906C1422.46 386.906 1411.81 384.518 1402.37 379.912L1393.6 397.885C1406.04 403.956 1419.73 406.906 1434.51 406.906V386.906ZM1402.5 379.976C1393.13 375.234 1385.88 368.864 1380.51 360.864L1363.9 372.011C1371.29 383.022 1381.23 391.625 1393.47 397.821L1402.5 379.976ZM1380.59 360.996C1375.46 353.089 1372.83 344.066 1372.83 333.625H1352.83C1352.83 347.663 1356.44 360.516 1363.81 371.879L1380.59 360.996ZM1372.83 333.625C1372.83 323.829 1374.67 315.529 1378.08 308.496L1360.08 299.77C1355.16 309.924 1352.83 321.286 1352.83 333.625H1372.83ZM1378.08 308.496C1381.49 301.45 1386.51 295.483 1393.31 290.546L1381.56 274.36C1372.22 281.142 1365 289.628 1360.08 299.77L1378.08 308.496ZM1393.33 290.529C1400.26 285.471 1409.21 281.447 1420.48 278.69L1415.72 259.263C1402.51 262.496 1391.02 267.456 1381.54 274.377L1393.33 290.529ZM1420.58 278.666C1431.82 275.795 1445.15 274.289 1460.68 274.289V254.289C1443.92 254.289 1428.86 255.908 1415.63 259.287L1420.58 278.666ZM1460.68 274.289H1493.3V254.289H1460.68V274.289ZM1645.25 93H1655.25V83H1645.25V93ZM1645.25 393V403H1655.25V393H1645.25ZM1588.8 393H1578.8V403H1588.8V393ZM1588.8 93V83H1578.8V93H1588.8ZM1635.25 93V393H1655.25V93H1635.25ZM1645.25 383H1588.8V403H1645.25V383ZM1598.8 393V93H1578.8V393H1598.8ZM1588.8 103H1645.25V83H1588.8V103ZM1822.4 108.625H1832.4V98.625H1822.4V108.625ZM1822.4 393V403H1832.4V393H1822.4ZM1764 393H1754V403H1764V393ZM1764 108.625V98.625H1754V108.625H1764ZM1909.9 108.625H1919.9V98.625H1909.9V108.625ZM1909.9 154.523V164.523H1919.9V154.523H1909.9ZM1677.87 154.523H1667.87V164.523H1677.87V154.523ZM1677.87 108.625V98.625H1667.87V108.625H1677.87ZM1812.4 108.625V393H1832.4V108.625H1812.4ZM1822.4 383H1764V403H1822.4V383ZM1774 393V108.625H1754V393H1774ZM1764 118.625H1822.4V98.625H1764V118.625ZM1899.9 108.625V154.523H1919.9V108.625H1899.9ZM1909.9 144.523H1677.87V164.523H1909.9V144.523ZM1687.87 154.523V108.625H1667.87V154.523H1687.87ZM1677.87 118.625H1909.9V98.625H1677.87V118.625ZM1982.36 227.766H1992.36V227.406L1992.33 227.047L1982.36 227.766ZM1982.36 393V403H1992.36V393H1982.36ZM1926.11 393H1916.11V403H1926.11V393ZM1926.11 181.672V171.672H1916.11V181.672H1926.11ZM1979.04 181.672L1989.01 180.953L1988.34 171.672H1979.04V181.672ZM2046.03 180.305L2056.03 180.492L2056.16 173.424L2049.54 170.941L2046.03 180.305ZM2045.05 232.453L2043.64 242.353L2054.84 243.953L2055.05 232.64L2045.05 232.453ZM2035.09 231.477L2034.06 241.423L2034.25 241.442L2034.43 241.454L2035.09 231.477ZM2004.04 234.016L2007.27 243.481L2007.33 243.46L2007.39 243.438L2004.04 234.016ZM1989.59 242.805L1982.51 235.734L1982.45 235.794L1982.4 235.854L1989.59 242.805ZM1980.99 257.062L1971.55 253.769L1971.52 253.867L1971.48 253.967L1980.99 257.062ZM1977.87 276.203L1974.9 285.754L1987.39 289.628L1987.86 276.567L1977.87 276.203ZM1966.54 272.688H1956.54V280.055L1963.58 282.238L1966.54 272.688ZM1970.64 234.992L1980.37 237.313L1980.37 237.301L1980.37 237.289L1970.64 234.992ZM1982.55 204.719L1974.06 199.442L1974.03 199.489L1974 199.536L1982.55 204.719ZM2002.09 184.797L1996.88 176.26L2002.09 184.797ZM2038.02 178.547L2036.44 188.421L2036.64 188.452L2036.83 188.476L2038.02 178.547ZM1972.36 227.766V393H1992.36V227.766H1972.36ZM1982.36 383H1926.11V403H1982.36V383ZM1936.11 393V181.672H1916.11V393H1936.11ZM1926.11 191.672H1979.04V171.672H1926.11V191.672ZM1969.06 182.39L1972.39 228.484L1992.33 227.047L1989.01 180.953L1969.06 182.39ZM2036.03 180.117L2035.06 232.266L2055.05 232.64L2056.03 180.492L2036.03 180.117ZM2046.47 222.554C2043.41 222.116 2039.82 221.77 2035.76 221.499L2034.43 241.454C2038.18 241.704 2041.23 242.009 2043.64 242.353L2046.47 222.554ZM2036.12 221.53C2032.07 221.111 2028.27 220.891 2024.74 220.891V240.891C2027.46 240.891 2030.56 241.061 2034.06 241.423L2036.12 221.53ZM2024.74 220.891C2015.96 220.891 2007.88 222.038 2000.69 224.593L2007.39 243.438C2011.92 241.826 2017.64 240.891 2024.74 240.891V220.891ZM2000.81 224.551C1993.78 226.949 1987.6 230.645 1982.51 235.734L1996.66 249.876C1999.38 247.151 2002.84 244.988 2007.27 243.481L2000.81 224.551ZM1982.4 235.854C1977.52 240.894 1973.94 246.929 1971.55 253.769L1990.43 260.356C1991.95 255.998 1994.1 252.528 1996.78 249.755L1982.4 235.854ZM1971.48 253.967C1969.32 260.616 1968.16 267.943 1967.87 275.84L1987.86 276.567C1988.09 270.14 1989.02 264.706 1990.5 260.158L1971.48 253.967ZM1980.83 266.652L1969.5 263.137L1963.58 282.238L1974.9 285.754L1980.83 266.652ZM1976.54 272.688C1976.54 259.676 1977.84 247.901 1980.37 237.313L1960.91 232.671C1957.97 245 1956.54 258.356 1956.54 272.688H1976.54ZM1980.37 237.289C1982.91 226.535 1986.53 217.453 1991.11 209.902L1974 199.536C1968.16 209.172 1963.84 220.272 1960.91 232.696L1980.37 237.289ZM1991.05 209.996C1995.67 202.564 2001.11 197.11 2007.29 193.333L1996.88 176.26C1987.7 181.859 1980.12 189.686 1974.06 199.442L1991.05 209.996ZM2007.29 193.333C2013.25 189.697 2020.21 187.766 2028.45 187.766V167.766C2016.91 167.766 2006.28 170.522 1996.88 176.26L2007.29 193.333ZM2028.45 187.766C2031.02 187.766 2033.68 187.979 2036.44 188.421L2039.6 168.672C2035.85 168.073 2032.14 167.766 2028.45 167.766V187.766ZM2036.83 188.476C2039.63 188.811 2041.45 189.265 2042.52 189.668L2049.54 170.941C2046.45 169.782 2042.93 169.064 2039.21 168.618L2036.83 188.476ZM2176.7 233.82L2167.57 237.904L2167.59 237.95L2167.61 237.995L2176.7 233.82ZM2166.34 222.297L2161.2 230.872L2161.25 230.904L2161.31 230.935L2166.34 222.297ZM2132.36 221.516L2136.52 230.61L2136.62 230.562L2136.73 230.511L2132.36 221.516ZM2121.81 230.695L2130.26 236.046L2130.3 235.984L2130.34 235.921L2121.81 230.695ZM2118.1 244.562V254.562H2128.1V244.562H2118.1ZM2061.85 244.562H2051.85V254.562H2061.85V244.562ZM2068.1 218.977L2059.22 214.39L2068.1 218.977ZM2086.27 197.688L2092.37 205.609L2092.41 205.578L2092.45 205.546L2086.27 197.688ZM2114.59 183.039L2111.56 173.508L2111.54 173.514L2111.53 173.519L2114.59 183.039ZM2225.52 210.578L2217.2 216.125L2217.23 216.159L2217.25 216.193L2225.52 210.578ZM2238.8 370.539L2228.99 372.434L2228.99 372.45L2228.99 372.467L2238.8 370.539ZM2245.05 389.68H2255.05V387.319L2254 385.208L2245.05 389.68ZM2245.05 393V403H2255.05V393H2245.05ZM2188.22 393L2179.19 397.307L2181.91 403H2188.22V393ZM2181.97 371.516L2172.08 372.992L2172.09 373.076L2172.1 373.16L2181.97 371.516ZM2187.44 264.289L2197.44 264.166L2197.32 254.289H2187.44V264.289ZM2187.83 296.125V306.125H2197.95L2197.83 296.002L2187.83 296.125ZM2123.57 305.891L2130.05 313.503L2130.14 313.435L2130.21 313.365L2123.57 305.891ZM2115.76 316.438L2106.54 312.57L2106.48 312.698L2106.43 312.828L2115.76 316.438ZM2116.73 342.805L2108.03 347.735L2108.07 347.799L2108.11 347.862L2116.73 342.805ZM2126.3 351.789L2121.61 360.62L2121.72 360.678L2121.83 360.733L2126.3 351.789ZM2177.48 337.336L2169.32 331.544L2169.27 331.616L2169.22 331.689L2177.48 337.336ZM2182.95 323.273L2191.43 317.986L2173.92 289.878L2172.95 322.979L2182.95 323.273ZM2197.79 347.102L2207.1 350.737L2208.93 346.068L2206.28 341.814L2197.79 347.102ZM2189.2 363.703L2180.76 358.334L2180.71 358.403L2180.67 358.473L2189.2 363.703ZM2175.72 379.914L2182.43 387.329L2182.48 387.286L2182.52 387.242L2175.72 379.914ZM2155.99 392.219L2159.76 401.482L2159.83 401.454L2159.89 401.426L2155.99 392.219ZM2092.12 388.898L2087.61 397.821L2087.67 397.854L2087.74 397.885L2092.12 388.898ZM2066.34 366.438L2057.95 371.879L2058 371.945L2058.04 372.011L2066.34 366.438ZM2081.58 282.453L2087.45 290.546L2087.46 290.538L2087.48 290.529L2081.58 282.453ZM2112.24 268.977L2114.62 278.69L2114.67 278.678L2114.72 278.666L2112.24 268.977ZM2190.02 345.344V251.203H2170.02V345.344H2190.02ZM2190.02 251.203C2190.02 243.376 2188.74 236.083 2185.78 229.645L2167.61 237.995C2169.08 241.194 2170.02 245.488 2170.02 251.203H2190.02ZM2185.82 229.737C2182.76 222.878 2177.87 217.445 2171.38 213.659L2161.31 230.935C2164.19 232.617 2166.21 234.867 2167.57 237.904L2185.82 229.737ZM2171.49 213.722C2164.9 209.77 2157.03 208.195 2148.57 208.195V228.195C2154.7 228.195 2158.67 229.355 2161.2 230.872L2171.49 213.722ZM2148.57 208.195C2141.15 208.195 2134.19 209.509 2127.99 212.521L2136.73 230.511C2139.64 229.095 2143.49 228.195 2148.57 228.195V208.195ZM2128.2 212.421C2121.95 215.28 2116.86 219.636 2113.29 225.47L2130.34 235.921C2131.71 233.681 2133.66 231.918 2136.52 230.61L2128.2 212.421ZM2113.36 225.345C2109.73 231.087 2108.1 237.629 2108.1 244.562H2128.1C2128.1 240.819 2128.95 238.116 2130.26 236.046L2113.36 225.345ZM2118.1 234.562H2061.85V254.562H2118.1V234.562ZM2071.85 244.562C2071.85 237.192 2073.54 230.234 2076.99 223.563L2059.22 214.39C2054.33 223.865 2051.85 233.964 2051.85 244.562H2071.85ZM2076.99 223.563C2080.42 216.922 2085.47 210.928 2092.37 205.609L2080.16 189.766C2071.18 196.687 2064.12 204.885 2059.22 214.39L2076.99 223.563ZM2092.45 205.546C2099.34 200.125 2107.69 195.76 2117.65 192.559L2111.53 173.519C2099.61 177.349 2089.08 182.75 2080.08 189.829L2092.45 205.546ZM2117.61 192.57C2127.55 189.415 2138.87 187.766 2151.7 187.766V167.766C2137.17 167.766 2123.76 169.632 2111.56 173.508L2117.61 192.57ZM2151.7 187.766C2166.99 187.766 2180.2 190.313 2191.51 195.16L2199.38 176.777C2185.17 170.687 2169.21 167.766 2151.7 167.766V187.766ZM2191.51 195.16C2202.59 199.91 2211.05 206.894 2217.2 216.125L2233.84 205.031C2225.41 192.387 2213.82 182.965 2199.38 176.777L2191.51 195.16ZM2217.25 216.193C2223.3 225.113 2226.66 236.704 2226.66 251.594H2246.66C2246.66 233.671 2242.59 217.918 2233.8 204.963L2217.25 216.193ZM2226.66 251.594V342.023H2246.66V251.594H2226.66ZM2226.66 342.023C2226.66 353.95 2227.39 364.151 2228.99 372.434L2248.62 368.644C2247.36 362.083 2246.66 353.274 2246.66 342.023H2226.66ZM2228.99 372.467C2230.56 380.459 2232.9 387.727 2236.11 394.152L2254 385.208C2251.74 380.695 2249.91 375.202 2248.62 368.612L2228.99 372.467ZM2235.05 389.68V393H2255.05V389.68H2235.05ZM2245.05 383H2188.22V403H2245.05V383ZM2197.24 388.693C2195.03 384.055 2193.16 377.86 2191.83 369.872L2172.1 373.16C2173.64 382.359 2175.94 390.486 2179.19 397.307L2197.24 388.693ZM2191.86 370.039C2190.63 361.799 2190.02 353.568 2190.02 345.344H2170.02C2170.02 354.567 2170.7 363.785 2172.08 372.992L2191.86 370.039ZM2177.44 264.412L2177.83 296.248L2197.83 296.002L2197.44 264.166L2177.44 264.412ZM2187.83 286.125H2156.38V306.125H2187.83V286.125ZM2156.38 286.125C2148.24 286.125 2140.75 287.049 2134.09 289.111L2140 308.217C2144.28 306.893 2149.68 306.125 2156.38 306.125V286.125ZM2134.09 289.111C2127.55 291.136 2121.71 294.161 2116.93 298.417L2130.21 313.365C2132.46 311.37 2135.61 309.577 2140 308.217L2134.09 289.111ZM2117.09 298.278C2112.44 302.232 2108.87 307.008 2106.54 312.57L2124.98 320.305C2126.03 317.794 2127.67 315.539 2130.05 313.503L2117.09 298.278ZM2106.43 312.828C2104.38 318.138 2103.41 323.806 2103.41 329.719H2123.41C2123.41 325.996 2124.01 322.809 2125.08 320.047L2106.43 312.828ZM2103.41 329.719C2103.41 336.134 2104.91 342.216 2108.03 347.735L2125.43 337.875C2124.14 335.581 2123.41 332.939 2123.41 329.719H2103.41ZM2108.11 347.862C2111.33 353.361 2115.94 357.608 2121.61 360.62L2131 342.958C2128.33 341.543 2126.56 339.801 2125.36 337.747L2108.11 347.862ZM2121.83 360.733C2127.64 363.637 2134.11 364.914 2140.95 364.914V344.914C2136.6 344.914 2133.3 344.107 2130.78 342.845L2121.83 360.733ZM2140.95 364.914C2150.76 364.914 2159.82 362.945 2167.79 358.629L2158.26 341.043C2153.73 343.498 2148.07 344.914 2140.95 344.914V364.914ZM2167.79 358.629C2175.18 354.627 2181.29 349.464 2185.73 342.983L2169.22 331.689C2166.89 335.104 2163.37 338.274 2158.26 341.043L2167.79 358.629ZM2185.63 343.128C2189.88 337.149 2192.73 330.576 2192.94 323.567L2172.95 322.979C2172.9 324.825 2172.11 327.627 2169.32 331.544L2185.63 343.128ZM2174.46 328.561L2189.3 352.389L2206.28 341.814L2191.43 317.986L2174.46 328.561ZM2188.47 343.466C2186.66 348.101 2184.12 353.056 2180.76 358.334L2197.63 369.072C2201.56 362.892 2204.75 356.779 2207.1 350.737L2188.47 343.466ZM2180.67 358.473C2177.68 363.348 2173.79 368.059 2168.91 372.586L2182.52 387.242C2188.59 381.613 2193.68 375.516 2197.72 368.933L2180.67 358.473ZM2169.01 372.499C2164.47 376.605 2158.88 380.136 2152.09 383.011L2159.89 401.426C2168.47 397.791 2176.03 393.119 2182.43 387.329L2169.01 372.499ZM2152.22 382.956C2146.02 385.481 2138.24 386.906 2128.65 386.906V406.906C2140.15 406.906 2150.6 405.206 2159.76 401.482L2152.22 382.956ZM2128.65 386.906C2116.6 386.906 2105.95 384.518 2096.51 379.912L2087.74 397.885C2100.18 403.956 2113.87 406.906 2128.65 406.906V386.906ZM2096.64 379.976C2087.27 375.234 2080.02 368.864 2074.65 360.864L2058.04 372.011C2065.43 383.022 2075.37 391.625 2087.61 397.821L2096.64 379.976ZM2074.73 360.996C2069.6 353.089 2066.97 344.066 2066.97 333.625H2046.97C2046.97 347.663 2050.58 360.516 2057.95 371.879L2074.73 360.996ZM2066.97 333.625C2066.97 323.829 2068.81 315.529 2072.22 308.496L2054.22 299.77C2049.3 309.924 2046.97 321.286 2046.97 333.625H2066.97ZM2072.22 308.496C2075.63 301.45 2080.65 295.483 2087.45 290.546L2075.7 274.36C2066.36 281.142 2059.14 289.628 2054.22 299.77L2072.22 308.496ZM2087.48 290.529C2094.4 285.471 2103.35 281.447 2114.62 278.69L2109.87 259.263C2096.65 262.496 2085.16 267.456 2075.68 274.377L2087.48 290.529ZM2114.72 278.666C2125.96 275.795 2139.29 274.289 2154.82 274.289V254.289C2138.06 254.289 2123 255.908 2109.77 259.287L2114.72 278.666ZM2154.82 274.289H2187.44V254.289H2154.82V274.289ZM2385.68 349.055L2390.06 358.042L2390.15 358L2390.24 357.955L2385.68 349.055ZM2398.18 337.727L2389.72 332.387L2389.71 332.417L2389.69 332.447L2398.18 337.727ZM2403.06 320.344V310.344H2393.26L2393.06 320.148L2403.06 320.344ZM2455.99 320.344L2465.99 320.431L2466.08 310.344H2455.99V320.344ZM2444.08 359.992L2452.34 365.626L2452.36 365.604L2452.37 365.582L2444.08 359.992ZM2412.63 387.141L2417.07 396.103L2417.1 396.085L2417.14 396.067L2412.63 387.141ZM2325.52 388.703L2321.41 397.817L2321.43 397.825L2321.44 397.833L2325.52 388.703ZM2295.25 366.047L2287.54 372.418L2287.56 372.444L2287.58 372.469L2295.25 366.047ZM2277.09 332.062L2267.53 335.023L2267.54 335.037L2267.54 335.051L2277.09 332.062ZM2277.09 242.805L2286.63 245.793L2286.63 245.779L2286.64 245.766L2277.09 242.805ZM2295.25 208.82L2302.92 215.243L2302.94 215.217L2302.96 215.192L2295.25 208.82ZM2413.61 187.727L2409.07 196.635L2409.08 196.644L2409.1 196.653L2413.61 187.727ZM2444.47 216.242L2435.89 221.387L2435.93 221.44L2435.96 221.493L2444.47 216.242ZM2455.99 259.797V269.797H2466.07L2465.99 259.719L2455.99 259.797ZM2403.06 259.797L2393.06 259.982L2393.25 269.797H2403.06V259.797ZM2398.57 240.656L2389.55 244.964L2389.59 245.046L2389.63 245.128L2398.57 240.656ZM2386.46 226.984L2380.87 235.273L2380.98 235.353L2381.11 235.429L2386.46 226.984ZM2347.01 226.984L2352.46 235.369L2352.53 235.321L2352.6 235.273L2347.01 226.984ZM2334.9 241.047L2343.88 245.439L2343.9 245.4L2343.92 245.361L2334.9 241.047ZM2328.84 261.164L2318.96 259.631L2318.95 259.702L2318.94 259.774L2328.84 261.164ZM2334.7 334.016L2325.72 338.408L2325.76 338.488L2325.8 338.567L2334.7 334.016ZM2367.32 362.961C2375.5 362.961 2383.16 361.412 2390.06 358.042L2381.3 340.067C2377.53 341.905 2372.95 342.961 2367.32 342.961V362.961ZM2390.24 357.955C2397.1 354.443 2402.66 349.455 2406.67 343.006L2389.69 332.447C2387.71 335.634 2384.94 338.198 2381.12 340.154L2390.24 357.955ZM2406.63 343.066C2410.86 336.377 2412.9 328.752 2413.06 320.54L2393.06 320.148C2392.97 325.217 2391.75 329.18 2389.72 332.387L2406.63 343.066ZM2403.06 330.344H2455.99V310.344H2403.06V330.344ZM2445.99 320.256C2445.88 333.266 2442.43 344.544 2435.79 354.402L2452.37 365.582C2461.35 352.264 2465.85 337.109 2465.99 320.431L2445.99 320.256ZM2435.82 354.359C2429.02 364.332 2419.86 372.287 2408.13 378.214L2417.14 396.067C2431.7 388.713 2443.52 378.569 2452.34 365.626L2435.82 354.359ZM2408.2 378.179C2396.57 383.935 2383.4 386.906 2368.49 386.906V406.906C2386.14 406.906 2402.39 403.367 2417.07 396.103L2408.2 378.179ZM2368.49 386.906C2353.18 386.906 2340.31 384.355 2329.6 379.573L2321.44 397.833C2335.22 403.989 2350.99 406.906 2368.49 406.906V386.906ZM2329.64 379.589C2318.82 374.703 2309.97 368.042 2302.92 359.625L2287.58 372.469C2296.68 383.323 2308.01 391.765 2321.41 397.817L2329.64 379.589ZM2302.96 359.675C2295.76 350.973 2290.3 340.812 2286.63 329.074L2267.54 335.051C2271.94 349.095 2278.59 361.59 2287.54 372.418L2302.96 359.675ZM2286.64 329.102C2282.92 317.121 2281.03 304.194 2281.03 290.266H2261.03C2261.03 306.025 2263.18 320.963 2267.53 335.023L2286.64 329.102ZM2281.03 290.266V284.602H2261.03V290.266H2281.03ZM2281.03 284.602C2281.03 270.532 2282.93 257.618 2286.63 245.793L2267.54 239.816C2263.17 253.773 2261.03 268.723 2261.03 284.602H2281.03ZM2286.64 245.766C2290.31 233.904 2295.76 223.778 2302.92 215.243L2287.58 202.398C2278.59 213.134 2271.93 225.663 2267.53 239.844L2286.64 245.766ZM2302.96 215.192C2310.01 206.66 2318.85 199.955 2329.64 195.082L2321.41 176.855C2307.98 182.92 2296.64 191.45 2287.54 202.449L2302.96 215.192ZM2329.64 195.082C2340.2 190.314 2352.93 187.766 2368.1 187.766V167.766C2350.72 167.766 2335.07 170.686 2321.41 176.855L2329.64 195.082ZM2368.1 187.766C2384.13 187.766 2397.69 190.833 2409.07 196.635L2418.15 178.818C2403.49 171.339 2386.71 167.766 2368.1 167.766V187.766ZM2409.1 196.653C2420.61 202.462 2429.47 210.673 2435.89 221.387L2453.04 211.097C2444.63 197.072 2432.92 186.273 2418.12 178.8L2409.1 196.653ZM2435.96 221.493C2442.4 231.932 2445.87 244.594 2445.99 259.874L2465.99 259.719C2465.85 241.406 2461.64 225.032 2452.98 210.991L2435.96 221.493ZM2455.99 249.797H2403.06V269.797H2455.99V249.797ZM2413.06 259.612C2412.91 251.239 2411.11 243.372 2407.51 236.184L2389.63 245.128C2391.76 249.399 2392.96 254.293 2393.06 259.982L2413.06 259.612ZM2407.6 236.349C2404.05 228.931 2398.75 222.936 2391.82 218.539L2381.11 235.429C2384.85 237.803 2387.62 240.924 2389.55 244.964L2407.6 236.349ZM2392.06 218.696C2384.86 213.838 2376.35 211.711 2367.12 211.711V231.711C2373.26 231.711 2377.65 233.1 2380.87 235.273L2392.06 218.696ZM2367.12 211.711C2357.53 211.711 2348.71 213.77 2341.41 218.696L2352.6 235.273C2355.72 233.168 2360.31 231.711 2367.12 231.711V211.711ZM2341.56 218.6C2334.7 223.057 2329.48 229.202 2325.88 236.732L2343.92 245.361C2346.05 240.912 2348.9 237.682 2352.46 235.369L2341.56 218.6ZM2325.91 236.655C2322.54 243.556 2320.26 251.252 2318.96 259.631L2338.73 262.697C2339.77 255.972 2341.53 250.256 2343.88 245.439L2325.91 236.655ZM2318.94 259.774C2317.83 267.697 2317.28 275.977 2317.28 284.602H2337.28C2337.28 276.82 2337.78 269.475 2338.75 262.554L2318.94 259.774ZM2317.28 284.602V290.266H2337.28V284.602H2317.28ZM2317.28 290.266C2317.28 298.892 2317.83 307.227 2318.94 315.265L2338.75 312.532C2337.78 305.465 2337.28 298.046 2337.28 290.266H2317.28ZM2318.94 315.265C2320.1 323.695 2322.32 331.45 2325.72 338.408L2343.69 329.624C2341.36 324.863 2339.67 319.206 2338.75 312.532L2318.94 315.265ZM2325.8 338.567C2329.54 345.888 2334.79 351.871 2341.56 356.267L2352.46 339.498C2348.8 337.124 2345.85 333.862 2343.61 329.465L2325.8 338.567ZM2341.56 356.267C2348.86 361.011 2357.7 362.961 2367.32 362.961V342.961C2360.28 342.961 2355.58 341.526 2352.46 339.498L2341.56 356.267ZM2544.86 92.8047H2554.86V82.8047H2544.86V92.8047ZM2544.86 393V403H2554.86V393H2544.86ZM2488.61 393H2478.61V403H2488.61V393ZM2488.61 92.8047V82.8047H2478.61V92.8047H2488.61ZM2678.06 181.672L2685.58 188.265L2700.13 171.672H2678.06V181.672ZM2586.27 286.359L2593.38 293.388L2593.59 293.176L2593.78 292.952L2586.27 286.359ZM2537.05 336.164L2528.12 340.671L2534.39 353.083L2544.16 343.193L2537.05 336.164ZM2516.54 295.539L2508.68 289.353L2504.74 294.358L2507.61 300.046L2516.54 295.539ZM2555.6 245.93L2548 239.435L2547.87 239.587L2547.74 239.743L2555.6 245.93ZM2610.48 181.672V171.672H2605.87L2602.88 175.177L2610.48 181.672ZM2619.66 393L2611.24 398.391L2614.19 403H2619.66V393ZM2557.16 295.344L2550.58 287.816L2544.1 293.483L2548.74 300.734L2557.16 295.344ZM2596.03 261.359L2604.33 255.781L2598 246.357L2589.45 253.831L2596.03 261.359ZM2684.51 393V403H2703.28L2692.81 387.422L2684.51 393ZM2534.86 92.8047V393H2554.86V92.8047H2534.86ZM2544.86 383H2488.61V403H2544.86V383ZM2498.61 393V92.8047H2478.61V393H2498.61ZM2488.61 102.805H2544.86V82.8047H2488.61V102.805ZM2670.54 175.079L2578.75 279.766L2593.78 292.952L2685.58 188.265L2670.54 175.079ZM2579.15 279.33L2529.93 329.135L2544.16 343.193L2593.38 293.388L2579.15 279.33ZM2545.97 331.658L2525.47 291.033L2507.61 300.046L2528.12 340.671L2545.97 331.658ZM2524.4 301.725L2563.46 252.116L2547.74 239.743L2508.68 289.353L2524.4 301.725ZM2563.21 252.424L2618.09 188.166L2602.88 175.177L2548 239.435L2563.21 252.424ZM2610.48 191.672H2678.06V171.672H2610.48V191.672ZM2628.09 387.609L2565.59 289.953L2548.74 300.734L2611.24 398.391L2628.09 387.609ZM2563.75 302.872L2602.61 268.887L2589.45 253.831L2550.58 287.816L2563.75 302.872ZM2587.73 266.938L2676.21 398.578L2692.81 387.422L2604.33 255.781L2587.73 266.938ZM2684.51 383H2619.66V403H2684.51V383Z" fill="black"/>
<path d="M626.695 393H564.781L565.172 347.297H626.695C642.06 347.297 655.016 343.846 665.562 336.945C676.109 329.914 684.052 319.693 689.391 306.281C694.859 292.87 697.594 276.659 697.594 257.648V243.781C697.594 229.198 696.031 216.372 692.906 205.305C689.911 194.237 685.419 184.927 679.43 177.375C673.44 169.823 666.083 164.159 657.359 160.383C648.635 156.477 638.609 154.523 627.281 154.523H563.609V108.625H627.281C646.292 108.625 663.674 111.88 679.43 118.391C695.315 124.771 709.052 133.951 720.641 145.93C732.229 157.909 741.148 172.232 747.398 188.898C753.779 205.435 756.969 223.859 756.969 244.172V257.648C756.969 277.831 753.779 296.255 747.398 312.922C741.148 329.589 732.229 343.911 720.641 355.891C709.182 367.74 695.445 376.919 679.43 383.43C663.544 389.81 645.966 393 626.695 393ZM597.984 108.625V393H539.391V108.625H597.984ZM893.297 396.906C876.891 396.906 862.177 394.302 849.156 389.094C836.135 383.755 825.068 376.398 815.953 367.023C806.969 357.648 800.068 346.776 795.25 334.406C790.432 321.906 788.023 308.625 788.023 294.562V286.75C788.023 270.734 790.302 256.086 794.859 242.805C799.417 229.523 805.927 218 814.391 208.234C822.984 198.469 833.401 190.982 845.641 185.773C857.88 180.435 871.682 177.766 887.047 177.766C902.021 177.766 915.302 180.24 926.891 185.188C938.479 190.135 948.18 197.167 955.992 206.281C963.935 215.396 969.924 226.333 973.961 239.094C977.997 251.724 980.016 265.786 980.016 281.281V304.719H812.047V267.219H924.742V262.922C924.742 255.109 923.31 248.143 920.445 242.023C917.711 235.773 913.544 230.826 907.945 227.18C902.346 223.534 895.185 221.711 886.461 221.711C879.039 221.711 872.659 223.339 867.32 226.594C861.982 229.849 857.62 234.406 854.234 240.266C850.979 246.125 848.505 253.026 846.812 260.969C845.25 268.781 844.469 277.375 844.469 286.75V294.562C844.469 303.026 845.641 310.839 847.984 318C850.458 325.161 853.909 331.346 858.336 336.555C862.893 341.763 868.362 345.799 874.742 348.664C881.253 351.529 888.609 352.961 896.812 352.961C906.969 352.961 916.409 351.008 925.133 347.102C933.987 343.065 941.604 337.01 947.984 328.938L975.328 358.625C970.901 365.005 964.846 371.125 957.164 376.984C949.612 382.844 940.497 387.661 929.82 391.438C919.143 395.083 906.969 396.906 893.297 396.906ZM1067.12 226.789V393H1010.88V181.672H1063.61L1067.12 226.789ZM1058.92 279.914H1043.69C1043.69 264.289 1045.71 250.227 1049.74 237.727C1053.78 225.096 1059.44 214.354 1066.73 205.5C1074.03 196.516 1082.68 189.68 1092.71 184.992C1102.87 180.174 1114.2 177.766 1126.7 177.766C1136.59 177.766 1145.64 179.198 1153.84 182.062C1162.05 184.927 1169.08 189.484 1174.94 195.734C1180.93 201.984 1185.48 210.253 1188.61 220.539C1191.86 230.826 1193.49 243.391 1193.49 258.234V393H1136.85V258.039C1136.85 248.664 1135.55 241.372 1132.95 236.164C1130.34 230.956 1126.5 227.31 1121.42 225.227C1116.47 223.013 1110.35 221.906 1103.06 221.906C1095.51 221.906 1088.93 223.404 1083.34 226.398C1077.87 229.393 1073.31 233.56 1069.66 238.898C1066.15 244.107 1063.48 250.227 1061.66 257.258C1059.83 264.289 1058.92 271.841 1058.92 279.914ZM1339.78 181.672V221.516H1216.73V181.672H1339.78ZM1247.2 129.523H1303.45V329.328C1303.45 335.448 1304.23 340.135 1305.8 343.391C1307.49 346.646 1309.96 348.924 1313.22 350.227C1316.47 351.398 1320.58 351.984 1325.52 351.984C1329.04 351.984 1332.16 351.854 1334.9 351.594C1337.76 351.203 1340.17 350.812 1342.12 350.422L1342.32 391.828C1337.5 393.391 1332.29 394.628 1326.7 395.539C1321.1 396.451 1314.91 396.906 1308.14 396.906C1295.77 396.906 1284.96 394.888 1275.72 390.852C1266.6 386.685 1259.57 380.044 1254.62 370.93C1249.68 361.815 1247.2 349.836 1247.2 334.992V129.523ZM1485.88 345.344V251.203C1485.88 244.432 1484.77 238.638 1482.55 233.82C1480.34 228.872 1476.89 225.031 1472.2 222.297C1467.65 219.562 1461.72 218.195 1454.43 218.195C1448.18 218.195 1442.78 219.302 1438.22 221.516C1433.66 223.599 1430.15 226.659 1427.67 230.695C1425.2 234.602 1423.96 239.224 1423.96 244.562H1367.71C1367.71 235.578 1369.79 227.049 1373.96 218.977C1378.13 210.904 1384.18 203.807 1392.12 197.688C1400.07 191.438 1409.51 186.555 1420.45 183.039C1431.51 179.523 1443.88 177.766 1457.55 177.766C1473.96 177.766 1488.54 180.5 1501.3 185.969C1514.07 191.438 1524.09 199.641 1531.38 210.578C1538.8 221.516 1542.52 235.188 1542.52 251.594V342.023C1542.52 353.612 1543.23 363.117 1544.66 370.539C1546.1 377.831 1548.18 384.211 1550.91 389.68V393H1494.08C1491.34 387.271 1489.26 380.109 1487.83 371.516C1486.53 362.792 1485.88 354.068 1485.88 345.344ZM1493.3 264.289L1493.69 296.125H1462.24C1454.82 296.125 1448.38 296.971 1442.91 298.664C1437.44 300.357 1432.95 302.766 1429.43 305.891C1425.91 308.885 1423.31 312.401 1421.62 316.438C1420.05 320.474 1419.27 324.901 1419.27 329.719C1419.27 334.536 1420.38 338.898 1422.59 342.805C1424.81 346.581 1428 349.576 1432.16 351.789C1436.33 353.872 1441.21 354.914 1446.81 354.914C1455.28 354.914 1462.63 353.221 1468.88 349.836C1475.13 346.451 1479.95 342.284 1483.34 337.336C1486.85 332.388 1488.67 327.701 1488.8 323.273L1503.65 347.102C1501.57 352.44 1498.7 357.974 1495.05 363.703C1491.54 369.432 1487.05 374.836 1481.58 379.914C1476.11 384.862 1469.53 388.964 1461.85 392.219C1454.17 395.344 1445.05 396.906 1434.51 396.906C1421.1 396.906 1408.92 394.237 1397.98 388.898C1387.18 383.43 1378.58 375.943 1372.2 366.438C1365.95 356.802 1362.83 345.865 1362.83 333.625C1362.83 322.557 1364.91 312.727 1369.08 304.133C1373.24 295.539 1379.36 288.312 1387.44 282.453C1395.64 276.464 1405.86 271.971 1418.1 268.977C1430.34 265.852 1444.53 264.289 1460.68 264.289H1493.3ZM1645.25 93V393H1588.8V93H1645.25ZM1822.4 108.625V393H1764V108.625H1822.4ZM1909.9 108.625V154.523H1677.87V108.625H1909.9ZM1982.36 227.766V393H1926.11V181.672H1979.04L1982.36 227.766ZM2046.03 180.305L2045.05 232.453C2042.32 232.062 2039 231.737 2035.09 231.477C2031.32 231.086 2027.87 230.891 2024.74 230.891C2016.8 230.891 2009.9 231.932 2004.04 234.016C1998.31 235.969 1993.49 238.898 1989.59 242.805C1985.81 246.711 1982.95 251.464 1980.99 257.062C1979.17 262.661 1978.13 269.042 1977.87 276.203L1966.54 272.688C1966.54 259.016 1967.91 246.451 1970.64 234.992C1973.38 223.404 1977.35 213.312 1982.55 204.719C1987.89 196.125 1994.4 189.484 2002.09 184.797C2009.77 180.109 2018.56 177.766 2028.45 177.766C2031.58 177.766 2034.77 178.026 2038.02 178.547C2041.28 178.938 2043.95 179.523 2046.03 180.305ZM2180.02 345.344V251.203C2180.02 244.432 2178.91 238.638 2176.7 233.82C2174.48 228.872 2171.03 225.031 2166.34 222.297C2161.79 219.562 2155.86 218.195 2148.57 218.195C2142.32 218.195 2136.92 219.302 2132.36 221.516C2127.8 223.599 2124.29 226.659 2121.81 230.695C2119.34 234.602 2118.1 239.224 2118.1 244.562H2061.85C2061.85 235.578 2063.93 227.049 2068.1 218.977C2072.27 210.904 2078.32 203.807 2086.27 197.688C2094.21 191.438 2103.65 186.555 2114.59 183.039C2125.65 179.523 2138.02 177.766 2151.7 177.766C2168.1 177.766 2182.68 180.5 2195.45 185.969C2208.21 191.438 2218.23 199.641 2225.52 210.578C2232.95 221.516 2236.66 235.188 2236.66 251.594V342.023C2236.66 353.612 2237.37 363.117 2238.8 370.539C2240.24 377.831 2242.32 384.211 2245.05 389.68V393H2188.22C2185.48 387.271 2183.4 380.109 2181.97 371.516C2180.67 362.792 2180.02 354.068 2180.02 345.344ZM2187.44 264.289L2187.83 296.125H2156.38C2148.96 296.125 2142.52 296.971 2137.05 298.664C2131.58 300.357 2127.09 302.766 2123.57 305.891C2120.05 308.885 2117.45 312.401 2115.76 316.438C2114.2 320.474 2113.41 324.901 2113.41 329.719C2113.41 334.536 2114.52 338.898 2116.73 342.805C2118.95 346.581 2122.14 349.576 2126.3 351.789C2130.47 353.872 2135.35 354.914 2140.95 354.914C2149.42 354.914 2156.77 353.221 2163.02 349.836C2169.27 346.451 2174.09 342.284 2177.48 337.336C2180.99 332.388 2182.82 327.701 2182.95 323.273L2197.79 347.102C2195.71 352.44 2192.84 357.974 2189.2 363.703C2185.68 369.432 2181.19 374.836 2175.72 379.914C2170.25 384.862 2163.67 388.964 2155.99 392.219C2148.31 395.344 2139.2 396.906 2128.65 396.906C2115.24 396.906 2103.06 394.237 2092.12 388.898C2081.32 383.43 2072.72 375.943 2066.34 366.438C2060.09 356.802 2056.97 345.865 2056.97 333.625C2056.97 322.557 2059.05 312.727 2063.22 304.133C2067.39 295.539 2073.51 288.312 2081.58 282.453C2089.78 276.464 2100 271.971 2112.24 268.977C2124.48 265.852 2138.67 264.289 2154.82 264.289H2187.44ZM2367.32 352.961C2374.22 352.961 2380.34 351.659 2385.68 349.055C2391.02 346.32 2395.18 342.544 2398.18 337.727C2401.3 332.779 2402.93 326.984 2403.06 320.344H2455.99C2455.86 335.188 2451.89 348.404 2444.08 359.992C2436.27 371.451 2425.78 380.5 2412.63 387.141C2399.48 393.651 2384.77 396.906 2368.49 396.906C2352.09 396.906 2337.76 394.172 2325.52 388.703C2313.41 383.234 2303.32 375.682 2295.25 366.047C2287.18 356.281 2281.12 344.953 2277.09 332.062C2273.05 319.042 2271.03 305.109 2271.03 290.266V284.602C2271.03 269.628 2273.05 255.695 2277.09 242.805C2281.12 229.784 2287.18 218.456 2295.25 208.82C2303.32 199.055 2313.41 191.438 2325.52 185.969C2337.63 180.5 2351.83 177.766 2368.1 177.766C2385.42 177.766 2400.59 181.086 2413.61 187.727C2426.76 194.367 2437.05 203.872 2444.47 216.242C2452.02 228.482 2455.86 243 2455.99 259.797H2403.06C2402.93 252.766 2401.43 246.385 2398.57 240.656C2395.84 234.927 2391.8 230.37 2386.46 226.984C2381.25 223.469 2374.81 221.711 2367.12 221.711C2358.92 221.711 2352.22 223.469 2347.01 226.984C2341.8 230.37 2337.76 235.057 2334.9 241.047C2332.03 246.906 2330.02 253.612 2328.84 261.164C2327.8 268.586 2327.28 276.398 2327.28 284.602V290.266C2327.28 298.469 2327.8 306.346 2328.84 313.898C2329.89 321.451 2331.84 328.156 2334.7 334.016C2337.7 339.875 2341.8 344.497 2347.01 347.883C2352.22 351.268 2358.99 352.961 2367.32 352.961ZM2544.86 92.8047V393H2488.61V92.8047H2544.86ZM2678.06 181.672L2586.27 286.359L2537.05 336.164L2516.54 295.539L2555.6 245.93L2610.48 181.672H2678.06ZM2619.66 393L2557.16 295.344L2596.03 261.359L2684.51 393H2619.66Z" fill="white"/>
</svg>
