<svg width="427" height="88" viewBox="0 0 427 88" fill="none" xmlns="http://www.w3.org/2000/svg">
<path d="M415.44 4.45874H15.5555C9.72314 4.45874 4.99512 8.54833 4.99512 13.5931V76.9246C4.99512 81.9694 9.72314 86.059 15.5555 86.059H415.44C421.273 86.059 426.001 81.9694 426.001 76.9246V13.5931C426.001 8.54833 421.273 4.45874 415.44 4.45874Z" fill="black" stroke="black" stroke-width="2"/>
<path d="M411.445 1H11.5603C5.72802 1 1 5.08959 1 10.1344V73.4659C1 78.5106 5.72802 82.6002 11.5603 82.6002H411.445C417.277 82.6002 422.005 78.5106 422.005 73.4659V10.1344C422.005 5.08959 417.277 1 411.445 1Z" fill="white" stroke="black" stroke-width="2"/>
<path d="M98.5256 37H94.571L100.597 19.5455H105.352L111.369 37H107.415L103.043 23.5341H102.906L98.5256 37ZM98.2784 30.1392H107.619V33.0199H98.2784V30.1392ZM121.797 31.4261V23.9091H125.428V37H121.942V34.6222H121.805C121.51 35.3892 121.018 36.0057 120.331 36.4716C119.649 36.9375 118.817 37.1705 117.834 37.1705C116.959 37.1705 116.189 36.9716 115.524 36.5739C114.859 36.1761 114.339 35.6108 113.964 34.8778C113.595 34.1449 113.408 33.267 113.402 32.2443V23.9091H117.033V31.5966C117.038 32.3693 117.246 32.9801 117.655 33.429C118.064 33.8778 118.612 34.1023 119.3 34.1023C119.737 34.1023 120.146 34.0028 120.527 33.804C120.908 33.5994 121.214 33.2983 121.447 32.9006C121.686 32.5028 121.803 32.0114 121.797 31.4261ZM135.295 23.9091V26.6364H127.411V23.9091H135.295ZM129.201 20.7727H132.832V32.9773C132.832 33.3125 132.883 33.5739 132.985 33.7614C133.087 33.9432 133.229 34.071 133.411 34.1449C133.599 34.2187 133.815 34.2557 134.059 34.2557C134.229 34.2557 134.4 34.2415 134.57 34.2131C134.741 34.179 134.871 34.1534 134.962 34.1364L135.533 36.8381C135.352 36.8949 135.096 36.9602 134.766 37.0341C134.437 37.1136 134.036 37.1619 133.565 37.179C132.69 37.2131 131.923 37.0966 131.263 36.8295C130.61 36.5625 130.102 36.1477 129.738 35.5852C129.374 35.0227 129.195 34.3125 129.201 33.4545V20.7727ZM143.434 37.2557C142.11 37.2557 140.965 36.9744 139.999 36.4119C139.039 35.8437 138.298 35.054 137.775 34.0426C137.252 33.0256 136.991 31.8466 136.991 30.5057C136.991 29.1534 137.252 27.9716 137.775 26.9602C138.298 25.9432 139.039 25.1534 139.999 24.5909C140.965 24.0227 142.11 23.7386 143.434 23.7386C144.758 23.7386 145.9 24.0227 146.86 24.5909C147.826 25.1534 148.57 25.9432 149.093 26.9602C149.616 27.9716 149.877 29.1534 149.877 30.5057C149.877 31.8466 149.616 33.0256 149.093 34.0426C148.57 35.054 147.826 35.8437 146.86 36.4119C145.9 36.9744 144.758 37.2557 143.434 37.2557ZM143.451 34.4432C144.053 34.4432 144.556 34.2727 144.96 33.9318C145.363 33.5852 145.667 33.1136 145.871 32.517C146.082 31.9205 146.187 31.2415 146.187 30.4801C146.187 29.7188 146.082 29.0398 145.871 28.4432C145.667 27.8466 145.363 27.375 144.96 27.0284C144.556 26.6818 144.053 26.5085 143.451 26.5085C142.843 26.5085 142.332 26.6818 141.917 27.0284C141.508 27.375 141.198 27.8466 140.988 28.4432C140.783 29.0398 140.681 29.7188 140.681 30.4801C140.681 31.2415 140.783 31.9205 140.988 32.517C141.198 33.1136 141.508 33.5852 141.917 33.9318C142.332 34.2727 142.843 34.4432 143.451 34.4432ZM152.238 37V23.9091H155.698V26.2188H155.852C156.124 25.4517 156.579 24.8466 157.215 24.4034C157.852 23.9602 158.613 23.7386 159.499 23.7386C160.397 23.7386 161.161 23.9631 161.792 24.4119C162.423 24.8551 162.843 25.4574 163.053 26.2188H163.19C163.457 25.4688 163.94 24.8693 164.638 24.4205C165.343 23.9659 166.175 23.7386 167.136 23.7386C168.357 23.7386 169.349 24.1278 170.11 24.9062C170.877 25.679 171.261 26.7756 171.261 28.196V37H167.638V28.9119C167.638 28.1847 167.445 27.6392 167.059 27.2756C166.673 26.9119 166.19 26.7301 165.61 26.7301C164.951 26.7301 164.437 26.9403 164.067 27.3608C163.698 27.7756 163.513 28.3239 163.513 29.0057V37H159.994V28.8352C159.994 28.1932 159.809 27.6818 159.44 27.3011C159.076 26.9205 158.596 26.7301 157.999 26.7301C157.596 26.7301 157.232 26.8324 156.908 27.0369C156.59 27.2358 156.337 27.517 156.15 27.8807C155.962 28.2386 155.869 28.6591 155.869 29.142V37H152.238ZM177.862 37.2472C177.026 37.2472 176.282 37.1023 175.629 36.8125C174.975 36.517 174.458 36.0824 174.077 35.5085C173.702 34.929 173.515 34.2074 173.515 33.3438C173.515 32.6165 173.648 32.0057 173.915 31.5114C174.183 31.017 174.546 30.6193 175.006 30.3182C175.467 30.017 175.989 29.7898 176.575 29.6364C177.165 29.483 177.785 29.375 178.433 29.3125C179.194 29.233 179.808 29.1591 180.273 29.0909C180.739 29.017 181.077 28.9091 181.288 28.767C181.498 28.625 181.603 28.4148 181.603 28.1364V28.0852C181.603 27.5455 181.433 27.1278 181.092 26.8324C180.756 26.5369 180.279 26.3892 179.66 26.3892C179.006 26.3892 178.487 26.5341 178.1 26.8239C177.714 27.108 177.458 27.4659 177.333 27.8977L173.975 27.625C174.146 26.8295 174.481 26.142 174.981 25.5625C175.481 24.9773 176.126 24.5284 176.915 24.2159C177.711 23.8977 178.631 23.7386 179.677 23.7386C180.404 23.7386 181.1 23.8239 181.765 23.9943C182.435 24.1648 183.029 24.429 183.546 24.7869C184.069 25.1449 184.481 25.6051 184.782 26.1676C185.083 26.7244 185.234 27.392 185.234 28.1705V37H181.79V35.1847H181.688C181.478 35.5938 181.197 35.9545 180.844 36.267C180.492 36.5739 180.069 36.8153 179.575 36.9915C179.08 37.1619 178.509 37.2472 177.862 37.2472ZM178.901 34.7415C179.435 34.7415 179.907 34.6364 180.316 34.4261C180.725 34.2102 181.046 33.9205 181.279 33.5568C181.512 33.1932 181.629 32.7812 181.629 32.321V30.9318C181.515 31.0057 181.359 31.0739 181.16 31.1364C180.967 31.1932 180.748 31.2472 180.504 31.2983C180.259 31.3437 180.015 31.3864 179.771 31.4261C179.526 31.4602 179.305 31.4915 179.106 31.5199C178.68 31.5824 178.308 31.6818 177.989 31.8182C177.671 31.9545 177.424 32.1392 177.248 32.3722C177.072 32.5994 176.984 32.8835 176.984 33.2244C176.984 33.7188 177.163 34.0966 177.521 34.358C177.884 34.6136 178.344 34.7415 178.901 34.7415ZM195.013 23.9091V26.6364H187.13V23.9091H195.013ZM188.92 20.7727H192.55V32.9773C192.55 33.3125 192.602 33.5739 192.704 33.7614C192.806 33.9432 192.948 34.071 193.13 34.1449C193.317 34.2187 193.533 34.2557 193.778 34.2557C193.948 34.2557 194.119 34.2415 194.289 34.2131C194.46 34.179 194.59 34.1534 194.681 34.1364L195.252 36.8381C195.07 36.8949 194.815 36.9602 194.485 37.0341C194.156 37.1136 193.755 37.1619 193.283 37.179C192.408 37.2131 191.641 37.0966 190.982 36.8295C190.329 36.5625 189.82 36.1477 189.457 35.5852C189.093 35.0227 188.914 34.3125 188.92 33.4545V20.7727ZM203.204 37.2557C201.857 37.2557 200.698 36.983 199.727 36.4375C198.761 35.8864 198.016 35.108 197.494 34.1023C196.971 33.0909 196.71 31.8949 196.71 30.5142C196.71 29.1676 196.971 27.9858 197.494 26.9688C198.016 25.9517 198.752 25.1591 199.701 24.5909C200.656 24.0227 201.775 23.7386 203.059 23.7386C203.923 23.7386 204.727 23.8778 205.471 24.1562C206.221 24.429 206.874 24.8409 207.431 25.392C207.994 25.9432 208.431 26.6364 208.744 27.4716C209.056 28.3011 209.212 29.2727 209.212 30.3864V31.3835H198.158V29.1335H205.795C205.795 28.6108 205.681 28.1477 205.454 27.7443C205.227 27.3409 204.911 27.0256 204.508 26.7983C204.11 26.5653 203.647 26.4489 203.119 26.4489C202.567 26.4489 202.079 26.5767 201.653 26.8324C201.232 27.0824 200.903 27.4205 200.664 27.8466C200.425 28.267 200.303 28.7358 200.298 29.2528V31.392C200.298 32.0398 200.417 32.5994 200.656 33.071C200.9 33.5426 201.244 33.9062 201.687 34.1619C202.13 34.4176 202.656 34.5455 203.263 34.5455C203.667 34.5455 204.036 34.4886 204.371 34.375C204.707 34.2614 204.994 34.0909 205.232 33.8636C205.471 33.6364 205.653 33.358 205.778 33.0284L209.136 33.25C208.965 34.0568 208.616 34.7614 208.087 35.3636C207.565 35.9602 206.888 36.4261 206.059 36.7614C205.235 37.0909 204.283 37.2557 203.204 37.2557ZM216.406 37.2131C215.411 37.2131 214.511 36.9574 213.704 36.446C212.903 35.929 212.266 35.1705 211.795 34.1705C211.329 33.1648 211.096 31.9318 211.096 30.4716C211.096 28.9716 211.337 27.7244 211.82 26.7301C212.303 25.7301 212.945 24.983 213.746 24.4886C214.553 23.9886 215.437 23.7386 216.397 23.7386C217.13 23.7386 217.741 23.8636 218.229 24.1136C218.724 24.358 219.121 24.6648 219.423 25.0341C219.729 25.3977 219.962 25.7557 220.121 26.108H220.232V19.5455H223.854V37H220.275V34.9034H220.121C219.951 35.267 219.71 35.6278 219.397 35.9858C219.09 36.3381 218.69 36.6307 218.195 36.8636C217.707 37.0966 217.11 37.2131 216.406 37.2131ZM217.556 34.3239C218.141 34.3239 218.636 34.1648 219.039 33.8466C219.448 33.5227 219.761 33.071 219.977 32.4915C220.198 31.9119 220.309 31.233 220.309 30.4545C220.309 29.6761 220.201 29 219.985 28.4261C219.769 27.8523 219.457 27.4091 219.048 27.0966C218.638 26.7841 218.141 26.6278 217.556 26.6278C216.96 26.6278 216.457 26.7898 216.048 27.1136C215.638 27.4375 215.329 27.8864 215.119 28.4602C214.908 29.0341 214.803 29.6989 214.803 30.4545C214.803 31.2159 214.908 31.8892 215.119 32.4744C215.335 33.054 215.644 33.5085 216.048 33.8381C216.457 34.1619 216.96 34.3239 217.556 34.3239ZM232.462 37V19.5455H239.349C240.667 19.5455 241.792 19.7812 242.724 20.2528C243.661 20.7187 244.374 21.3807 244.863 22.2386C245.357 23.0909 245.604 24.0937 245.604 25.2472C245.604 26.4062 245.354 27.4034 244.854 28.2386C244.354 29.0682 243.63 29.7045 242.681 30.1477C241.738 30.5909 240.596 30.8125 239.255 30.8125H234.644V27.8466H238.658C239.363 27.8466 239.948 27.75 240.414 27.5568C240.88 27.3636 241.227 27.0739 241.454 26.6875C241.687 26.3011 241.803 25.821 241.803 25.2472C241.803 24.6676 241.687 24.179 241.454 23.7812C241.227 23.3835 240.877 23.0824 240.406 22.8778C239.94 22.6676 239.352 22.5625 238.641 22.5625H236.153V37H232.462ZM241.888 29.0568L246.227 37H242.153L237.908 29.0568H241.888ZM253.899 37.2557C252.553 37.2557 251.393 36.983 250.422 36.4375C249.456 35.8864 248.712 35.108 248.189 34.1023C247.666 33.0909 247.405 31.8949 247.405 30.5142C247.405 29.1676 247.666 27.9858 248.189 26.9688C248.712 25.9517 249.447 25.1591 250.396 24.5909C251.351 24.0227 252.47 23.7386 253.754 23.7386C254.618 23.7386 255.422 23.8778 256.166 24.1562C256.916 24.429 257.57 24.8409 258.126 25.392C258.689 25.9432 259.126 26.6364 259.439 27.4716C259.751 28.3011 259.908 29.2727 259.908 30.3864V31.3835H248.854V29.1335H256.49C256.49 28.6108 256.376 28.1477 256.149 27.7443C255.922 27.3409 255.607 27.0256 255.203 26.7983C254.805 26.5653 254.342 26.4489 253.814 26.4489C253.263 26.4489 252.774 26.5767 252.348 26.8324C251.928 27.0824 251.598 27.4205 251.359 27.8466C251.121 28.267 250.999 28.7358 250.993 29.2528V31.392C250.993 32.0398 251.112 32.5994 251.351 33.071C251.595 33.5426 251.939 33.9062 252.382 34.1619C252.825 34.4176 253.351 34.5455 253.959 34.5455C254.362 34.5455 254.732 34.4886 255.067 34.375C255.402 34.2614 255.689 34.0909 255.928 33.8636C256.166 33.6364 256.348 33.358 256.473 33.0284L259.831 33.25C259.661 34.0568 259.311 34.7614 258.783 35.3636C258.26 35.9602 257.584 36.4261 256.754 36.7614C255.93 37.0909 254.979 37.2557 253.899 37.2557ZM262.277 37V23.9091H265.737V26.2188H265.891C266.163 25.4517 266.618 24.8466 267.254 24.4034C267.891 23.9602 268.652 23.7386 269.538 23.7386C270.436 23.7386 271.2 23.9631 271.831 24.4119C272.462 24.8551 272.882 25.4574 273.092 26.2188H273.229C273.496 25.4688 273.979 24.8693 274.678 24.4205C275.382 23.9659 276.214 23.7386 277.175 23.7386C278.396 23.7386 279.388 24.1278 280.149 24.9062C280.916 25.679 281.3 26.7756 281.3 28.196V37H277.678V28.9119C277.678 28.1847 277.484 27.6392 277.098 27.2756C276.712 26.9119 276.229 26.7301 275.649 26.7301C274.99 26.7301 274.476 26.9403 274.107 27.3608C273.737 27.7756 273.553 28.3239 273.553 29.0057V37H270.033V28.8352C270.033 28.1932 269.848 27.6818 269.479 27.3011C269.115 26.9205 268.635 26.7301 268.038 26.7301C267.635 26.7301 267.271 26.8324 266.947 27.0369C266.629 27.2358 266.376 27.517 266.189 27.8807C266.001 28.2386 265.908 28.6591 265.908 29.142V37H262.277ZM284.168 37V23.9091H287.798V37H284.168ZM285.991 22.2216C285.452 22.2216 284.989 22.0426 284.602 21.6847C284.222 21.321 284.031 20.8864 284.031 20.3807C284.031 19.8807 284.222 19.4517 284.602 19.0938C284.989 18.7301 285.452 18.5483 285.991 18.5483C286.531 18.5483 286.991 18.7301 287.372 19.0938C287.759 19.4517 287.952 19.8807 287.952 20.3807C287.952 20.8864 287.759 21.321 287.372 21.6847C286.991 22.0426 286.531 22.2216 285.991 22.2216ZM294.337 29.4318V37H290.707V23.9091H294.167V26.2188H294.32C294.61 25.4574 295.096 24.8551 295.778 24.4119C296.46 23.9631 297.286 23.7386 298.258 23.7386C299.167 23.7386 299.96 23.9375 300.636 24.3352C301.312 24.733 301.837 25.3011 302.212 26.0398C302.587 26.7727 302.775 27.6477 302.775 28.6648V37H299.144V29.3125C299.15 28.5114 298.945 27.8864 298.531 27.4375C298.116 26.983 297.545 26.7557 296.817 26.7557C296.329 26.7557 295.897 26.8608 295.522 27.071C295.153 27.2812 294.863 27.5881 294.653 27.9915C294.448 28.3892 294.343 28.8693 294.337 29.4318ZM310.46 37.2131C309.466 37.2131 308.565 36.9574 307.759 36.446C306.957 35.929 306.321 35.1705 305.849 34.1705C305.384 33.1648 305.151 31.9318 305.151 30.4716C305.151 28.9716 305.392 27.7244 305.875 26.7301C306.358 25.7301 307 24.983 307.801 24.4886C308.608 23.9886 309.491 23.7386 310.452 23.7386C311.185 23.7386 311.795 23.8636 312.284 24.1136C312.778 24.358 313.176 24.6648 313.477 25.0341C313.784 25.3977 314.017 25.7557 314.176 26.108H314.287V19.5455H317.909V37H314.33V34.9034H314.176C314.006 35.267 313.764 35.6278 313.452 35.9858C313.145 36.3381 312.744 36.6307 312.25 36.8636C311.761 37.0966 311.165 37.2131 310.46 37.2131ZM311.611 34.3239C312.196 34.3239 312.69 34.1648 313.094 33.8466C313.503 33.5227 313.815 33.071 314.031 32.4915C314.253 31.9119 314.364 31.233 314.364 30.4545C314.364 29.6761 314.256 29 314.04 28.4261C313.824 27.8523 313.511 27.4091 313.102 27.0966C312.693 26.7841 312.196 26.6278 311.611 26.6278C311.014 26.6278 310.511 26.7898 310.102 27.1136C309.693 27.4375 309.384 27.8864 309.173 28.4602C308.963 29.0341 308.858 29.6989 308.858 30.4545C308.858 31.2159 308.963 31.8892 309.173 32.4744C309.389 33.054 309.699 33.5085 310.102 33.8381C310.511 34.1619 311.014 34.3239 311.611 34.3239ZM326.86 37.2557C325.513 37.2557 324.354 36.983 323.383 36.4375C322.417 35.8864 321.673 35.108 321.15 34.1023C320.627 33.0909 320.366 31.8949 320.366 30.5142C320.366 29.1676 320.627 27.9858 321.15 26.9688C321.673 25.9517 322.408 25.1591 323.357 24.5909C324.312 24.0227 325.431 23.7386 326.715 23.7386C327.579 23.7386 328.383 23.8778 329.127 24.1562C329.877 24.429 330.531 24.8409 331.087 25.392C331.65 25.9432 332.087 26.6364 332.4 27.4716C332.712 28.3011 332.869 29.2727 332.869 30.3864V31.3835H321.815V29.1335H329.451C329.451 28.6108 329.337 28.1477 329.11 27.7443C328.883 27.3409 328.567 27.0256 328.164 26.7983C327.766 26.5653 327.303 26.4489 326.775 26.4489C326.224 26.4489 325.735 26.5767 325.309 26.8324C324.888 27.0824 324.559 27.4205 324.32 27.8466C324.082 28.267 323.96 28.7358 323.954 29.2528V31.392C323.954 32.0398 324.073 32.5994 324.312 33.071C324.556 33.5426 324.9 33.9062 325.343 34.1619C325.786 34.4176 326.312 34.5455 326.92 34.5455C327.323 34.5455 327.692 34.4886 328.028 34.375C328.363 34.2614 328.65 34.0909 328.888 33.8636C329.127 33.6364 329.309 33.358 329.434 33.0284L332.792 33.25C332.621 34.0568 332.272 34.7614 331.744 35.3636C331.221 35.9602 330.545 36.4261 329.715 36.7614C328.891 37.0909 327.94 37.2557 326.86 37.2557ZM335.238 37V23.9091H338.758V26.1932H338.894C339.133 25.3807 339.533 24.767 340.096 24.3523C340.658 23.9318 341.306 23.7216 342.039 23.7216C342.221 23.7216 342.417 23.733 342.627 23.7557C342.837 23.7784 343.022 23.8097 343.181 23.8494V27.071C343.011 27.0199 342.775 26.9744 342.474 26.9347C342.173 26.8949 341.897 26.875 341.647 26.875C341.113 26.875 340.636 26.9915 340.215 27.2244C339.8 27.4517 339.471 27.7699 339.227 28.179C338.988 28.5881 338.869 29.0597 338.869 29.5938V37H335.238Z" fill="black"/>
<path d="M100.42 62H95.2642V47.4545H100.463C101.926 47.4545 103.186 47.7457 104.241 48.3281C105.297 48.9058 106.109 49.7367 106.678 50.821C107.25 51.9053 107.537 53.2027 107.537 54.7131C107.537 56.2282 107.25 57.5303 106.678 58.6193C106.109 59.7083 105.293 60.544 104.227 61.1264C103.167 61.7088 101.898 62 100.42 62ZM98.3395 59.3651H100.293C101.202 59.3651 101.966 59.2041 102.587 58.8821C103.212 58.5554 103.68 58.0511 103.993 57.3693C104.31 56.6828 104.469 55.7973 104.469 54.7131C104.469 53.6383 104.31 52.7599 103.993 52.0781C103.68 51.3963 103.214 50.8944 102.594 50.5724C101.973 50.2505 101.209 50.0895 100.3 50.0895H98.3395V59.3651ZM114.687 62.2131C113.584 62.2131 112.63 61.9787 111.825 61.5099C111.025 61.0365 110.407 60.3783 109.971 59.5355C109.536 58.688 109.318 57.7055 109.318 56.5881C109.318 55.4612 109.536 54.4763 109.971 53.6335C110.407 52.786 111.025 52.1278 111.825 51.6591C112.63 51.1856 113.584 50.9489 114.687 50.9489C115.79 50.9489 116.742 51.1856 117.542 51.6591C118.347 52.1278 118.967 52.786 119.403 53.6335C119.839 54.4763 120.056 55.4612 120.056 56.5881C120.056 57.7055 119.839 58.688 119.403 59.5355C118.967 60.3783 118.347 61.0365 117.542 61.5099C116.742 61.9787 115.79 62.2131 114.687 62.2131ZM114.701 59.8693C115.203 59.8693 115.622 59.7273 115.958 59.4432C116.295 59.1544 116.548 58.7614 116.718 58.2642C116.894 57.767 116.981 57.2012 116.981 56.5668C116.981 55.9323 116.894 55.3665 116.718 54.8693C116.548 54.3722 116.295 53.9792 115.958 53.6903C115.622 53.4015 115.203 53.2571 114.701 53.2571C114.195 53.2571 113.769 53.4015 113.423 53.6903C113.082 53.9792 112.824 54.3722 112.649 54.8693C112.478 55.3665 112.393 55.9323 112.393 56.5668C112.393 57.2012 112.478 57.767 112.649 58.2642C112.824 58.7614 113.082 59.1544 113.423 59.4432C113.769 59.7273 114.195 59.8693 114.701 59.8693ZM125.049 55.6932V62H122.024V51.0909H124.907V53.0156H125.035C125.277 52.3812 125.681 51.8793 126.25 51.5099C126.818 51.1359 127.507 50.9489 128.316 50.9489C129.074 50.9489 129.734 51.1146 130.298 51.446C130.861 51.7775 131.299 52.2509 131.612 52.8665C131.924 53.4773 132.081 54.2064 132.081 55.054V62H129.055V55.5938C129.06 54.9261 128.889 54.4053 128.544 54.0312C128.198 53.6525 127.722 53.4631 127.116 53.4631C126.709 53.4631 126.349 53.5507 126.037 53.7259C125.729 53.901 125.487 54.1567 125.312 54.4929C125.142 54.8243 125.054 55.2244 125.049 55.6932ZM137.001 47.4545V48.9886C137.001 49.4242 136.915 49.8693 136.745 50.3239C136.579 50.7737 136.357 51.1998 136.077 51.6023C135.798 52 135.493 52.3385 135.161 52.6179L133.826 51.8295C134.063 51.4555 134.271 51.0412 134.451 50.5866C134.636 50.1321 134.728 49.6042 134.728 49.0028V47.4545H137.001ZM145.19 51.0909V53.3636H138.62V51.0909H145.19ZM140.112 48.4773H143.137V58.6477C143.137 58.9271 143.18 59.1449 143.265 59.3011C143.35 59.4527 143.469 59.5592 143.62 59.6207C143.776 59.6823 143.956 59.7131 144.16 59.7131C144.302 59.7131 144.444 59.7012 144.586 59.6776C144.728 59.6491 144.837 59.6278 144.913 59.6136L145.388 61.8651C145.237 61.9124 145.024 61.9669 144.749 62.0284C144.475 62.0947 144.141 62.1349 143.748 62.1491C143.019 62.1776 142.379 62.0805 141.83 61.858C141.286 61.6354 140.862 61.2898 140.559 60.821C140.256 60.3523 140.107 59.7604 140.112 59.0455V48.4773ZM157.656 51.0909V53.3636H150.923V51.0909H157.656ZM152.464 62V50.3026C152.464 49.5118 152.618 48.8561 152.926 48.3352C153.238 47.8144 153.664 47.4238 154.204 47.1634C154.744 46.9029 155.357 46.7727 156.044 46.7727C156.508 46.7727 156.931 46.8082 157.315 46.8793C157.703 46.9503 157.992 47.0142 158.181 47.071L157.642 49.3438C157.523 49.3059 157.377 49.2704 157.201 49.2372C157.031 49.2041 156.856 49.1875 156.676 49.1875C156.231 49.1875 155.921 49.2917 155.745 49.5C155.57 49.7036 155.483 49.9901 155.483 50.3594V62H152.464ZM164.043 62.2131C162.939 62.2131 161.985 61.9787 161.18 61.5099C160.38 61.0365 159.762 60.3783 159.327 59.5355C158.891 58.688 158.673 57.7055 158.673 56.5881C158.673 55.4612 158.891 54.4763 159.327 53.6335C159.762 52.786 160.38 52.1278 161.18 51.6591C161.985 51.1856 162.939 50.9489 164.043 50.9489C165.146 50.9489 166.098 51.1856 166.898 51.6591C167.703 52.1278 168.323 52.786 168.759 53.6335C169.194 54.4763 169.412 55.4612 169.412 56.5881C169.412 57.7055 169.194 58.688 168.759 59.5355C168.323 60.3783 167.703 61.0365 166.898 61.5099C166.098 61.9787 165.146 62.2131 164.043 62.2131ZM164.057 59.8693C164.559 59.8693 164.978 59.7273 165.314 59.4432C165.65 59.1544 165.903 58.7614 166.074 58.2642C166.249 57.767 166.337 57.2012 166.337 56.5668C166.337 55.9323 166.249 55.3665 166.074 54.8693C165.903 54.3722 165.65 53.9792 165.314 53.6903C164.978 53.4015 164.559 53.2571 164.057 53.2571C163.55 53.2571 163.124 53.4015 162.778 53.6903C162.438 53.9792 162.179 54.3722 162.004 54.8693C161.834 55.3665 161.749 55.9323 161.749 56.5668C161.749 57.2012 161.834 57.767 162.004 58.2642C162.179 58.7614 162.438 59.1544 162.778 59.4432C163.124 59.7273 163.55 59.8693 164.057 59.8693ZM171.379 62V51.0909H174.312V52.9943H174.426C174.625 52.3172 174.959 51.8059 175.428 51.4602C175.896 51.1098 176.436 50.9347 177.047 50.9347C177.198 50.9347 177.362 50.9441 177.537 50.9631C177.712 50.982 177.866 51.008 177.999 51.0412V53.7259C177.857 53.6832 177.66 53.6454 177.409 53.6122C177.158 53.5791 176.929 53.5625 176.72 53.5625C176.275 53.5625 175.877 53.6596 175.527 53.8537C175.181 54.0431 174.907 54.3082 174.703 54.6491C174.504 54.9901 174.405 55.383 174.405 55.8281V62H171.379ZM183.97 66.3182C182.99 66.3182 182.149 66.1832 181.449 65.9134C180.752 65.6482 180.199 65.286 179.787 64.8267C179.375 64.3674 179.107 63.8513 178.984 63.2784L181.782 62.902C181.868 63.1198 182.002 63.3234 182.187 63.5128C182.372 63.7022 182.616 63.8537 182.919 63.9673C183.226 64.0857 183.6 64.1449 184.041 64.1449C184.699 64.1449 185.241 63.9839 185.667 63.6619C186.098 63.3447 186.314 62.812 186.314 62.0639V60.0682H186.186C186.053 60.3712 185.854 60.6577 185.589 60.9276C185.324 61.1974 184.983 61.4176 184.566 61.5881C184.15 61.7585 183.653 61.8438 183.075 61.8438C182.256 61.8438 181.51 61.6544 180.838 61.2756C180.17 60.892 179.637 60.3073 179.24 59.5213C178.847 58.7306 178.65 57.7315 178.65 56.5241C178.65 55.2884 178.851 54.2562 179.254 53.4276C179.656 52.599 180.191 51.9787 180.859 51.5668C181.531 51.1548 182.268 50.9489 183.068 50.9489C183.679 50.9489 184.19 51.053 184.602 51.2614C185.014 51.465 185.345 51.7206 185.596 52.0284C185.852 52.3314 186.048 52.6297 186.186 52.9233H186.299V51.0909H189.304V62.1065C189.304 63.0346 189.076 63.8111 188.622 64.4361C188.167 65.0611 187.538 65.5298 186.733 65.8423C185.932 66.1596 185.011 66.3182 183.97 66.3182ZM184.034 59.571C184.521 59.571 184.933 59.4503 185.27 59.2088C185.61 58.9626 185.871 58.6122 186.051 58.1577C186.235 57.6984 186.328 57.1491 186.328 56.5099C186.328 55.8707 186.238 55.3168 186.058 54.848C185.878 54.3745 185.618 54.0076 185.277 53.7472C184.936 53.4867 184.521 53.3565 184.034 53.3565C183.537 53.3565 183.118 53.4915 182.777 53.7614C182.436 54.0265 182.178 54.3958 182.002 54.8693C181.827 55.3428 181.74 55.8897 181.74 56.5099C181.74 57.1397 181.827 57.6842 182.002 58.1435C182.182 58.598 182.44 58.9508 182.777 59.2017C183.118 59.4479 183.537 59.571 184.034 59.571ZM196.683 62.2131C195.561 62.2131 194.595 61.9858 193.785 61.5312C192.98 61.072 192.36 60.4233 191.924 59.5852C191.489 58.7424 191.271 57.7457 191.271 56.5952C191.271 55.473 191.489 54.4882 191.924 53.6406C192.36 52.7931 192.973 52.1326 193.764 51.6591C194.559 51.1856 195.492 50.9489 196.562 50.9489C197.282 50.9489 197.952 51.0649 198.572 51.2969C199.197 51.5241 199.742 51.8674 200.206 52.3267C200.674 52.786 201.039 53.3636 201.299 54.0597C201.56 54.7509 201.69 55.5606 201.69 56.4886V57.3196H192.478V55.4446H198.842C198.842 55.009 198.747 54.6231 198.558 54.2869C198.368 53.9508 198.106 53.688 197.77 53.4986C197.438 53.3045 197.052 53.2074 196.612 53.2074C196.153 53.2074 195.745 53.3139 195.39 53.527C195.04 53.7353 194.765 54.017 194.566 54.3722C194.368 54.7225 194.266 55.1132 194.261 55.544V57.3267C194.261 57.8665 194.36 58.3329 194.559 58.7259C194.763 59.1188 195.049 59.4219 195.419 59.6349C195.788 59.848 196.226 59.9545 196.733 59.9545C197.069 59.9545 197.377 59.9072 197.656 59.8125C197.935 59.7178 198.174 59.5758 198.373 59.3864C198.572 59.197 198.724 58.965 198.828 58.6903L201.626 58.875C201.484 59.5473 201.193 60.1345 200.752 60.6364C200.317 61.1335 199.753 61.5218 199.062 61.8011C198.376 62.0758 197.583 62.2131 196.683 62.2131ZM209.467 51.0909V53.3636H202.897V51.0909H209.467ZM204.389 48.4773H207.414V58.6477C207.414 58.9271 207.457 59.1449 207.542 59.3011C207.627 59.4527 207.746 59.5592 207.897 59.6207C208.054 59.6823 208.234 59.7131 208.437 59.7131C208.579 59.7131 208.721 59.7012 208.863 59.6776C209.005 59.6491 209.114 59.6278 209.19 59.6136L209.666 61.8651C209.514 61.9124 209.301 61.9669 209.027 62.0284C208.752 62.0947 208.418 62.1349 208.025 62.1491C207.296 62.1776 206.657 62.0805 206.108 61.858C205.563 61.6354 205.139 61.2898 204.836 60.821C204.533 60.3523 204.384 59.7604 204.389 59.0455V48.4773ZM217.935 66.0909C217.551 66.0909 217.191 66.0601 216.855 65.9986C216.524 65.9418 216.249 65.8684 216.031 65.7784L216.713 63.5199C217.068 63.6288 217.388 63.688 217.672 63.6974C217.961 63.7069 218.209 63.6406 218.418 63.4986C218.631 63.3565 218.804 63.1151 218.936 62.7741L219.114 62.3125L215.2 51.0909H218.382L220.641 59.1023H220.754L223.034 51.0909H226.237L221.997 63.179C221.794 63.7661 221.517 64.2775 221.166 64.7131C220.821 65.1534 220.383 65.492 219.852 65.7287C219.322 65.9702 218.683 66.0909 217.935 66.0909ZM232.363 62.2131C231.26 62.2131 230.306 61.9787 229.501 61.5099C228.701 61.0365 228.083 60.3783 227.647 59.5355C227.211 58.688 226.994 57.7055 226.994 56.5881C226.994 55.4612 227.211 54.4763 227.647 53.6335C228.083 52.786 228.701 52.1278 229.501 51.6591C230.306 51.1856 231.26 50.9489 232.363 50.9489C233.466 50.9489 234.418 51.1856 235.218 51.6591C236.023 52.1278 236.643 52.786 237.079 53.6335C237.514 54.4763 237.732 55.4612 237.732 56.5881C237.732 57.7055 237.514 58.688 237.079 59.5355C236.643 60.3783 236.023 61.0365 235.218 61.5099C234.418 61.9787 233.466 62.2131 232.363 62.2131ZM232.377 59.8693C232.879 59.8693 233.298 59.7273 233.634 59.4432C233.97 59.1544 234.224 58.7614 234.394 58.2642C234.569 57.767 234.657 57.2012 234.657 56.5668C234.657 55.9323 234.569 55.3665 234.394 54.8693C234.224 54.3722 233.97 53.9792 233.634 53.6903C233.298 53.4015 232.879 53.2571 232.377 53.2571C231.871 53.2571 231.444 53.4015 231.099 53.6903C230.758 53.9792 230.5 54.3722 230.325 54.8693C230.154 55.3665 230.069 55.9323 230.069 56.5668C230.069 57.2012 230.154 57.767 230.325 58.2642C230.5 58.7614 230.758 59.1544 231.099 59.4432C231.444 59.7273 231.871 59.8693 232.377 59.8693ZM246.695 57.3551V51.0909H249.721V62H246.816V60.0185H246.702C246.456 60.6577 246.047 61.1714 245.474 61.5597C244.906 61.9479 244.212 62.142 243.393 62.142C242.664 62.142 242.022 61.9763 241.468 61.6449C240.914 61.3134 240.481 60.8423 240.168 60.2315C239.861 59.6207 239.704 58.8892 239.7 58.0369V51.0909H242.725V57.4972C242.73 58.1411 242.903 58.6501 243.244 59.0241C243.585 59.3982 244.041 59.5852 244.614 59.5852C244.979 59.5852 245.32 59.5024 245.637 59.3366C245.954 59.1662 246.21 58.9152 246.404 58.5838C246.603 58.2524 246.7 57.8428 246.695 57.3551ZM252.141 62V51.0909H255.074V52.9943H255.188C255.387 52.3172 255.721 51.8059 256.189 51.4602C256.658 51.1098 257.198 50.9347 257.809 50.9347C257.96 50.9347 258.123 50.9441 258.299 50.9631C258.474 50.982 258.628 51.008 258.76 51.0412V53.7259C258.618 53.6832 258.422 53.6454 258.171 53.6122C257.92 53.5791 257.69 53.5625 257.482 53.5625C257.037 53.5625 256.639 53.6596 256.289 53.8537C255.943 54.0431 255.668 54.3082 255.465 54.6491C255.266 54.9901 255.167 55.383 255.167 55.8281V62H252.141ZM268.064 62.206C267.368 62.206 266.748 62.0852 266.203 61.8438C265.659 61.5975 265.228 61.2353 264.911 60.7571C264.598 60.2741 264.442 59.6728 264.442 58.9531C264.442 58.3471 264.553 57.8381 264.776 57.4261C264.998 57.0142 265.301 56.6828 265.685 56.4318C266.069 56.1809 266.504 55.9915 266.992 55.8636C267.484 55.7358 268 55.6458 268.54 55.5938C269.175 55.5275 269.686 55.4659 270.074 55.4091C270.462 55.3475 270.744 55.2576 270.919 55.1392C271.095 55.0208 271.182 54.8456 271.182 54.6136V54.571C271.182 54.1212 271.04 53.7732 270.756 53.527C270.477 53.2808 270.079 53.1577 269.563 53.1577C269.018 53.1577 268.585 53.2784 268.263 53.5199C267.941 53.7566 267.728 54.0549 267.624 54.4148L264.826 54.1875C264.968 53.5246 265.247 52.9517 265.664 52.4688C266.08 51.9811 266.618 51.607 267.276 51.3466C267.939 51.0814 268.706 50.9489 269.577 50.9489C270.183 50.9489 270.763 51.0199 271.317 51.1619C271.876 51.304 272.371 51.5241 272.801 51.8224C273.237 52.1207 273.58 52.5043 273.831 52.973C274.082 53.437 274.208 53.9934 274.208 54.642V62H271.338V60.4872H271.253C271.078 60.8281 270.844 61.1288 270.55 61.3892C270.257 61.6449 269.904 61.8461 269.492 61.9929C269.08 62.1349 268.604 62.206 268.064 62.206ZM268.931 60.1179C269.376 60.1179 269.769 60.0303 270.11 59.8551C270.451 59.6752 270.718 59.4337 270.912 59.1307C271.106 58.8277 271.203 58.4844 271.203 58.1009V56.9432C271.109 57.0047 270.979 57.0616 270.813 57.1136C270.652 57.161 270.47 57.206 270.266 57.2486C270.062 57.2865 269.859 57.322 269.655 57.3551C269.452 57.3835 269.267 57.4096 269.101 57.4332C268.746 57.4853 268.436 57.5682 268.171 57.6818C267.906 57.7955 267.7 57.9493 267.553 58.1435C267.406 58.3329 267.333 58.5696 267.333 58.8537C267.333 59.2656 267.482 59.5805 267.78 59.7983C268.083 60.0114 268.467 60.1179 268.931 60.1179ZM276.555 66.0909V51.0909H279.538V52.9233H279.673C279.806 52.6297 279.997 52.3314 280.248 52.0284C280.504 51.7206 280.835 51.465 281.243 51.2614C281.654 51.053 282.166 50.9489 282.777 50.9489C283.572 50.9489 284.306 51.1572 284.978 51.5739C285.651 51.9858 286.188 52.6084 286.591 53.4418C286.993 54.2704 287.194 55.3097 287.194 56.5597C287.194 57.7765 286.998 58.804 286.605 59.642C286.217 60.4754 285.686 61.1075 285.014 61.5384C284.346 61.9645 283.598 62.1776 282.77 62.1776C282.182 62.1776 281.683 62.0805 281.271 61.8864C280.864 61.6922 280.53 61.4484 280.27 61.1548C280.009 60.8565 279.81 60.5559 279.673 60.2528H279.581V66.0909H276.555ZM279.517 56.5455C279.517 57.1941 279.607 57.7599 279.787 58.2429C279.967 58.7259 280.227 59.1023 280.568 59.3722C280.909 59.6373 281.323 59.7699 281.811 59.7699C282.303 59.7699 282.72 59.6349 283.061 59.3651C283.402 59.0904 283.66 58.7116 283.835 58.2287C284.015 57.741 284.105 57.1799 284.105 56.5455C284.105 55.9157 284.017 55.3617 283.842 54.8835C283.667 54.4053 283.409 54.0312 283.068 53.7614C282.727 53.4915 282.308 53.3565 281.811 53.3565C281.318 53.3565 280.902 53.4867 280.561 53.7472C280.225 54.0076 279.967 54.3769 279.787 54.8551C279.607 55.3333 279.517 55.8968 279.517 56.5455ZM289.211 66.0909V51.0909H292.194V52.9233H292.329C292.462 52.6297 292.654 52.3314 292.904 52.0284C293.16 51.7206 293.492 51.465 293.899 51.2614C294.311 51.053 294.822 50.9489 295.433 50.9489C296.228 50.9489 296.962 51.1572 297.635 51.5739C298.307 51.9858 298.844 52.6084 299.247 53.4418C299.649 54.2704 299.85 55.3097 299.85 56.5597C299.85 57.7765 299.654 58.804 299.261 59.642C298.873 60.4754 298.342 61.1075 297.67 61.5384C297.002 61.9645 296.254 62.1776 295.426 62.1776C294.839 62.1776 294.339 62.0805 293.927 61.8864C293.52 61.6922 293.186 61.4484 292.926 61.1548C292.665 60.8565 292.467 60.5559 292.329 60.2528H292.237V66.0909H289.211ZM292.173 56.5455C292.173 57.1941 292.263 57.7599 292.443 58.2429C292.623 58.7259 292.883 59.1023 293.224 59.3722C293.565 59.6373 293.979 59.7699 294.467 59.7699C294.959 59.7699 295.376 59.6349 295.717 59.3651C296.058 59.0904 296.316 58.7116 296.491 58.2287C296.671 57.741 296.761 57.1799 296.761 56.5455C296.761 55.9157 296.673 55.3617 296.498 54.8835C296.323 54.4053 296.065 54.0312 295.724 53.7614C295.383 53.4915 294.964 53.3565 294.467 53.3565C293.975 53.3565 293.558 53.4867 293.217 53.7472C292.881 54.0076 292.623 54.3769 292.443 54.8551C292.263 55.3333 292.173 55.8968 292.173 56.5455ZM306.797 62.2131C305.693 62.2131 304.739 61.9787 303.934 61.5099C303.134 61.0365 302.516 60.3783 302.081 59.5355C301.645 58.688 301.427 57.7055 301.427 56.5881C301.427 55.4612 301.645 54.4763 302.081 53.6335C302.516 52.786 303.134 52.1278 303.934 51.6591C304.739 51.1856 305.693 50.9489 306.797 50.9489C307.9 50.9489 308.851 51.1856 309.652 51.6591C310.457 52.1278 311.077 52.786 311.512 53.6335C311.948 54.4763 312.166 55.4612 312.166 56.5881C312.166 57.7055 311.948 58.688 311.512 59.5355C311.077 60.3783 310.457 61.0365 309.652 61.5099C308.851 61.9787 307.9 62.2131 306.797 62.2131ZM306.811 59.8693C307.313 59.8693 307.732 59.7273 308.068 59.4432C308.404 59.1544 308.657 58.7614 308.828 58.2642C309.003 57.767 309.091 57.2012 309.091 56.5668C309.091 55.9323 309.003 55.3665 308.828 54.8693C308.657 54.3722 308.404 53.9792 308.068 53.6903C307.732 53.4015 307.313 53.2571 306.811 53.2571C306.304 53.2571 305.878 53.4015 305.532 53.6903C305.191 53.9792 304.933 54.3722 304.758 54.8693C304.588 55.3665 304.502 55.9323 304.502 56.5668C304.502 57.2012 304.588 57.767 304.758 58.2642C304.933 58.7614 305.191 59.1544 305.532 59.4432C305.878 59.7273 306.304 59.8693 306.811 59.8693ZM314.133 62V51.0909H317.159V62H314.133ZM315.653 49.6847C315.203 49.6847 314.817 49.5355 314.495 49.2372C314.178 48.9342 314.02 48.572 314.02 48.1506C314.02 47.7339 314.178 47.3764 314.495 47.0781C314.817 46.7751 315.203 46.6236 315.653 46.6236C316.103 46.6236 316.486 46.7751 316.804 47.0781C317.126 47.3764 317.287 47.7339 317.287 48.1506C317.287 48.572 317.126 48.9342 316.804 49.2372C316.486 49.5355 316.103 49.6847 315.653 49.6847ZM322.608 55.6932V62H319.582V51.0909H322.466V53.0156H322.594C322.835 52.3812 323.24 51.8793 323.808 51.5099C324.376 51.1359 325.065 50.9489 325.875 50.9489C326.633 50.9489 327.293 51.1146 327.857 51.446C328.42 51.7775 328.858 52.2509 329.17 52.8665C329.483 53.4773 329.639 54.2064 329.639 55.054V62H326.614V55.5938C326.618 54.9261 326.448 54.4053 326.102 54.0312C325.757 53.6525 325.281 53.4631 324.675 53.4631C324.268 53.4631 323.908 53.5507 323.595 53.7259C323.287 53.901 323.046 54.1567 322.871 54.4929C322.7 54.8243 322.613 55.2244 322.608 55.6932ZM337.826 51.0909V53.3636H331.257V51.0909H337.826ZM332.748 48.4773H335.774V58.6477C335.774 58.9271 335.816 59.1449 335.902 59.3011C335.987 59.4527 336.105 59.5592 336.257 59.6207C336.413 59.6823 336.593 59.7131 336.797 59.7131C336.939 59.7131 337.081 59.7012 337.223 59.6776C337.365 59.6491 337.474 59.6278 337.549 59.6136L338.025 61.8651C337.874 61.9124 337.661 61.9669 337.386 62.0284C337.111 62.0947 336.778 62.1349 336.385 62.1491C335.655 62.1776 335.016 62.0805 334.467 61.858C333.922 61.6354 333.499 61.2898 333.196 60.821C332.893 60.3523 332.743 59.7604 332.748 59.0455V48.4773ZM339.797 62V51.0909H342.681V53.0156H342.809C343.036 52.3764 343.415 51.8722 343.945 51.5028C344.475 51.1335 345.11 50.9489 345.848 50.9489C346.596 50.9489 347.233 51.1359 347.759 51.5099C348.284 51.8793 348.635 52.3812 348.81 53.0156H348.924C349.146 52.3906 349.549 51.8911 350.131 51.517C350.718 51.1383 351.412 50.9489 352.212 50.9489C353.23 50.9489 354.056 51.2732 354.691 51.9219C355.33 52.5658 355.65 53.4796 355.65 54.6634V62H352.631V55.2599C352.631 54.6539 352.47 54.1993 352.148 53.8963C351.826 53.5933 351.424 53.4418 350.941 53.4418C350.391 53.4418 349.963 53.617 349.655 53.9673C349.347 54.313 349.194 54.7699 349.194 55.3381V62H346.26V55.196C346.26 54.661 346.106 54.2348 345.799 53.9176C345.496 53.6004 345.096 53.4418 344.598 53.4418C344.262 53.4418 343.959 53.527 343.689 53.6974C343.424 53.8632 343.213 54.0975 343.057 54.4006C342.901 54.6989 342.823 55.0492 342.823 55.4517V62H339.797ZM363.011 62.2131C361.889 62.2131 360.923 61.9858 360.113 61.5312C359.308 61.072 358.688 60.4233 358.252 59.5852C357.817 58.7424 357.599 57.7457 357.599 56.5952C357.599 55.473 357.817 54.4882 358.252 53.6406C358.688 52.7931 359.301 52.1326 360.092 51.6591C360.887 51.1856 361.82 50.9489 362.89 50.9489C363.61 50.9489 364.28 51.0649 364.9 51.2969C365.525 51.5241 366.07 51.8674 366.534 52.3267C367.002 52.786 367.367 53.3636 367.627 54.0597C367.888 54.7509 368.018 55.5606 368.018 56.4886V57.3196H358.806V55.4446H365.17C365.17 55.009 365.075 54.6231 364.886 54.2869C364.697 53.9508 364.434 53.688 364.098 53.4986C363.766 53.3045 363.38 53.2074 362.94 53.2074C362.481 53.2074 362.074 53.3139 361.718 53.527C361.368 53.7353 361.093 54.017 360.895 54.3722C360.696 54.7225 360.594 55.1132 360.589 55.544V57.3267C360.589 57.8665 360.689 58.3329 360.887 58.7259C361.091 59.1188 361.377 59.4219 361.747 59.6349C362.116 59.848 362.554 59.9545 363.061 59.9545C363.397 59.9545 363.705 59.9072 363.984 59.8125C364.263 59.7178 364.502 59.5758 364.701 59.3864C364.9 59.197 365.052 58.965 365.156 58.6903L367.954 58.875C367.812 59.5473 367.521 60.1345 367.081 60.6364C366.645 61.1335 366.082 61.5218 365.39 61.8011C364.704 62.0758 363.911 62.2131 363.011 62.2131ZM373.018 55.6932V62H369.993V51.0909H372.876V53.0156H373.004C373.245 52.3812 373.65 51.8793 374.218 51.5099C374.787 51.1359 375.475 50.9489 376.285 50.9489C377.043 50.9489 377.703 51.1146 378.267 51.446C378.83 51.7775 379.268 52.2509 379.581 52.8665C379.893 53.4773 380.049 54.2064 380.049 55.054V62H377.024V55.5938C377.029 54.9261 376.858 54.4053 376.512 54.0312C376.167 53.6525 375.691 53.4631 375.085 53.4631C374.678 53.4631 374.318 53.5507 374.005 53.7259C373.698 53.901 373.456 54.1567 373.281 54.4929C373.11 54.8243 373.023 55.2244 373.018 55.6932ZM388.237 51.0909V53.3636H381.667V51.0909H388.237ZM383.158 48.4773H386.184V58.6477C386.184 58.9271 386.227 59.1449 386.312 59.3011C386.397 59.4527 386.515 59.5592 386.667 59.6207C386.823 59.6823 387.003 59.7131 387.207 59.7131C387.349 59.7131 387.491 59.7012 387.633 59.6776C387.775 59.6491 387.884 59.6278 387.96 59.6136L388.435 61.8651C388.284 61.9124 388.071 61.9669 387.796 62.0284C387.522 62.0947 387.188 62.1349 386.795 62.1491C386.066 62.1776 385.426 62.0805 384.877 61.858C384.333 61.6354 383.909 61.2898 383.606 60.821C383.303 60.3523 383.154 59.7604 383.158 59.0455V48.4773ZM393.822 47.4545L393.545 57.6392H390.946L390.662 47.4545H393.822ZM392.246 62.1847C391.777 62.1847 391.375 62.0189 391.038 61.6875C390.702 61.3513 390.536 60.9489 390.541 60.4801C390.536 60.0161 390.702 59.6184 391.038 59.2869C391.375 58.9555 391.777 58.7898 392.246 58.7898C392.696 58.7898 393.091 58.9555 393.432 59.2869C393.773 59.6184 393.946 60.0161 393.95 60.4801C393.946 60.7926 393.863 61.0791 393.702 61.3395C393.545 61.5952 393.339 61.8011 393.084 61.9574C392.828 62.1089 392.549 62.1847 392.246 62.1847ZM400.307 47.4545L400.03 57.6392H397.43L397.146 47.4545H400.307ZM398.73 62.1847C398.261 62.1847 397.859 62.0189 397.523 61.6875C397.187 61.3513 397.021 60.9489 397.026 60.4801C397.021 60.0161 397.187 59.6184 397.523 59.2869C397.859 58.9555 398.261 58.7898 398.73 58.7898C399.18 58.7898 399.575 58.9555 399.916 59.2869C400.257 59.6184 400.43 60.0161 400.435 60.4801C400.43 60.7926 400.347 61.0791 400.186 61.3395C400.03 61.5952 399.824 61.8011 399.568 61.9574C399.312 62.1089 399.033 62.1847 398.73 62.1847Z" fill="#414141"/>
<path d="M46.0004 22C42.0222 22 38.2069 23.5804 35.3938 26.3934C32.5808 29.2064 31.0004 33.0218 31.0004 37V45.965L29.2329 47.7325C28.8834 48.0821 28.6454 48.5275 28.549 49.0124C28.4526 49.4973 28.5021 49.9999 28.6912 50.4566C28.8804 50.9134 29.2008 51.3038 29.6118 51.5785C30.0228 51.8532 30.5061 51.9999 31.0004 52H61.0004C61.4948 51.9999 61.9781 51.8532 62.3891 51.5785C62.8001 51.3038 63.1205 50.9134 63.3096 50.4566C63.4988 49.9999 63.5483 49.4973 63.4519 49.0124C63.3555 48.5275 63.1175 48.0821 62.7679 47.7325L61.0004 45.965V37C61.0004 33.0218 59.4201 29.2064 56.607 26.3934C53.794 23.5804 49.9787 22 46.0004 22ZM46.0004 62C44.0113 62 42.1037 61.2098 40.6971 59.8033C39.2906 58.3968 38.5004 56.4891 38.5004 54.5H53.5004C53.5004 56.4891 52.7103 58.3968 51.3037 59.8033C49.8972 61.2098 47.9896 62 46.0004 62Z" fill="black"/>
</svg>
