<svg width="126" height="119" viewBox="0 0 126 119" fill="none" xmlns="http://www.w3.org/2000/svg">
<rect x="4" y="4" width="106" height="106" rx="7" fill="black" stroke="black" stroke-width="2"/>
<rect x="1" y="1" width="106" height="106" rx="7" fill="white" stroke="black" stroke-width="2"/>
<path fill-rule="evenodd" clip-rule="evenodd" d="M54.0004 87.5999C62.9117 87.5999 71.458 84.0599 77.7592 77.7587C84.0604 71.4575 87.6004 62.9112 87.6004 53.9999C87.6004 45.0886 84.0604 36.5423 77.7592 30.2411C71.458 23.9399 62.9117 20.3999 54.0004 20.3999C45.0891 20.3999 36.5428 23.9399 30.2416 30.2411C23.9404 36.5423 20.4004 45.0886 20.4004 53.9999C20.4004 62.9112 23.9404 71.4575 30.2416 77.7587C36.5428 84.0599 45.0891 87.5999 54.0004 87.5999ZM58.2004 37.1999C58.2004 36.086 57.7579 35.0177 56.9702 34.2301C56.1826 33.4424 55.1143 32.9999 54.0004 32.9999C52.8865 32.9999 51.8182 33.4424 51.0305 34.2301C50.2429 35.0177 49.8004 36.086 49.8004 37.1999V53.9999C49.8006 55.1137 50.2433 56.1818 51.031 56.9693L62.9086 68.8511C63.2988 69.2413 63.7621 69.5509 64.2719 69.7621C64.7818 69.9732 65.3282 70.0819 65.8801 70.0819C66.4319 70.0819 66.9784 69.9732 67.4883 69.7621C67.9981 69.5509 68.4614 69.2413 68.8516 68.8511C69.2418 68.4609 69.5514 67.9976 69.7625 67.4878C69.9737 66.9779 70.0824 66.4315 70.0824 65.8796C70.0824 65.3277 69.9737 64.7813 69.7625 64.2714C69.5514 63.7616 69.2418 63.2983 68.8516 62.9081L58.2004 52.2611V37.1999Z" fill="black"/>
<rect x="46.7918" y="98.8369" width="89.5132" height="24.5034" rx="12.2517" transform="rotate(-45 46.7918 98.8369)" fill="#D9D9D9" stroke="black" stroke-width="2"/>
<rect x="41.9121" y="66.1981" width="50.9672" height="24.5034" rx="12.2517" transform="rotate(45 41.9121 66.1981)" fill="black" stroke="black" stroke-width="2"/>
<rect x="44.8564" y="102.187" width="92.251" height="22.5034" rx="11.2517" transform="rotate(-45 44.8564 102.187)" fill="black"/>
<rect x="44.7918" y="95.8362" width="89.5132" height="24.5034" rx="12.2517" transform="rotate(-45 44.7918 95.8362)" fill="#D9D9D9" stroke="black" stroke-width="2"/>
<rect x="39.9121" y="63.1971" width="50.9672" height="24.5034" rx="12.2517" transform="rotate(45 39.9121 63.1971)" fill="#22C55E" stroke="black" stroke-width="2"/>
<rect x="42.8564" y="99.1863" width="92.251" height="22.5034" rx="11.2517" transform="rotate(-45 42.8564 99.1863)" fill="#22C55E"/>
</svg>
